<svg width="70" height="70" viewBox="0 0 70 70" fill="none" xmlns="http://www.w3.org/2000/svg">
<path d="M0.00999642 30.3275C0.00999642 30.3275 2.19874 34.2454 6.98601 30.3275L35.5697 6.91681L62.3844 30.1824C67.9212 34.052 70 30.1824 70 30.1824L35.5697 0L0 30.3275H0.00999642Z" fill="#303031"/>
<path style="mix-blend-mode:multiply" d="M35.01 70C53.6665 70 68.7907 68.4624 68.7907 66.5658C68.7907 64.6691 53.6665 63.1316 35.01 63.1316C16.3534 63.1316 1.22925 64.6691 1.22925 66.5658C1.22925 68.4624 16.3534 70 35.01 70Z" fill="url(#paint0_radial_1_11)"/>
<path d="M35.3597 11.3184L9.52448 32.2623V58.4978C9.52448 58.4978 9.47451 60.0166 10.9936 60.0166C12.6527 60.0166 24.7758 59.9972 27.894 59.9972V37.7377H42.1259V59.9585H57.8569C59.8058 59.9585 59.7158 58.0721 59.7158 58.0721V32.2623L35.3697 11.3184H35.3597Z" fill="#303031"/>
<defs>
<radialGradient id="paint0_radial_1_11" cx="0" cy="0" r="1" gradientUnits="userSpaceOnUse" gradientTransform="translate(35.1076 66.9903) scale(30.1822 2.65586)">
<stop stop-color="#303030"/>
<stop offset="0.27" stop-color="#4F4F4F" stop-opacity="0.85"/>
<stop offset="0.68" stop-color="#A6A6A6" stop-opacity="0.43"/>
<stop offset="1" stop-color="white" stop-opacity="0"/>
</radialGradient>
</defs>
</svg>
