<svg width="32" height="45" viewBox="0 0 32 45" fill="none" xmlns="http://www.w3.org/2000/svg">
<path d="M31.3 42.8L22.8 27.26L22.12 27.63L20.12 23.97C25.54 20.42 27.41 13.26 24.25 7.48C20.93 1.4 13.31 -0.830002 7.23 2.5C1.15 5.82 -1.08 13.44 2.25 19.52C5.41 25.3 12.46 27.59 18.37 24.94L20.37 28.6L21.83 27.8L20.75 28.39L20.71 28.41L19.69 28.97L28.19 44.51L28.64 44.26L29.26 43.92L31.31 42.8H31.3ZM4.9 18.06C2.38 13.45 4.07 7.67 8.68 5.15C13.29 2.63 19.07 4.32 21.59 8.93C24.11 13.54 22.42 19.32 17.81 21.84C13.2 24.36 7.42 22.67 4.9 18.06Z" fill="#303031"/>
</svg>
