<?xml version="1.0" encoding="utf-8"?>
<!-- Generator: Adobe Illustrator 27.7.0, SVG Export Plug-In . SVG Version: 6.00 Build 0)  -->
<svg version="1.1" id="Camada_1" xmlns="http://www.w3.org/2000/svg" xmlns:xlink="http://www.w3.org/1999/xlink" x="0px" y="0px"
	 viewBox="0 0 80 116" style="enable-background:new 0 0 80 116;" xml:space="preserve">
<style type="text/css">
	.st0{fill:#0072BB;}
	.st1{fill:#FFFFFF;}
</style>
<path class="st0" d="M40,116c0,0-52-54.7-37.4-89.7s60.2-35,74.8,0S40,116,40,116z"/>
<circle class="st1" cx="40" cy="39" r="30"/>
<g>
	<path class="st0" d="M24.4,46.2c0-1.2,0.2-2.3,0.4-3.4c0.2-0.8,0.4-1.6,0.6-2.4c0.4-1.3,0.9-2.5,1.4-3.8c0.7-1.8,1.6-3.5,2.6-5.2
		c1.2-2.2,2.5-4.3,3.9-6.3c1.3-1.9,2.7-3.8,4.1-5.7c0.8-1,1.6-2.1,2.5-3.1c0.1-0.2,0.2-0.1,0.3,0c0.6,0.7,1.2,1.5,1.8,2.3
		c0.7,0.8,1.3,1.7,1.9,2.5c1.9,2.6,3.7,5.2,5.4,8c1,1.7,2.1,3.5,2.9,5.3c0.6,1.3,1.2,2.6,1.7,3.9c0.5,1.4,0.9,2.8,1.2,4.3
		c0.2,0.7,0.3,1.5,0.3,2.2c0,0.5,0.1,1,0.1,1.5c0,0.7-0.1,1.5-0.2,2.2c-0.2,1-0.4,2-0.7,2.9c-0.3,1-0.8,2-1.4,2.9
		c-1.2,1.8-2.7,3.4-4.5,4.6c-1.2,0.8-2.4,1.4-3.8,1.8c-0.9,0.3-1.8,0.5-2.8,0.6S40,61.5,39,61.4c-0.7,0-1.5-0.2-2.2-0.3
		c-1-0.2-2-0.5-2.9-1c-1.1-0.5-2.2-1.1-3.1-1.8c-2.3-1.8-4.1-4-5.2-6.7c-0.4-1.1-0.8-2.2-0.9-3.4C24.5,47.8,24.4,47,24.4,46.2z
		 M49.6,37.6c0.1,0.6,0.2,1.1,0.3,1.6c0.1,0.6,0.2,1.1,0.2,1.7c0,0.6-0.1,1.3-0.1,1.9c-0.2,1.1-0.5,2.2-1,3.2
		c-0.6,1.6-1.6,2.9-2.8,4.1c-0.4,0.4-0.6,0.8-0.7,1.3c-0.2,0.9,0.4,1.9,1.3,2.3c1.1,0.4,2,0.1,2.7-0.7c0.9-1,1.4-2.2,1.9-3.5
		c0.4-1.1,0.5-2.3,0.5-3.5c0-0.5,0-1,0-1.5c-0.1-0.8-0.2-1.6-0.4-2.4c-0.3-1.4-0.8-2.7-1.5-3.9C49.8,38,49.7,37.8,49.6,37.6z"/>
</g>
</svg>
