<?xml version="1.0" encoding="utf-8"?>
<!-- Generator: Adobe Illustrator 27.7.0, SVG Export Plug-In . SVG Version: 6.00 Build 0)  -->
<svg version="1.1" id="Camada_1" xmlns="http://www.w3.org/2000/svg" xmlns:xlink="http://www.w3.org/1999/xlink" x="0px" y="0px"
	 viewBox="0 0 80 116" style="enable-background:new 0 0 80 116;" xml:space="preserve">
<style type="text/css">
	.st0{fill:#43281C;}
	.st1{fill:#FFFFFF;}
</style>
<path class="st0" d="M40,116c0,0-52-54.7-37.4-89.7s60.2-35,74.8,0S40,116,40,116z"/>
<circle class="st1" cx="40" cy="39" r="30"/>
<g>
	<path class="st0" d="M39.8,56.9c-3.8,0-7.5,0-11.3,0c-0.3,0-0.5,0-0.8,0c-0.6-0.1-1-0.5-1-1.1c0-1.7,0.7-3.2,2-4.3
		c1.4-1.2,3-1.6,4.8-1.2c0.2,0,0.2-0.1,0.2-0.2c0.2-0.9,0.6-1.7,1.3-2.4c0.9-0.9,2-1.3,3.3-1.4c0.1,0,0.3,0,0.4,0
		c0.1,0,0.2,0,0.2-0.2c0-1.5,0-3.1,0-4.6c0-0.6-0.3-1.2-0.7-1.6c-0.2-0.2-0.4-0.4-0.6-0.7c-0.2-0.2-0.3-0.2-0.5-0.1
		c-1.4,0.6-2.8,0.9-4.3,1.1c-2,0.2-4-0.1-5.8-0.8c-2.7-1-4.7-2.8-6.3-5.1c-1.6-2.2-2.4-4.6-2.7-7.3c-0.1-0.7-0.1-1.4-0.2-2.1
		c0-0.2,0-0.3,0.2-0.2c1.8,0.4,3.6,0.6,5.5,0.4c2.2-0.2,4.3,0.2,6.4,0.9c1.3,0.4,2.6,1,3.7,1.8c2.7,1.9,4.3,4.4,5,7.6
		c0.1,0.3,0.1,0.7,0.2,1c0,0.3,0.1,0.5,0.3,0.7c0.4,0.4,0.7,0.7,1.1,1.1c0.1,0.1,0.2,0.1,0.3,0c0.3-0.2,0.6-0.5,0.9-0.7
		c0.1-0.1,0.2-0.2,0.2-0.3c0.7-4,3.1-6.6,6.8-8.1c1.6-0.6,3.3-1,5.1-0.9c0.8,0,1.6,0.1,2.5,0s1.7-0.1,2.6-0.4c0.2,0,0.3,0,0.3,0.2
		c-0.1,3.2-0.9,6.1-3,8.5c-1.7,2-3.8,3.4-6.4,3.8c-2,0.3-3.9,0.1-5.8-0.5c-0.5-0.2-0.9,0-1.2,0.3c-0.5,0.6-0.8,1.3-0.8,2.1
		c0,1.5,0,3,0,4.6c0,0.5,0.1,0.9,0.5,1.3c0.5,0.5,0.8,1.2,1,1.9c0,0.2,0.1,0.3,0.3,0.2c2.9-1.1,6.4,0.2,8,2.4c0.6,0.9,1.1,1.9,1.3,3
		c0.2,0.8-0.3,1.4-1.2,1.4c-1.5,0-3.1,0-4.6,0C44.6,56.9,42.2,56.9,39.8,56.9L39.8,56.9z M37.3,36.5c-2.4-5.5-10.2-10-16.1-9.5
		c3,1.1,5.8,2.5,8.5,4C32.4,32.6,34.9,34.6,37.3,36.5z M43,37.5c0.2-0.2,0.5-0.4,0.7-0.6c1.7-1.5,3.5-2.8,5.4-3.9
		c2.1-1.3,4.4-2.3,6.7-3.2c0.1,0,0.2,0,0.2-0.2c-0.8,0-1.6,0-2.4,0.1c-1.9,0.3-3.7,1-5.3,2c-2.2,1.3-4,3.1-5.2,5.3
		C43.1,37.3,43,37.4,43,37.5z"/>
</g>
</svg>
