<?xml version="1.0" encoding="utf-8"?>
<!-- Generator: Adobe Illustrator 27.7.0, SVG Export Plug-In . SVG Version: 6.00 Build 0)  -->
<svg version="1.1" id="Camada_1" xmlns="http://www.w3.org/2000/svg" xmlns:xlink="http://www.w3.org/1999/xlink" x="0px" y="0px"
	 viewBox="0 0 80 116" style="enable-background:new 0 0 80 116;" xml:space="preserve">
<style type="text/css">
	.st0{fill:#C40000;}
	.st1{fill:#FFFFFF;}
</style>
<path class="st0" d="M40,116c0,0-52-54.7-37.4-89.7s60.2-35,74.8,0S40,116,40,116z"/>
<circle class="st1" cx="40" cy="39" r="30"/>
<g>
	<path class="st0" d="M43.2,38.1c0-2.6,0.1-5.7,0.1-8.9c0-3.3,0.1-6.6,0.1-10c0-0.6,0.3-1,0.8-1.2c0.2,0,0.4,0,0.6,0
		c2.4,0.6,4.1,2,5,4.3c0.8,2,1.4,4,1.7,6c0.3,1.5,0.4,3,0.5,4.5c0,0.9,0.1,1.9,0.2,2.8c0.1,1.8-1.1,3.3-3,3.4c-0.3,0-0.7,0-1,0
		C48,39,48,39,48,39.2c0,2,0.1,4,0.1,6.1c0,2.5,0.1,5,0.1,7.5c0,1.7,0,3.5,0.1,5.2c0,0.7-0.2,1.4-0.7,1.9c-0.7,0.8-1.7,1.1-2.7,0.8
		c-1.1-0.3-1.6-1.1-1.8-2.1c-0.1-0.5-0.1-1.1,0-1.6c0.1-2.8,0.1-5.7,0.1-8.5C43.2,45.2,43.3,42,43.2,38.1z"/>
	<path class="st0" d="M39.1,25.4c0,1.8,0,3.6,0,5.4c0,1.1-0.3,2.1-1.1,2.9c-0.6,0.6-1.3,0.9-2.1,1.1c-0.2,0-0.3,0.1-0.3,0.4
		c0.1,3.7,0.2,7.4,0.2,11.2c0,2.8,0.1,5.5,0.2,8.3c0,1.3,0.1,2.6,0,3.9c0,1.3-1.1,2.3-2.4,2.4c-1.2,0.1-2.4-0.7-2.7-1.9
		c-0.1-0.3-0.1-0.5-0.1-0.8c0-1.8,0-3.6,0.1-5.4c0.1-4.1,0.2-8.2,0.2-12.3c0-1.8,0.1-3.6,0.1-5.3c0-0.3-0.2-0.2-0.3-0.2
		c-0.8-0.2-1.5-0.5-2.1-1.1c-0.7-0.8-1.1-1.7-1.1-2.8c0-3.8,0-7.6,0-11.3c0-0.1,0-0.2,0-0.3c0.1-0.6,0.5-1,1.1-1s1.1,0.4,1.1,1
		c0,0.3,0,0.7,0,1c0,2.8,0,5.7,0,8.5c0,0.1,0,0.2,0,0.3c0,0.3,0.2,0.4,0.4,0.5c0.5,0.1,1,0.1,1.5,0c0.2,0,0.4-0.2,0.4-0.5
		c0-0.2,0-0.3,0-0.5c0-3,0-6,0-8.9c0-0.1,0-0.3,0-0.4c0.1-0.6,0.5-1,1.1-1s1,0.5,1.1,1.1c0,0.3,0,0.7,0,1c0,2.8,0,5.6,0,8.5
		c0,0.6,0.2,0.7,0.7,0.7c0.3,0,0.6,0,0.9,0c0.5,0,0.7-0.2,0.7-0.7c0-1,0-2,0-3.1c0-2.1,0-4.3,0-6.4c0-0.5,0.3-1,0.8-1.1
		c0.6-0.2,1.3,0.2,1.4,0.9c0,0.1,0,0.3,0,0.4C39.1,21.6,39.1,23.5,39.1,25.4L39.1,25.4z"/>
</g>
</svg>
