<?xml version="1.0" encoding="utf-8"?>
<!-- Generator: Adobe Illustrator 27.7.0, SVG Export Plug-In . SVG Version: 6.00 Build 0)  -->
<svg version="1.1" id="Camada_1" xmlns="http://www.w3.org/2000/svg" xmlns:xlink="http://www.w3.org/1999/xlink" x="0px" y="0px"
	 viewBox="0 0 80 116" style="enable-background:new 0 0 80 116;" xml:space="preserve">
<style type="text/css">
	.st0{fill:#FF9D00;}
	.st1{fill:#FFFFFF;}
</style>
<path class="st0" d="M40,116c0,0-52-54.7-37.4-89.7s60.2-35,74.8,0S40,116,40,116z"/>
<circle class="st1" cx="40" cy="39" r="30"/>
<g>
	<path class="st0" d="M47.4,49.8c-0.1,0.2-0.2,0.4-0.2,0.6c-0.4,1.1-1,2.1-1.7,3c-1.4,1.8-3.1,3.3-5,4.5c-0.3,0.2-0.6,0.2-0.9,0
		c-1.6-1-3-2.2-4.3-3.6c-1.1-1.2-2-2.7-2.6-4.2c-0.1-0.3-0.1-0.3-0.3,0c-0.7,0.9-1.5,1.7-2.4,2.3c-0.8,0.6-1.8,0.9-2.8,1
		c-0.6,0.1-1.3-0.1-1.8-0.3c-2-0.8-3.4-2.2-4.1-4.2c-0.6-1.7-0.4-3.3,0.4-4.9c0.5-1.1,1.2-2.1,2-3c1.7-1.9,3.7-3.5,5.8-4.9
		c1.4-0.9,2.7-1.7,4.2-2.4l0.1-0.1c0.7-0.1,0.8-0.7,1.1-1.2c0.1-0.1,0-0.2-0.1-0.3c-0.7-1-1-2.1-1-3.3c0-1.4,0.6-2.4,1.8-3.1
		c0.6-0.3,1.2-0.6,1.9-0.7c0.3-0.1,0.3-0.1,0.2-0.3c-0.4-1.5-1-3-2-4.2c-0.6-0.8-1.3-1.5-2.2-2c-0.3-0.2-0.5-0.3-0.8-0.4
		c-0.2,0-0.4,0-0.6,0c-0.3,0.1-0.5,0-0.7-0.2c-0.1-0.3,0-0.5,0.2-0.7c0.4-0.2,0.9-0.2,1.3-0.1c0.8,0.2,1.4,0.6,2,1.1
		c1.2,1,2.1,2.3,2.8,3.7c0.4,0.9,0.8,1.8,1,2.7c0,0.2,0.1,0.2,0.3,0.2c0.7,0,1.3,0,2,0c0.2,0,0.2-0.1,0.3-0.2
		c0.4-1.6,1.1-3.1,2.1-4.5c0.8-1.1,1.7-2,2.9-2.7c0.4-0.2,0.9-0.4,1.4-0.4c0.3,0,0.6,0.1,0.9,0.3c0.2,0.2,0.3,0.4,0.1,0.6
		c-0.1,0.2-0.4,0.3-0.6,0.2c-0.2-0.1-0.5-0.1-0.7,0c-0.4,0.1-0.7,0.3-1,0.5c-1.4,1-2.4,2.3-3.1,3.8c-0.4,0.7-0.6,1.5-0.8,2.3
		c-0.1,0.2,0,0.2,0.2,0.3c0.8,0.2,1.5,0.4,2.2,0.8c1.2,0.8,1.7,1.9,1.6,3.2c0,1.1-0.4,2.2-1,3.1c-0.1,0.1-0.1,0.2,0,0.3
		c0.1,0.2,0.2,0.5,0.3,0.7c0.1,0.1,0.1,0.2,0.3,0.3c2.6,1.1,5,2.7,7.2,4.4c1.6,1.2,3.1,2.7,4.3,4.3c0.9,1.2,1.5,2.5,1.7,3.9
		c0.3,1.6-0.1,3-1,4.3c-0.7,1.1-1.7,1.9-2.8,2.5s-2.3,0.7-3.5,0.4c-0.9-0.3-1.7-0.8-2.5-1.5C48.6,51.2,48,50.6,47.4,49.8
		C47.5,49.9,47.5,49.9,47.4,49.8z M53,52.4c0.5,0,0.9-0.1,1.4-0.3c0.9-0.4,1.6-1,2.2-1.6c1.3-1.3,1.8-2.9,1.4-4.8
		c-0.3-1.3-1-2.5-1.8-3.5c-1.1-1.4-2.5-2.6-3.9-3.8c-1.3-1-2.6-1.9-4-2.7c-1-0.6-2.1-1.2-3.2-1.6c-0.8-0.3-1.6-0.2-2.2,0.4
		c-0.7,0.6-0.9,1.4-0.7,2.2c0.5,1.6,1.1,3.2,1.8,4.7c1,2.3,2.1,4.6,3.5,6.7c0.8,1.2,1.7,2.3,2.8,3.2C51.1,52,52,52.4,53,52.4z
		 M26.8,52.4c0.5,0,1-0.1,1.5-0.3c1.1-0.4,1.9-1.2,2.7-2c1.1-1.2,2-2.7,2.8-4.1c1.6-2.9,2.8-6,3.9-9.2c0.3-0.9,0-1.7-0.7-2.3
		s-1.5-0.7-2.3-0.3c-1.9,0.9-3.7,1.9-5.4,3.1c-2.1,1.4-4,3-5.6,5.1c-0.7,0.9-1.2,1.8-1.6,2.9c-0.5,1.4-0.4,2.8,0.4,4.1
		c0.6,1,1.5,1.9,2.5,2.5C25.6,52.2,26.2,52.4,26.8,52.4z M40,48.1L40,48.1c-0.7,0-1.4,0-2.1,0c-1.3,0-2.6,0-3.9,0
		c-0.1,0-0.2,0-0.3,0.1c-0.1,0.2-0.2,0.3-0.3,0.5c-0.1,0.1-0.1,0.2,0,0.4c0.3,0.9,0.8,1.7,1.2,2.6c0.2,0.4,0.5,0.6,1,0.6
		c3.1,0,6.3,0,9.4,0c0.1,0,0.2,0,0.3-0.1c0.5-0.8,0.9-1.7,1.3-2.5c0.3-0.7,0.3-0.7-0.1-1.3c-0.1-0.1-0.2-0.2-0.3-0.2
		C44,48.1,42,48.1,40,48.1z M40,42.1c1,0,1.9,0,2.9,0c0.3,0,0.3,0,0.2-0.3c-0.6-1.4-1.1-2.8-1.6-4.2c0-0.1-0.1-0.2-0.2-0.2
		c-0.8,0-1.6,0-2.4,0c-0.2,0-0.2,0.1-0.3,0.2c-0.5,1.4-1,2.8-1.6,4.1C36.9,42,36.9,42,37.2,42C38.1,42.1,39,42.1,40,42.1z"/>
</g>
</svg>
