<?xml version="1.0" encoding="utf-8"?>
<!-- Generator: Adobe Illustrator 27.7.0, SVG Export Plug-In . SVG Version: 6.00 Build 0)  -->
<svg version="1.1" id="Camada_1" xmlns="http://www.w3.org/2000/svg" xmlns:xlink="http://www.w3.org/1999/xlink" x="0px" y="0px"
	 viewBox="0 0 80 116" style="enable-background:new 0 0 80 116;" xml:space="preserve">
<style type="text/css">
	.st0{fill:#C16817;}
	.st1{fill:#FFFFFF;}
</style>
<path class="st0" d="M40,116c0,0-52-54.7-37.4-89.7s60.2-35,74.8,0S40,116,40,116z"/>
<circle class="st1" cx="40" cy="39" r="30"/>
<g>
	<path class="st0" d="M30.1,36.8c0.7-0.4,1.4-0.8,2-1.2c5.4-3.1,10.8-6.1,16.2-9.2c0.3-0.2,0.6-0.3,1-0.5c0.1-0.1,0.2-0.1,0.3,0
		c0.4,0.3,0.6,0.7,0.6,1.2c0,0.6,0,1.2,0,1.8c0,0.1-0.1,0.2-0.2,0.3c-3,1.7-5.9,3.4-8.9,5c-1,0.6-2,1.1-2.9,1.6
		c-1.1,0.7-2.3,1.3-3.4,1.9C34.6,38,34.4,38,34.2,38c-1.2-0.4-2.5-0.7-3.7-1C30.4,36.9,30.2,36.9,30.1,36.8z"/>
	<path class="st0" d="M29.9,39.2c0-0.5,0-0.9,0-1.4c0-0.3,0-0.3,0.3-0.2c1,0.3,2,0.5,3,0.8c2.5,0.7,5.1,1.4,7.6,2.1
		c2.9,0.8,5.9,1.6,8.8,2.4c0.1,0,0.2,0,0.2,0.1s-0.1,0.1-0.2,0.1c-1,0.6-2,1.1-3,1.7c-0.5,0.3-1,0.4-1.6,0.2
		c-4.8-1.4-9.6-2.7-14.4-4c-0.3,0-0.6,0-0.7-0.2s0-0.5,0-0.7C29.8,39.8,29.8,39.5,29.9,39.2C29.8,39.2,29.8,39.2,29.9,39.2z"/>
	<path class="st0" d="M31.3,54.3c0.5-0.3,1-0.6,1.4-0.9c2.7-1.5,5.3-3,8-4.6c2.9-1.6,5.7-3.2,8.6-4.9c0.2-0.1,0.5-0.3,0.7-0.4
		c0.1-0.1,0.2,0,0.2,0.1c0,1.1,0,2.3,0,3.4c0,0.1-0.1,0.2-0.2,0.3c-1.3,0.7-2.6,1.5-3.9,2.2c-1.7,1-3.4,1.9-5.1,2.9
		c-1,0.6-2,1.1-3,1.7c-0.1,0.1-0.3,0.1-0.4,0.1c-2.1,0-4.1,0-6.2,0C31.4,54.3,31.3,54.3,31.3,54.3z"/>
	<path class="st0" d="M48.5,25.6c-1,0.6-2.1,1.2-3.1,1.8c-1.4,0.8-2.9,1.6-4.3,2.4c-2.3,1.3-4.6,2.6-6.9,3.9
		c-1.4,0.8-2.7,1.5-4.1,2.3c-0.1,0.1-0.2,0.1-0.2-0.1c0-1.1,0-2.2,0-3.3c0-0.2,0.1-0.3,0.2-0.3c1.8-1,3.5-2,5.3-3
		c1.8-1,3.6-2.1,5.4-3.1c0.3-0.2,0.7-0.4,1.1-0.6c0.1-0.1,0.3-0.1,0.4-0.1C44.3,25.5,46.3,25.5,48.5,25.6
		C48.4,25.5,48.4,25.5,48.5,25.6L48.5,25.6z"/>
	<path class="st0" d="M35.5,38.3c0.4-0.2,0.7-0.4,1.1-0.6c4.4-2.5,8.8-5,13.1-7.5c0.5-0.3,0.5-0.3,0.5,0.3c0,1,0,2,0,3
		c0,0.2,0,0.3-0.2,0.4c-2.8,1.6-5.7,3.2-8.5,4.8c-0.5,0.3-0.9,0.5-1.4,0.8c-0.1,0.1-0.2,0.1-0.3,0c-1.2-0.3-2.4-0.7-3.6-1
		C35.9,38.4,35.7,38.4,35.5,38.3z"/>
	<path class="st0" d="M40,24.9c-1.5,0-3,0-4.5,0c-0.2,0-0.3,0-0.3-0.3c0-1.1,0-2.1,0-3.2c0-1,0.7-1.7,1.7-1.7c2,0,4,0,6,0
		c1,0,1.7,0.7,1.7,1.7c0,1.1,0,2.2,0,3.2c0,0.2-0.1,0.2-0.2,0.2C43,24.9,41.5,24.9,40,24.9z"/>
	<path class="st0" d="M40,55c1.5,0,3,0,4.5,0c0.2,0,0.3,0,0.3,0.3c0,1,0,2.1,0,3.1c0,1.1-0.7,1.8-1.8,1.8c-1.9,0-3.9,0-5.8,0
		c-1.2,0-1.8-0.7-1.9-1.8c0-1,0-2,0-3.1c0-0.2,0-0.2,0.2-0.2C37,55,38.5,55,40,55z"/>
	<path class="st0" d="M45,45.7c-0.4,0.3-0.8,0.5-1.2,0.7c-0.9,0.5-1.7,1-2.6,1.5c-0.1,0.1-0.3,0.1-0.4,0C37.4,47,34,46,30.6,45.1
		c-0.1,0-0.2-0.1-0.3-0.1c-0.5-0.1-0.5-0.1-0.5-0.6c0-0.9,0-1.7,0-2.6c0-0.2,0-0.3,0.2-0.2c0.9,0.2,1.8,0.5,2.6,0.7
		c3.5,0.9,7.1,2,10.6,2.9C43.9,45.4,44.4,45.6,45,45.7z"/>
	<path class="st0" d="M39.3,54.3c0.3-0.2,0.5-0.3,0.8-0.5c3.1-1.8,6.2-3.5,9.4-5.3c0.2-0.1,0.4-0.2,0.6-0.3c0.2-0.1,0.2,0,0.2,0.1
		c0,1,0,2.1,0,3.1c0,0.4,0,0.8,0,1.2c0,1-0.7,1.7-1.7,1.7c-3,0-6,0-9,0C39.3,54.3,39.3,54.4,39.3,54.3z"/>
	<path class="st0" d="M40.5,25.6c-0.6,0.3-1.2,0.7-1.7,1c-2.9,1.6-5.7,3.2-8.6,4.9c-0.3,0.2-0.3,0.2-0.3-0.2c0-1.3,0-2.6,0-4
		c0-0.6,0.2-1.1,0.7-1.5c0.3-0.2,0.6-0.3,0.9-0.3c3,0,5.9,0,8.9,0C40.4,25.5,40.4,25.5,40.5,25.6L40.5,25.6z"/>
	<path class="st0" d="M40,48.5C40,48.6,39.9,48.6,40,48.5c-1.3,0.8-2.5,1.5-3.7,2.1c-0.2,0.1-0.3,0.1-0.5,0c-1.9-0.5-3.8-1-5.7-1.5
		c-0.3-0.1-0.3-0.2-0.3-0.4c0-0.9,0-1.9,0-2.8c0-0.2,0-0.3,0.3-0.2c2.3,0.6,4.6,1.3,6.9,1.9c1,0.3,1.9,0.5,2.9,0.8
		C39.9,48.4,40,48.4,40,48.5z"/>
	<path class="st0" d="M40.9,39.8c1-0.6,2-1.2,3.1-1.8c2-1.1,3.9-2.3,5.9-3.3c0.1,0,0.1-0.1,0.2-0.1c0.1-0.1,0.1,0,0.1,0.1
		c0,1.1,0,2.3,0,3.4c0,0.1-0.1,0.2-0.2,0.3c-1.4,0.8-2.9,1.6-4.3,2.4c-0.3,0.2-0.6,0.2-0.9,0.1C43.5,40.5,42.2,40.1,40.9,39.8
		L40.9,39.8z"/>
	<path class="st0" d="M35.2,51.3c-0.5,0.3-1.1,0.6-1.6,0.9c-1,0.6-2,1.1-3,1.7c-0.2,0.1-0.3,0.1-0.4-0.1c-0.3-0.3-0.4-0.7-0.4-1.1
		c0-0.9,0-1.9,0-2.8c0-0.2,0.2-0.1,0.2-0.1c0.4,0.1,0.8,0.2,1.3,0.4C32.6,50.5,33.9,50.9,35.2,51.3C35.2,51.2,35.2,51.2,35.2,51.3z"
		/>
	<path class="st0" d="M46.2,41.3c1-0.6,1.9-1.1,2.9-1.6c0.3-0.2,0.6-0.3,0.9-0.5c0.1-0.1,0.2-0.1,0.2,0.1c0,1,0,2,0,2.9
		c0,0.1,0,0.2-0.2,0.1C48.8,42,47.5,41.6,46.2,41.3C46.3,41.3,46.3,41.3,46.2,41.3z"/>
</g>
</svg>
