<?xml version="1.0" encoding="utf-8"?>
<!-- Generator: Adobe Illustrator 27.7.0, SVG Export Plug-In . SVG Version: 6.00 Build 0)  -->
<svg version="1.1" id="Camada_1" xmlns="http://www.w3.org/2000/svg" xmlns:xlink="http://www.w3.org/1999/xlink" x="0px" y="0px"
	 viewBox="0 0 80 116" style="enable-background:new 0 0 80 116;" xml:space="preserve">
<style type="text/css">
	.st0{fill:#662D91;}
	.st1{fill:#FFFFFF;}
</style>
<path class="st0" d="M40,116c0,0-52-54.7-37.4-89.7c14.6-35,60.2-35,74.8,0C92,61.3,40,116,40,116z"/>
<circle class="st1" cx="40" cy="39" r="30"/>
<g>
	<path class="st0" d="M40.7,36c-0.1-2.6,0.3-5.1,1-7.5c0-0.1,0.1-0.2,0.3-0.2c2.1,0.4,4,1.2,5.8,2.5c1.7,1.3,3,2.8,3.9,4.7
		c0,0.1,0.1,0.2,0,0.3c-1.4,1.1-2.9,2.1-4.6,2.8c-1.9,0.8-3.8,1.3-5.9,1.6c-0.4,0-0.3,0.1-0.4-0.3C40.8,38.4,40.7,37.2,40.7,36z"/>
	<path class="st0" d="M37.6,40.2c-0.6,0-1.1,0-1.7,0c-0.2,0-0.2-0.1-0.3-0.2c-0.9-2.6-1.6-5.2-1.8-7.9c-0.1-0.8,0-1.6,0-2.5
		c0-0.2,0.1-0.3,0.3-0.4c1.5-0.7,3.1-1.1,4.8-1.3c0.5,0,1,0,1.5,0c0.2,0,0.2,0.1,0.2,0.3c-0.3,0.9-0.5,1.9-0.7,2.9
		c-0.3,1.7-0.3,3.4-0.3,5.1c0,1.2,0.1,2.4,0.2,3.6c0,0.1,0,0.2-0.2,0.2C38.9,40.2,38.2,40.2,37.6,40.2z"/>
	<path class="st0" d="M42.3,54.5c-0.5,0.2-0.9,0.2-1.3,0.3c-3.3,0.3-6.3-0.6-9-2.5c-1.2-0.9-2.2-1.9-3.1-3.1c0,0-0.1-0.1-0.1-0.2
		c0,0,0.1,0,0.1,0c1.3,0.1,2.5-0.1,3.7-0.4c1.5-0.3,2.9-0.7,4.3-1.2c0.2-0.1,0.2,0.1,0.3,0.2c0.7,1.5,1.6,2.9,2.5,4.2
		c0.7,1,1.5,1.8,2.3,2.7C42.2,54.5,42.3,54.5,42.3,54.5z"/>
	<path class="st0" d="M43.8,46.1c2.8,0,5.6-0.3,8.3-1c0.2,0,0.4-0.2,0.5-0.1c0.1,0.1,0,0.3-0.1,0.5c-0.8,2.4-2.2,4.5-4.1,6.1
		c-0.8,0.7-1.7,1.3-2.7,1.8c-0.2,0.1-0.3,0.1-0.4-0.1c-1.5-2.2-2.6-4.5-3.4-7.1c0-0.2,0-0.2,0.1-0.2C42.7,46.1,43.3,46.1,43.8,46.1z
		"/>
	<path class="st0" d="M40.6,16.7c0,1.1-0.4,1.9-1.2,2.5c-0.1,0.1-0.1,0.2-0.1,0.3c0.2,1.5,0.4,3.1,0.6,4.6c0.1,0.6,0.2,1.3,0.3,1.9
		c0.1,0.7-0.4,1.4-1.1,1.5c-0.7,0.1-1.3-0.3-1.4-1c-0.2-0.8-0.2-1.6-0.4-2.5c-0.2-1.4-0.4-2.8-0.6-4.2c0-0.1-0.1-0.2-0.2-0.2
		c-1-0.4-1.7-1.1-1.9-2.2c-0.3-1.2,0.2-2.3,1.1-3c1-0.8,2.1-0.9,3.3-0.3C40.1,14.8,40.6,15.7,40.6,16.7z"/>
	<path class="st0" d="M32.7,40.3c-1,0-2,0-3-0.2c-1-0.1-2-0.3-3-0.6c-0.2-0.1-0.2-0.2-0.1-0.3c0.2-1,0.5-2,0.9-2.9
		c1.1-2.4,2.7-4.4,4.9-5.9c0.1,0,0.1-0.1,0.2-0.1c0.1,0,0,0.2,0,0.2c0,1.9,0.2,3.8,0.6,5.7c0.3,1.3,0.7,2.6,1.1,3.9
		c0.1,0.2,0,0.2-0.2,0.2C33.7,40.2,33.2,40.3,32.7,40.3z"/>
	<path class="st0" d="M55.4,23.2c0,1.6-1.2,2.8-2.8,2.8c-0.4,0-0.6,0.1-0.8,0.4c-0.7,0.9-1.3,1.7-2,2.6c-0.2,0.3-0.4,0.7-0.7,0.9
		c-0.7,0.7-1.9,0.4-2.2-0.5c-0.1-0.4,0-0.8,0.2-1.2c0.8-1,1.6-2.1,2.4-3.1c0.3-0.4,0.5-0.7,0.3-1.3c-0.4-1.5,0.5-3,2.1-3.4
		c1.6-0.4,3.1,0.6,3.4,2.1C55.4,22.8,55.4,23,55.4,23.2z"/>
	<path class="st0" d="M43.3,44.8c0.4-0.2,0.7-0.4,1.1-0.6c1.6-0.9,3-2,4.4-3.1c1.3-1.1,2.4-2.3,3.5-3.5c0-0.1,0.1-0.1,0.1-0.2
		c0.1-0.1,0.1-0.1,0.2,0c0.4,1.4,0.7,2.8,0.6,4.2c0,0.6-0.1,1.2-0.2,1.7c0,0.2-0.1,0.2-0.3,0.3c-1.3,0.4-2.6,0.7-4,0.9
		c-1.5,0.2-3,0.4-4.4,0.4C44,44.9,43.7,44.9,43.3,44.8C43.3,44.9,43.3,44.8,43.3,44.8z"/>
	<path class="st0" d="M29.6,47.8c-0.5,0-0.9,0-1.4-0.1c-0.2,0-0.3-0.1-0.4-0.3c-0.7-1.4-1.1-2.8-1.3-4.4c0-0.1-0.1-0.3,0-0.4
		c0.1-0.1,0.2,0.1,0.3,0.2c1.5,1,3.2,1.6,4.9,1.9c1.4,0.3,2.9,0.5,4.4,0.7c0.2,0,0.5,0.4,0.5,0.6c0,0.1-0.1,0.1-0.2,0.1
		c-1.5,0.4-3,0.9-4.5,1.3C31.2,47.7,30.4,47.8,29.6,47.8z"/>
	<path class="st0" d="M25.3,57.6c0-0.4,0.2-0.7,0.4-0.9c0.9-1.2,1.9-2.3,2.8-3.5c0.2-0.3,0.4-0.5,0.6-0.8c0.5-0.5,1.2-0.6,1.7-0.1
		c0.5,0.4,0.7,1.1,0.3,1.7c-0.3,0.5-0.7,0.9-1.1,1.4c-0.8,1-1.6,2-2.4,3c-0.4,0.5-1,0.7-1.5,0.5C25.6,58.7,25.3,58.2,25.3,57.6z"/>
	<path class="st0" d="M35.7,44.3c-2.6-0.3-5.2-0.8-7.6-2.1c-0.5-0.3-1-0.6-1.4-1c0,0-0.1-0.1-0.1-0.1c-0.1-0.1-0.2-0.2-0.1-0.3
		c0.1-0.2,0.2,0,0.3,0c2.2,0.6,4.5,0.8,6.7,0.8c0.4,0,0.8,0,1.2,0c0.1,0,0.2,0,0.3,0.2c0.3,0.8,0.6,1.6,0.9,2.3
		C35.9,44.2,36,44.3,35.7,44.3z"/>
	<path class="st0" d="M45.1,59.9c0,0.8-0.4,1.4-1.1,1.5c-0.6,0.1-1.3-0.3-1.4-0.9c-0.2-0.6-0.2-1.1-0.2-1.7
		c-0.1-0.7-0.2-1.5-0.3-2.2c-0.1-0.8,0.3-1.4,1.1-1.5c0.7-0.1,1.3,0.4,1.5,1.1c0.2,1,0.3,1.9,0.4,2.9C45,59.4,45.1,59.7,45.1,59.9z"
		/>
	<path class="st0" d="M49.7,38.6c-0.4,0.4-0.8,0.8-1.2,1.2c-2,1.8-4.3,3.3-6.7,4.5c-0.1,0.1-0.2,0.1-0.2-0.1
		c-0.2-0.9-0.3-1.8-0.4-2.8c0-0.2,0.1-0.2,0.2-0.2c0.6-0.1,1.2-0.1,1.8-0.2c1.9-0.3,3.6-0.9,5.3-1.8C48.8,39,49.3,38.7,49.7,38.6
		C49.7,38.5,49.7,38.5,49.7,38.6z"/>
	<path class="st0" d="M40.6,46.1c0.1,0,0.1,0.1,0.1,0.2c0.4,1.5,1,3,1.6,4.5c0.5,1.1,1.1,2.1,1.8,3.1c0.2,0.3,0.2,0.3-0.1,0.4
		c-0.3,0.1-0.4,0-0.6-0.1c-1.9-1.8-3.3-3.9-4.6-6.1c-0.1-0.3-0.3-0.5-0.4-0.8c-0.1-0.1-0.1-0.2,0.1-0.3
		C39.2,46.6,39.9,46.3,40.6,46.1C40.6,46.1,40.6,46.1,40.6,46.1z"/>
	<path class="st0" d="M40.1,44.8c-0.8-0.1-1.7-0.2-2.6-0.2c-0.2,0-0.3-0.1-0.3-0.2c-0.3-0.8-0.7-1.7-1-2.5c-0.1-0.1,0-0.2,0.1-0.2
		c1.1,0,2.2-0.1,3.3-0.2c0.2,0,0.3,0.1,0.3,0.2c0.1,1,0.3,2,0.5,3C40.4,44.8,40.4,44.8,40.1,44.8z"/>
</g>
</svg>
