<?xml version="1.0" encoding="utf-8"?>
<!-- Generator: Adobe Illustrator 27.7.0, SVG Export Plug-In . SVG Version: 6.00 Build 0)  -->
<svg version="1.1" id="Camada_1" xmlns="http://www.w3.org/2000/svg" xmlns:xlink="http://www.w3.org/1999/xlink" x="0px" y="0px"
	 viewBox="0 0 80 116" style="enable-background:new 0 0 80 116;" xml:space="preserve">
<style type="text/css">
	.st0{fill:#A32B62;}
	.st1{fill:#FFFFFF;}
</style>
<path class="st0" d="M40,116c0,0-52-54.7-37.4-89.7c14.6-35,60.2-35,74.8,0C92,61.3,40,116,40,116z"/>
<circle class="st1" cx="40" cy="39" r="30"/>
<g>
	<path class="st0" d="M51.9,35.2c0,3.5,0,7,0,10.5c0,2.2-1.3,4.1-3.7,4.8c-0.9,0.2-1.7,0.3-2.6,0.1c-2.2-0.4-3.6-2-4-4
		c-0.2-1.3-0.1-2.5,0.5-3.6c0.8-1.4,2-2.3,3.6-2.6c1-0.2,2-0.1,2.9,0.3c0.1,0.1,0.2,0.1,0.2-0.1c0-3.5,0-7,0-10.5
		c0-0.1,0-0.2-0.2-0.2c-1.1,0.2-2.1,0.3-3.2,0.5c-1.5,0.2-3.1,0.5-4.6,0.7c-1.1,0.2-2.3,0.3-3.4,0.5c-1,0.2-2.1,0.3-3.1,0.5
		c-0.3,0-0.3,0-0.3,0.3c0,5.3,0,10.7,0,16c0,0.5-0.1,0.9-0.2,1.4c-0.5,2.2-2.7,3.8-4.9,3.8c-1,0-2-0.2-2.9-0.7
		c-1.3-0.8-2.1-2-2.4-3.6c-0.2-1-0.1-1.9,0.3-2.8c0.7-1.7,1.9-2.7,3.7-3.1c1.1-0.2,2.2-0.1,3.2,0.3c0.2,0.1,0.2,0,0.2-0.1
		c0-2.5,0-4.9,0-7.4c0-2.8,0-5.5,0-8.3c0-0.2,0-0.4,0-0.7c0-0.1,0-0.2,0.2-0.2c1.5-0.2,3.1-0.4,4.6-0.7c1.8-0.3,3.6-0.5,5.4-0.8
		c1.3-0.2,2.7-0.4,4-0.6c1.5-0.2,3-0.4,4.6-0.6c0.6-0.1,1.1-0.2,1.7-0.3c0.1,0,0.2,0,0.2,0.1c0,0.2,0,0.3,0,0.5
		C51.9,28.2,51.9,31.7,51.9,35.2C51.9,35.2,51.9,35.2,51.9,35.2z"/>
</g>
</svg>
