<?xml version="1.0" encoding="utf-8"?>
<!-- Generator: Adobe Illustrator 27.7.0, SVG Export Plug-In . SVG Version: 6.00 Build 0)  -->
<svg version="1.1" id="Camada_1" xmlns="http://www.w3.org/2000/svg" xmlns:xlink="http://www.w3.org/1999/xlink" x="0px" y="0px"
	 viewBox="0 0 80 116" style="enable-background:new 0 0 80 116;" xml:space="preserve">
<style type="text/css">
	.st0{fill:#15688C;}
	.st1{fill:#FFFFFF;}
</style>
<path class="st0" d="M40,116c0,0-52-54.7-37.4-89.7s60.2-35,74.8,0S40,116,40,116z"/>
<circle class="st1" cx="40" cy="39" r="30"/>
<g>
	<path class="st0" d="M34.2,38.2c0-4.3,0.1-8.7,0.1-13c0-0.4,0.1-0.5,0.5-0.5c0.9,0,1.7,0,2.6,0c0.5,0,0.7,0.1,0.8,0.6
		c2.3,7.5,4.6,14.9,6.9,22.4c0.4,1.1,0.7,2.3,1.1,3.4c0.1,0.3,0.1,0.5-0.3,0.5c-3.8,0-7.7,0-11.5,0c-0.3,0-0.3-0.1-0.3-0.4
		C34.1,46.9,34.2,42.5,34.2,38.2L34.2,38.2z"/>
	<path class="st0" d="M17.3,33.8c0.1-0.3-0.2-0.7,0.1-0.9c0.1-0.1,0.6,0.2,0.9,0.3c0.4,0.2,0.8,0.2,1.2,0c0.8-0.3,1.6-0.7,2.4-1.2
		c0.3-0.2,0.5-0.2,0.8,0.1c0.3,0.4,0.7,0.6,1.1,0.9c0.8,0.5,1.6,0.6,2.5,0.2c0.6-0.3,1.3-0.7,1.8-1.1c0.2-0.2,0.4-0.2,0.6,0
		c0.4,0.4,0.9,0.7,1.3,1.1c0.8,0.5,1.6,0.6,2.4,0.1c0.4-0.2,0.4-0.1,0.4,0.3c0,0.4,0,0.8,0,1.3c0,0.3-0.1,0.5-0.4,0.6
		c-1.4,0.5-2.7,0-3.8-0.8c-0.3-0.2-0.4-0.2-0.7,0c-0.7,0.4-1.5,0.8-2.3,0.9c-1.2,0.2-2.2-0.3-3.1-0.9c-0.3-0.2-0.5-0.3-0.9-0.1
		c-0.5,0.3-1.1,0.6-1.7,0.7c-0.4,0.1-0.8,0.2-1.2,0.2C17.4,35.2,17.2,35.1,17.3,33.8z"/>
	<path class="st0" d="M32.8,45.3c0,0.6,0,1.3,0,1.9c0,0.3-0.2,0.3-0.4,0.4c-1.3,0.4-2.5,0.2-3.5-0.5c-0.5-0.4-0.9-0.4-1.5-0.1
		c-0.6,0.4-1.2,0.6-1.9,0.7c-1.2,0.2-2.2-0.3-3.1-1c-0.3-0.2-0.5-0.2-0.8,0c-0.8,0.4-1.6,0.8-2.5,1c-0.2,0-0.4,0-0.5,0
		c-1.2-0.1-1.3-0.2-1.3-1.4c0-0.3-0.2-0.8,0.1-1c0.2-0.2,0.6,0.2,0.9,0.3c0.4,0.1,0.7,0.1,1.1,0c0.9-0.3,1.7-0.8,2.4-1.3
		c0.3-0.2,0.5-0.2,0.7,0.1c1.9,1.7,2.8,1.7,4.8,0.4c0.3-0.2,0.6-0.7,1-0.6c0.3,0.1,0.6,0.5,0.9,0.7c0.7,0.6,1.4,1,2.3,0.9
		C32,45.7,32.3,45.5,32.8,45.3z"/>
	<path class="st0" d="M32.8,42.2c0,1.2,0,1.2-1.2,1.4c-1.1,0.2-2-0.3-2.9-0.9c-0.3-0.2-0.6-0.2-0.9,0c-1.1,0.6-2.2,1.1-3.6,0.8
		c-0.7-0.2-1.3-0.5-1.8-0.9c-0.3-0.2-0.5-0.2-0.8,0c-0.7,0.4-1.4,0.7-2.2,0.9c-0.6,0.1-1.2,0-1.8-0.1c-0.2-0.1-0.3-0.2-0.3-0.4
		c0-0.5,0-1,0-1.5c0-0.2,0.1-0.3,0.3-0.2c0.9,0.6,1.8,0.4,2.7-0.2c0.5-0.3,1.1-0.6,1.6-0.9c0.3-0.2,0.4-0.1,0.6,0.1
		c0.4,0.4,0.8,0.7,1.2,1c0.8,0.5,1.7,0.6,2.5,0.1c0.6-0.3,1.2-0.7,1.7-1.1c0.2-0.2,0.4-0.2,0.6,0c0.4,0.3,0.8,0.6,1.2,0.9
		c0.9,0.6,1.8,0.7,2.7,0.2c0.3-0.2,0.3-0.1,0.3,0.2C32.8,41.7,32.8,42,32.8,42.2z"/>
	<path class="st0" d="M48.3,50.5c0-0.2,0-0.5,0-0.7c0-0.3,0.1-0.3,0.3-0.2c0.9,0.6,1.8,0.4,2.7-0.1c0.5-0.3,1.1-0.6,1.6-0.9
		c0.3-0.2,0.4-0.2,0.7,0.1c0.4,0.4,0.9,0.7,1.4,1c0.7,0.4,1.4,0.4,2.2,0.1c0.7-0.3,1.3-0.7,1.9-1.1c0.3-0.2,0.5-0.2,0.7,0
		c0.4,0.4,0.9,0.8,1.5,1.1c0.7,0.4,1.4,0.4,2.1,0.1c0.5-0.2,0.5-0.2,0.5,0.3c0,0.4,0,0.8,0,1.1c0,0.4-0.1,0.5-0.5,0.6
		c-1.2,0.4-2.3,0.1-3.3-0.6c-0.5-0.4-0.9-0.4-1.5,0s-1.2,0.6-1.9,0.7c-1.2,0.2-2.1-0.3-3.1-0.9c-0.3-0.2-0.5-0.2-0.8,0
		c-0.5,0.3-1.1,0.6-1.7,0.8c-0.7,0.2-1.4,0.3-2.2,0.1c-0.3-0.1-0.5-0.2-0.4-0.6C48.3,51,48.3,50.8,48.3,50.5L48.3,50.5z"/>
	<path class="st0" d="M32.8,29.9c0,0.1,0,0.1,0,0.2c0,1-0.1,1-1.1,1.2c-1.2,0.2-2.1-0.2-3-0.9c-0.3-0.2-0.6-0.3-1-0.1
		c-1,0.6-2.1,1.1-3.3,0.8c-0.8-0.1-1.4-0.5-2-1c-0.3-0.2-0.4-0.2-0.7,0c-0.5,0.3-1.1,0.5-1.7,0.8c-0.7,0.3-1.5,0.3-2.2,0
		c-0.3-0.1-0.4-0.2-0.4-0.5c0-0.5,0-1,0-1.4c0-0.2,0.1-0.3,0.3-0.2c0.9,0.6,1.8,0.3,2.7-0.2c0.5-0.3,1-0.5,1.5-0.8
		c0.3-0.2,0.5-0.2,0.8,0.1c0.4,0.4,0.9,0.8,1.4,1c0.7,0.3,1.3,0.4,2,0.1s1.4-0.7,2-1.2c0.2-0.2,0.4-0.2,0.6,0c0.4,0.4,0.8,0.7,1.3,1
		c0.8,0.5,1.7,0.6,2.5,0.1c0.4-0.2,0.4-0.1,0.4,0.3C32.8,29.5,32.8,29.7,32.8,29.9L32.8,29.9z"/>
	<path class="st0" d="M17.3,38c0-0.3,0-0.7,0-1c0.3,0,0.6,0.2,0.9,0.3c0.4,0.1,0.8,0.1,1.2,0c0.9-0.3,1.7-0.8,2.4-1.3
		c0.3-0.2,0.5-0.2,0.6,0.1c0.1,0.1,0.1,0.2,0.2,0.2c1.8,1.5,2.8,1.6,5.2-0.1c0.4-0.3,0.5-0.3,0.8,0c0.4,0.4,0.8,0.7,1.2,0.9
		c0.8,0.5,1.6,0.5,2.5,0.1c0.3-0.2,0.4-0.1,0.4,0.2c0,0.4,0,0.9,0,1.3c0,0.3-0.1,0.5-0.5,0.6c-1.4,0.4-2.6,0-3.8-0.8
		c-0.2-0.2-0.4-0.2-0.7,0c-0.4,0.3-0.9,0.5-1.4,0.7c-1.5,0.7-2.9,0.1-4.1-0.7c-0.3-0.2-0.5-0.2-0.8,0c-0.5,0.3-1,0.5-1.5,0.7
		c-0.8,0.3-1.6,0.4-2.4,0.1c-0.3-0.1-0.5-0.2-0.4-0.6C17.3,38.5,17.3,38.2,17.3,38L17.3,38z"/>
	<path class="st0" d="M32.8,50.5c0,0.1,0,0.2,0,0.3c0,0.9,0,0.9-0.9,1.1c-1.2,0.2-2.3-0.2-3.3-0.9c-0.3-0.2-0.5-0.2-0.8,0
		c-0.4,0.2-0.9,0.4-1.4,0.6c-1.5,0.6-2.9,0.1-4.1-0.8c-0.3-0.2-0.4-0.2-0.7,0c-0.6,0.3-1.2,0.6-1.8,0.8c-0.8,0.3-1.5,0.2-2.3,0
		c-0.2-0.1-0.3-0.2-0.3-0.5c0-0.5,0-1,0-1.5c0-0.2,0.1-0.3,0.3-0.2c0.9,0.6,1.8,0.4,2.7-0.1c0.5-0.3,1.1-0.6,1.6-0.9
		c0.3-0.2,0.4-0.2,0.7,0.1c0.4,0.4,0.9,0.8,1.5,1.1c0.7,0.3,1.3,0.4,2,0.1c0.7-0.3,1.4-0.7,2-1.2c0.3-0.2,0.4-0.2,0.6,0
		c0.4,0.5,0.9,0.8,1.5,1.2c0.8,0.4,1.6,0.4,2.3,0c0.3-0.2,0.4-0.1,0.4,0.2C32.8,50,32.8,50.2,32.8,50.5L32.8,50.5z"/>
</g>
</svg>
