<?xml version="1.0" encoding="utf-8"?>
<!-- Generator: Adobe Illustrator 27.7.0, SVG Export Plug-In . SVG Version: 6.00 Build 0)  -->
<svg version="1.1" id="Camada_1" xmlns="http://www.w3.org/2000/svg" xmlns:xlink="http://www.w3.org/1999/xlink" x="0px" y="0px"
	 viewBox="0 0 80 116" style="enable-background:new 0 0 80 116;" xml:space="preserve">
<style type="text/css">
	.st0{fill:#533046;}
	.st1{fill:#FFFFFF;}
</style>
<path class="st0" d="M40,116c0,0-52-54.7-37.4-89.7s60.2-35,74.8,0S40,116,40,116z"/>
<circle class="st1" cx="40" cy="39" r="30"/>
<g>
	<path class="st0" d="M61.9,30.4c-0.1,0.1-0.3,0.1-0.4,0.2c-3.2,1.2-6.4,2.3-9.6,3.5c-4.1,1.5-8.2,3-12.3,4.5
		c-0.1,0.1-0.3,0.1-0.4,0c-3.5-1.3-7-2.5-10.5-3.8c-3.7-1.3-7.3-2.7-11-4c-0.2-0.1-0.5-0.2-0.7-0.3c0-0.1,0.1-0.1,0.1-0.1
		c3.8-1.2,7.6-2.4,11.5-3.6c3.4-1.1,6.8-2.1,10.2-3.2c0.2-0.1,0.4-0.1,0.6,0c4.1,1.2,8.2,2.5,12.2,3.7c2.7,0.8,5.5,1.6,8.2,2.5
		c0.6,0.2,1.2,0.4,1.8,0.5C61.7,30.3,61.8,30.3,61.9,30.4z"/>
	<path class="st0" d="M52.9,38.6c0,0.8,0.1,1.8,0,2.8s-0.6,1.9-1.4,2.5c-1,0.9-2.1,1.4-3.4,1.8c-1.7,0.5-3.5,0.8-5.3,1
		c-2.3,0.2-4.7,0.2-7,0s-4.5-0.6-6.6-1.5c-1-0.4-1.8-1-2.5-1.9c-0.4-0.6-0.7-1.3-0.7-2c0-1.8,0-3.6,0-5.5c0-0.2,0.1-0.2,0.2-0.1
		c3.5,1.2,7.1,2.4,10.6,3.6c0.8,0.3,1.6,0.5,2.4,0.8c0.2,0.1,0.3,0,0.5,0c1.4-0.5,2.9-1,4.3-1.5c2.8-0.9,5.5-1.9,8.3-2.9
		c0.6-0.2,0.6-0.2,0.6,0.4C52.9,36.8,52.9,37.6,52.9,38.6z"/>
	<path class="st0" d="M60.7,39.5c0,2.1,0,4.2,0,6.3c0,0.4-0.1,0.7-0.4,0.9c-0.4,0.2-0.8,0.2-1.2,0c-0.2-0.1-0.4-0.3-0.4-0.6
		c0-3.5,0-6.9,0-10.4c0-0.7,0-1.3,0-2c0-0.2,0.1-0.3,0.2-0.3c0.5-0.2,1-0.4,1.6-0.6c0.2-0.1,0.2,0,0.2,0.2
		C60.7,35.1,60.7,37.3,60.7,39.5z"/>
	<path class="st0" d="M59.7,55.3c-0.7,0-1.4,0-2.1,0c-0.1,0-0.2,0-0.2-0.2c0-1.9,0.3-3.8,0.9-5.6c0.1-0.3,0.3-0.7,0.5-1
		c0.5-0.7,1.2-0.7,1.7,0c0.3,0.4,0.5,0.8,0.6,1.2c0.5,1.5,0.7,3,0.8,4.6c0,0.1,0,0.3,0,0.4c0,0.6,0,0.6-0.6,0.6
		C60.9,55.3,60.3,55.3,59.7,55.3z"/>
</g>
</svg>
