<svg width="80" height="116" viewBox="0 0 80 116" fill="none" xmlns="http://www.w3.org/2000/svg">
<g clip-path="url(#clip0_145_247)">
<path d="M40 116C40 116 -12.0226 61.3171 2.58776 26.2787C17.1981 -8.75957 62.8018 -8.75957 77.4122 26.2787C92.0226 61.3171 40 116 40 116Z" fill="#1BABE3"/>
<path d="M40 69C56.5685 69 70 55.5685 70 39C70 22.4315 56.5685 9 40 9C23.4315 9 10 22.4315 10 39C10 55.5685 23.4315 69 40 69Z" fill="white"/>
<path d="M50.4384 46.6387C50.4384 46.6387 44.8299 45.111 44.0388 43.4488C43.679 42.688 44.0347 41.7136 44.3946 41.0432C44.5594 40.8091 44.72 40.5606 44.8752 40.297V40.2941C45.8118 38.7112 46.526 36.6217 46.5987 34.0408C46.7085 30.1605 43.8725 27.0088 40.5081 27C40.5054 27 40.5025 27 40.4998 27C40.4984 27 40.4957 27 40.4929 27C37.1285 27.0088 34.2926 30.1605 34.4024 34.0408C34.4752 36.6219 35.1894 38.7112 36.1246 40.2941L36.1261 40.297C36.2813 40.5604 36.442 40.8091 36.6067 41.0432C36.9665 41.7134 37.3235 42.6879 36.961 43.4488C36.1727 45.1109 30.5613 46.6387 30.5613 46.6387C29.482 47.0192 28.7032 48.1017 28.7032 49.3748V51.9997H52.2964V49.3748C52.2965 48.1017 51.5193 47.0192 50.4384 46.6387Z" fill="#1BABE3"/>
<path d="M61.6487 48.1017V48.099C61.5869 48.0783 57.5659 46.9899 56.9905 45.7814C56.7295 45.2283 56.9864 44.52 57.2501 44.0344C57.3694 43.8617 57.4863 43.6803 57.5988 43.49C58.2786 42.3343 58.7991 40.8184 58.8529 38.9424C58.9324 36.1186 56.8697 33.8272 54.4197 33.8213C54.4183 33.8213 54.4155 33.8213 54.4155 33.8213C54.4128 33.8213 54.41 33.8213 54.4087 33.8213C51.9602 33.8272 49.8949 36.1184 49.9771 38.9424C50.0293 40.8181 50.5497 42.3341 51.2295 43.49C51.3435 43.6802 51.4602 43.8618 51.5811 44.0344C51.5989 44.0666 51.6168 44.1017 51.6346 44.1369C53.6204 45.0119 54.9305 47.0661 54.9305 49.3752V52H63V50.092C63 49.1641 62.4356 48.3799 61.6487 48.1017Z" fill="#1BABE3"/>
<path d="M29.4203 44.0343C29.5396 43.8616 29.6579 43.6803 29.7719 43.49C30.4515 42.3342 30.9721 40.8184 31.0244 38.9424C31.1068 36.1186 29.0412 33.8272 26.5928 33.8213C26.5913 33.8213 26.5887 33.8213 26.5859 33.8213C26.5844 33.8213 26.5844 33.8213 26.5818 33.8213C24.1318 33.8272 22.0691 36.1184 22.1487 38.9424C22.2023 40.8181 22.7215 42.3342 23.4026 43.49C23.5151 43.6801 23.6319 43.8618 23.7527 44.0343C24.015 44.5201 24.2718 45.2282 24.0096 45.7813C23.4341 46.9899 19.4146 48.0783 19.3528 48.0989V48.1017C18.5659 48.3799 18 49.1641 18 50.0917V51.9997H26.0709V49.3748C26.0709 47.066 27.381 45.0116 29.3668 44.1365C29.3846 44.1017 29.4024 44.0666 29.4203 44.0343Z" fill="#1BABE3"/>
</g>
<defs>
<clipPath id="clip0_145_247">
<rect width="80" height="116" fill="white"/>
</clipPath>
</defs>
</svg>
