<?xml version="1.0" encoding="utf-8"?>
<!-- Generator: Adobe Illustrator 27.7.0, SVG Export Plug-In . SVG Version: 6.00 Build 0)  -->
<svg version="1.1" id="Camada_1" xmlns="http://www.w3.org/2000/svg" xmlns:xlink="http://www.w3.org/1999/xlink" x="0px" y="0px"
	 viewBox="0 0 80 116" style="enable-background:new 0 0 80 116;" xml:space="preserve">
<style type="text/css">
	.st0{fill:#0A4427;}
	.st1{fill:#FFFFFF;}
</style>
<path class="st0" d="M40,116c0,0-52-54.7-37.4-89.7c14.6-35,60.2-35,74.8,0C92,61.3,40,116,40,116z"/>
<circle class="st1" cx="40" cy="39" r="30"/>
<g>
	<path class="st0" d="M38.6,37.6c-0.3,0-0.5,0-0.8,0.1c-2.5,0.3-4.8,1-7.1,2.1c-2.2,1.1-4.1,2.5-5.6,4.4c-0.1,0.1-0.1,0.3-0.2,0.2
		c-0.1,0-0.1-0.2-0.1-0.3c-0.4-1.4-0.6-2.8-0.5-4.2c0.3-2.7,1.3-5,3.1-7.1c1-1.1,2.1-2.1,3.3-2.9c1.4-1,3-1.8,4.7-2.3
		c2.4-0.7,4.8-1,7.2-0.8c1.4,0.1,2.8,0.2,4.1,0.2c1.8,0,3.7-0.2,5.5-0.7c1.5-0.4,2.8-1.1,4-2c0.4-0.3,0.7-0.6,1-1c0,0,0-0.1,0.1-0.1
		c-0.1,0.4-0.2,0.9-0.3,1.3c-0.8,3.1-1.8,6.2-2.9,9.1c-1.1,3-2.5,5.9-4.1,8.6c-0.9,1.5-1.9,3-3.1,4.3c-1.3,1.5-2.8,2.7-4.4,3.8
		c-1.5,0.9-3,1.6-4.7,1.8c-3.3,0.5-6.3-0.4-8.9-2.4c-0.1-0.1-0.2-0.1-0.2,0c-0.6,0.6-1.1,1.4-1.5,2.2c-0.7,1.5-1.1,3.2-1.2,4.9
		c0,0.4,0,0.8,0,1.1c0,0.5-0.3,0.8-0.8,0.6c-0.4-0.1-0.8-0.3-1.2-0.4c-0.5-0.1-0.6-0.5-0.6-0.9c0-0.4,0.1-0.8,0.2-1.3
		c0.3-1.3,0.7-2.7,1.2-4c0.8-1.9,1.8-3.6,3-5.3c0.9-1.2,1.9-2.3,2.9-3.4c1.7-1.7,3.6-3.2,5.6-4.5c0.8-0.5,1.5-0.9,2.3-1.3
		C38.4,37.7,38.5,37.7,38.6,37.6z"/>
</g>
</svg>
