<svg width="80" height="116" viewBox="0 0 80 116" fill="none" xmlns="http://www.w3.org/2000/svg">
<path d="M40 116C40 116 -12.0226 61.3171 2.58776 26.2787C17.1981 -8.75958 62.8018 -8.75958 77.4122 26.2787C92.0226 61.3171 40 116 40 116Z" fill="#23B04B"/>
<circle cx="40" cy="39" r="30" fill="white"/>
<path d="M60 56.7898H20V59H60V56.7898Z" fill="#23B04B"/>
<path d="M48.0918 37.9026H42.3247V44.7643H48.0918V37.9026Z" fill="#23B04B"/>
<path d="M51.6678 55.6346V23.6169H28.3323V55.6346H30.5723V47.9141C30.5723 47.5945 30.8707 47.3366 31.2403 47.3366H38.3434C38.713 47.3366 39.0114 47.5945 39.0114 47.9141V55.6346H40.9932V47.9141C40.9932 47.5945 41.2915 47.3366 41.6612 47.3366H48.7642C49.1339 47.3366 49.4323 47.5945 49.4323 47.9141V55.6346H51.6723H51.6678ZM39.0114 45.3381C39.0114 45.6577 38.713 45.9157 38.3434 45.9157H31.2403C30.8707 45.9157 30.5723 45.6577 30.5723 45.3381V37.3212C30.5723 37.0016 30.8707 36.7436 31.2403 36.7436H38.3434C38.713 36.7436 39.0114 37.0016 39.0114 37.3212V45.3381ZM39.0114 34.749C39.0114 35.0686 38.713 35.3265 38.3434 35.3265H31.2403C30.8707 35.3265 30.5723 35.0686 30.5723 34.749V26.732C30.5723 26.4124 30.8707 26.1544 31.2403 26.1544H38.3434C38.713 26.1544 39.0114 26.4124 39.0114 26.732V34.749ZM40.9932 26.732C40.9932 26.4124 41.2915 26.1544 41.6612 26.1544H48.7642C49.1339 26.1544 49.4323 26.4124 49.4323 26.732V34.749C49.4323 35.0686 49.1339 35.3265 48.7642 35.3265H41.6612C41.2915 35.3265 40.9932 35.0686 40.9932 34.749V26.732ZM48.7642 45.9157H41.6612C41.2915 45.9157 40.9932 45.6577 40.9932 45.3381V37.3212C40.9932 37.0016 41.2915 36.7436 41.6612 36.7436H48.7642C49.1339 36.7436 49.4323 37.0016 49.4323 37.3212V45.3381C49.4323 45.6577 49.1339 45.9157 48.7642 45.9157Z" fill="#23B04B"/>
<path d="M48.0918 27.3096H42.3247V34.1713H48.0918V27.3096Z" fill="#23B04B"/>
<path d="M37.6754 37.9026H31.9083V44.7643H37.6754V37.9026Z" fill="#23B04B"/>
<path d="M37.6754 27.3096H31.9083V34.1713H37.6754V27.3096Z" fill="#23B04B"/>
<path d="M58.4057 31.6261H53.0038V55.6346H58.4057V31.6261Z" fill="#23B04B"/>
<path d="M48.0918 48.4917H42.3247V55.3535H48.0918V48.4917Z" fill="#23B04B"/>
<path d="M26.9962 31.6261H21.5942V55.6346H26.9962V31.6261Z" fill="#23B04B"/>
<path d="M46.1901 19H33.8098V22.4617H46.1901V19Z" fill="#23B04B"/>
<path d="M37.6754 48.4917H31.9083V55.3535H37.6754V48.4917Z" fill="#23B04B"/>
<path d="M56.6822 23.3627C56.6822 22.6003 55.3462 22.6003 55.3462 23.3627V30.4748H56.6822V23.3627Z" fill="#23B04B"/>
</svg>
