<?xml version="1.0" encoding="utf-8"?>
<!-- Generator: Adobe Illustrator 27.7.0, SVG Export Plug-In . SVG Version: 6.00 Build 0)  -->
<svg version="1.1" id="Camada_1" xmlns="http://www.w3.org/2000/svg" xmlns:xlink="http://www.w3.org/1999/xlink" x="0px" y="0px"
	 viewBox="0 0 80 116" style="enable-background:new 0 0 80 116;" xml:space="preserve">
<style type="text/css">
	.st0{fill:#994767;}
	.st1{fill:#FFFFFF;}
</style>
<path class="st0" d="M40,116c0,0-52-54.7-37.4-89.7s60.2-35,74.8,0S40,116,40,116z"/>
<circle class="st1" cx="40" cy="39" r="30"/>
<g>
	<path class="st0" d="M49.2,51.4c0.2,0.4,0.4,0.8,0.4,1.2c0.2,1.5-0.6,2.9-1.9,3.5c-2.1,1-4.3-0.4-4.7-2.5c-0.1-0.7,0-1.5,0.3-2.1
		c0.1-0.1,0.1-0.2-0.1-0.2c-2.4,0-4.9,0-7.3,0h-0.1c0,0.1,0,0.1,0,0.2c0.7,1.4,0.4,3.2-0.8,4.1c-1.8,1.4-4.2,0.9-5.2-1.2
		c-0.5-1-0.4-2,0.1-2.9c0.1-0.2,0.1-0.2-0.1-0.2c-1.1-0.2-1.7-1-1.9-2c-0.2-1.1,0.2-2,1.1-2.6c0.1-0.1,0.1-0.2,0.1-0.3
		c-0.9-3.3-1.8-6.5-2.7-9.8c-1-3.8-2.1-7.6-3.1-11.4c0-0.1-0.1-0.2-0.2-0.2c-1.8-0.2-3.5-0.4-5.3-0.6c-0.4,0-0.8-0.1-1.1-0.1
		c-0.5-0.1-0.7-0.5-0.7-0.9c0.1-0.4,0.5-0.8,1-0.7c1.8,0.2,3.6,0.4,5.4,0.6c0.5,0.1,1.1,0.1,1.6,0.2c0.4,0.1,0.7,0.3,0.8,0.7
		c0.4,1.6,0.9,3.1,1.3,4.7V29c0.1,0.5,0.1,0.5,0.6,0.5c9.8-0.1,19.7,0,29.5,0c0.5,0,0.5,0,0.3,0.5c-1,3.6-2,7.2-3,10.9
		c-0.6,2.4-1.3,4.7-1.9,7.1c0,0.1-0.1,0.2-0.3,0.2c-0.5,0-1.1,0-1.6,0c-6.4,0-12.8,0-19.2,0c-0.6,0-1,0.3-1,0.9
		c0,0.4,0.3,0.7,0.7,0.8c0.2,0,0.5,0,0.7,0c6.8,0,13.6,0,20.4,0c0.3,0,0.6,0,0.9,0.3c0.2,0.3,0.3,0.6,0.2,0.9
		c-0.1,0.3-0.4,0.5-0.8,0.5c-0.6,0-1.2,0-1.8,0C49.4,51.4,49.3,51.4,49.2,51.4z M44,36.1c-0.9,0-1.8,0-2.6,0c-0.2,0-0.2,0.1-0.2,0.2
		c0,1.3,0,2.6,0,3.8c0,0.1,0,0.2,0.2,0.2c1.6,0,3.1,0,4.7,0c0.1,0,0.2-0.1,0.2-0.2c0.1-0.8,0.2-1.5,0.3-2.2c0.1-0.6,0.2-1.1,0.2-1.7
		c0-0.1,0-0.2-0.1-0.2C45.8,36.1,44.9,36.1,44,36.1z M36.8,36.1c-0.9,0-1.7,0-2.6,0c-0.1,0-0.2,0-0.2,0.2c0.2,1.3,0.4,2.6,0.6,3.9
		c0,0.1,0.1,0.2,0.2,0.2c1.5,0,3,0,4.5,0c0.1,0,0.2,0,0.2-0.2c0-1.3,0-2.6,0-3.9c0-0.1,0-0.2-0.2-0.2C38.5,36.1,37.6,36.1,36.8,36.1
		z M44.4,31c-1,0-1.9,0-2.9,0c-0.2,0-0.3,0-0.3,0.3c0,1,0,2,0,2.9c0,0.1,0,0.2,0.2,0.2c1.9,0,3.7,0,5.6,0c0.1,0,0.2,0,0.2-0.2
		c0.2-1,0.3-2,0.4-3c0-0.2,0-0.2-0.2-0.2C46.4,31,45.4,31,44.4,31z M36.4,31c-0.5,0-0.9,0-1.4,0s-1,0-1.5,0c-0.1,0-0.2,0-0.2,0.2
		c0.2,1,0.3,2,0.5,3c0,0.2,0.1,0.2,0.2,0.2c1.8,0,3.6,0,5.3,0c0.1,0,0.2,0,0.2-0.2c0-1,0-2,0-3c0-0.2-0.1-0.2-0.2-0.2
		C38.3,31,37.4,31,36.4,31z M43.6,42L43.6,42c-0.7,0-1.4,0-2.1,0c-0.2,0-0.3,0.1-0.3,0.3c0,1.3,0,2.5,0,3.8c0,0.1,0,0.2,0.2,0.2
		c1.3,0,2.5,0,3.8,0c0.1,0,0.2-0.1,0.2-0.2c0-0.3,0.1-0.6,0.1-0.9c0.1-1,0.3-2,0.5-2.9c0-0.2,0-0.2-0.2-0.2C45,42,44.3,42,43.6,42z
		 M30.1,36.1L30.1,36.1c-0.7,0-1.4,0-2.1,0c-0.2,0-0.2,0.1-0.1,0.2c0.4,1.3,0.7,2.6,1.1,3.9c0,0.1,0.1,0.1,0.2,0.1
		c1.2,0,2.4,0,3.7,0c0.1,0,0.2,0,0.1-0.2c-0.1-0.5-0.1-0.9-0.2-1.4c-0.1-0.9-0.3-1.7-0.4-2.6c0-0.1-0.1-0.2-0.2-0.2
		C31.5,36.1,30.8,36.1,30.1,36.1z M37.2,42L37.2,42c-0.7,0-1.4,0-2.1,0c-0.2,0-0.2,0.1-0.2,0.2c0.2,1.3,0.4,2.5,0.6,3.8
		c0,0.2,0.1,0.2,0.3,0.2c1.2,0,2.3,0,3.5,0c0.2,0,0.2-0.1,0.2-0.2c0-1.3,0-2.5,0-3.8c0-0.2-0.1-0.2-0.2-0.2C38.6,42,37.9,42,37.2,42
		z M50.7,36.1L50.7,36.1c-0.6,0-1.3,0-1.9,0c-0.2,0-0.3,0.1-0.3,0.3c-0.1,0.6-0.2,1.1-0.2,1.7c-0.1,0.7-0.2,1.5-0.3,2.2
		c0,0.1,0,0.2,0.1,0.2c1.2,0,2.4,0,3.5,0c0.1,0,0.1,0,0.2-0.1c0.2-0.7,0.4-1.3,0.5-2c0.2-0.6,0.4-1.3,0.5-1.9c0.1-0.2,0-0.2-0.2-0.2
		C52,36.1,51.3,36.1,50.7,36.1z M29,31L29,31c-0.8,0-1.6,0-2.3,0c-0.2,0-0.2,0-0.2,0.2c0.3,1,0.6,2,0.8,3c0,0.2,0.1,0.2,0.2,0.2
		c1.2,0,2.4,0,3.6,0c0.2,0,0.5,0,0.7,0c0.1,0,0.2,0,0.2-0.2c-0.2-1-0.3-2-0.5-3c0-0.2-0.1-0.2-0.2-0.2C30.6,31,29.8,31,29,31z
		 M51.8,31L51.8,31c-0.8,0-1.5,0-2.3,0c-0.2,0-0.2,0.1-0.3,0.2c-0.1,1-0.3,2-0.4,3c0,0.2,0,0.2,0.2,0.2c1.4,0,2.8,0,4.1,0
		c0.1,0,0.2,0,0.2-0.2c0.3-1,0.5-2,0.8-3c0.1-0.2,0-0.2-0.2-0.2C53.3,31,52.5,31,51.8,31z M31.3,42L31.3,42c-0.6,0-1.1,0-1.7,0
		c-0.2,0-0.2,0-0.2,0.2c0.4,1.3,0.7,2.6,1.1,3.9c0,0.1,0.1,0.1,0.2,0.1c1,0,2,0,2.9,0c0.1,0,0.2,0,0.1-0.2c-0.1-0.4-0.1-0.8-0.2-1.2
		c-0.1-0.9-0.3-1.7-0.4-2.6c0-0.2-0.1-0.2-0.3-0.2C32.4,42,31.9,42,31.3,42z M49.4,42L49.4,42c-0.5,0-1.1,0-1.6,0
		c-0.1,0-0.2,0-0.2,0.2c-0.2,1.3-0.4,2.6-0.6,3.9c0,0.1,0,0.2,0.2,0.2c0.9,0,1.8,0,2.7,0c0.1,0,0.2-0.1,0.2-0.2
		c0.3-1.3,0.7-2.6,1.1-3.9c0-0.2,0-0.2-0.2-0.2C50.5,42,50,42,49.4,42z M48,53.1c0-1-0.7-1.7-1.7-1.7s-1.7,0.7-1.7,1.7
		c0,0.9,0.8,1.7,1.7,1.7C47.3,54.7,48,54,48,53.1z M31,53.1c0,0.9,0.8,1.7,1.7,1.7s1.7-0.8,1.7-1.7c0-1-0.8-1.7-1.7-1.7
		C31.7,51.4,31,52.1,31,53.1z"/>
	<path class="st0" d="M45.5,53c0-0.4,0.4-0.8,0.8-0.8c0.5,0,0.8,0.4,0.8,0.8c0,0.5-0.4,0.8-0.8,0.8C45.8,53.9,45.5,53.5,45.5,53z"/>
	<path class="st0" d="M32.7,53.9c-0.5,0-0.8-0.4-0.8-0.8c0-0.4,0.4-0.8,0.8-0.8c0.4,0,0.8,0.4,0.8,0.8S33.2,53.9,32.7,53.9z"/>
</g>
</svg>
