<?xml version="1.0" encoding="utf-8"?>
<!-- Generator: Adobe Illustrator 27.7.0, SVG Export Plug-In . SVG Version: 6.00 Build 0)  -->
<svg version="1.1" id="Camada_1" xmlns="http://www.w3.org/2000/svg" xmlns:xlink="http://www.w3.org/1999/xlink" x="0px" y="0px"
	 viewBox="0 0 80 116" style="enable-background:new 0 0 80 116;" xml:space="preserve">
<style type="text/css">
	.st0{fill:#2B600D;}
	.st1{fill:#FFFFFF;}
</style>
<path class="st0" d="M40,116c0,0-52-54.7-37.4-89.7s60.2-35,74.8,0S40,116,40,116z"/>
<circle class="st1" cx="40" cy="39" r="30"/>
<g>
	<path class="st0" d="M21.4,44.6c0-0.8,0-1.6,0-2.4c0-0.6,0.2-1.1,0.7-1.5c0.3-0.2,0.7-0.3,1.1-0.3c0.6,0,1.2,0,1.8,0
		c0.2,0,0.3-0.1,0.3-0.2c0.4-1.3,1-2.6,1.7-3.7c0.3-0.5,0.4-1.1,0.2-1.7c-0.2-0.7-0.6-1.2-1.1-1.7c-0.2-0.2-0.3-0.3-0.5-0.5
		c-0.2-0.3-0.2-0.6,0.1-0.8c0.3-0.2,0.7-0.3,1-0.3c1.3-0.2,2.5,0.2,3.5,1c0.1,0.1,0.2,0.1,0.4,0c1.6-1.3,3.4-2.1,5.4-2.7
		c1.7-0.5,3.4-0.6,5.1-0.5c4.2,0.4,7.7,2.1,10.5,5.3c1.8,2.1,2.9,4.5,3.5,7.2c0.2,1,0.3,2,0.3,3c0,0.5,0,1,0.1,1.5
		c0.1,0.4,0.5,0.7,0.9,0.7c0.5,0,0.8-0.2,0.9-0.7c0.1-0.2-0.1-0.4-0.2-0.5c-0.2-0.1-0.3,0-0.4,0.1L56.6,46c-0.1,0.1-0.2,0.2-0.4,0.1
		c-0.1,0-0.2-0.1-0.2-0.3c0.1-0.4,0.3-0.7,0.7-0.8c0.9-0.3,1.6,0.3,1.8,1.2c0.2,1.4-0.9,2.8-2.4,2.8c-0.4,0-0.8,0-1.2-0.2
		c-0.1,0-0.2,0-0.3,0.1c-0.6,2.2-1.8,4.1-3.3,5.8c-0.3,0.3-0.6,0.7-1,0.9c-0.1,0.1-0.2,0.2-0.2,0.4c0.2,1.1,0.3,2.2,0.5,3.4
		c0,0.3,0.1,0.6,0.1,0.9c0,0.5-0.3,1-0.8,1.2c-0.6,0.2-1.3,0.2-1.9,0.3c-0.3,0.1-0.6,0.1-1,0.1c-0.7,0-1.1-0.3-1.2-1
		c-0.1-0.5-0.1-1.1-0.2-1.6c-0.1-0.6-0.1-0.6-0.6-0.4c-2.1,0.7-4.2,1-6.4,0.8c-1.4-0.1-2.7-0.4-4-0.9c-0.2-0.1-0.3,0-0.3,0.2
		c-0.1,0.6-0.1,1.3-0.2,1.9c-0.1,0.7-0.6,1.1-1.3,1c-0.9-0.1-1.8-0.2-2.6-0.3c-0.7-0.1-1.1-0.7-1-1.4c0.2-1.4,0.4-2.8,0.6-4.1
		c0-0.2-0.1-0.3-0.2-0.4c-1.2-1.1-2.1-2.3-3-3.7c-0.6-0.9-0.9-2-1.2-3c-0.1-0.2-0.2-0.3-0.4-0.3c-0.6,0-1.2,0-1.8,0
		c-0.9,0-1.6-0.6-1.7-1.5c-0.1-0.4,0-0.9,0-1.3C21.4,45.5,21.4,45,21.4,44.6z M40,31.2c-1,0-2,0.1-2.9,0.3c-1,0.2-1.9,0.5-2.8,0.9
		c-0.5,0.2-0.6,0.7-0.5,1.1c0.2,0.4,0.6,0.6,1.1,0.4c0.1,0,0.2-0.1,0.3-0.1c2.9-1.2,5.9-1.4,8.9-0.2c0.4,0.1,0.7,0.3,1.1,0.4
		c0.5,0.2,1-0.2,1-0.8c0-0.5-0.3-0.7-0.7-0.8C43.8,31.5,41.9,31.1,40,31.2z M30.1,42.9c0.7,0,1.2-0.5,1.2-1.2s-0.5-1.2-1.2-1.2
		s-1.2,0.6-1.3,1.3C28.9,42.4,29.4,42.9,30.1,42.9z"/>
	<path class="st0" d="M40,27.3c-3.2,0-6.3-2.5-6.4-6.4c-0.1-3.4,2.9-6.4,6.4-6.3c3.7,0.1,6.4,2.9,6.4,6.4
		C46.4,24.3,43.8,27.2,40,27.3z M40.4,19.6c0-0.2,0-0.4,0-0.6s0.1-0.3,0.3-0.2c0.2,0.1,0.5,0.2,0.7,0.3c0.3,0.1,0.5,0,0.6-0.2
		c0.2-0.2,0.1-0.4-0.1-0.6c-0.2-0.2-0.4-0.3-0.6-0.3c-0.4-0.1-0.8-0.3-1-0.7c-0.1-0.3-0.3-0.2-0.4,0c-0.1,0.3-0.4,0.5-0.7,0.6
		c-0.8,0.2-1.2,0.7-1.3,1.5c0,0.7,0.3,1.2,1.1,1.6c0.3,0.1,0.7,0.1,0.8,0.4s0,0.6,0,0.9c0,0.1,0,0.1,0,0.2c0,0.4-0.1,0.4-0.4,0.2
		c-0.3-0.2-0.6-0.3-0.9-0.5c-0.2-0.1-0.3-0.1-0.5,0c-0.3,0.2-0.4,0.6,0,0.8c0.4,0.3,0.8,0.5,1.3,0.6c0.3,0,0.5,0.1,0.5,0.5
		c0,0.2,0.1,0.3,0.3,0.3s0.4-0.1,0.4-0.4s0.2-0.4,0.4-0.4c0.6-0.1,1.1-0.5,1.3-1.1c0.3-0.9-0.1-1.6-1.1-2
		C40.4,20.3,40.4,20.3,40.4,19.6z"/>
	<path class="st0" d="M39.8,19.5c0,0.1,0,0.1,0,0.2c0,0.2,0.1,0.4-0.1,0.5c-0.2,0.1-0.4-0.1-0.5-0.2c-0.2-0.2-0.3-0.4-0.2-0.7
		c0.1-0.3,0.3-0.4,0.6-0.5c0.1,0,0.2,0,0.2,0.2C39.8,19.1,39.8,19.3,39.8,19.5L39.8,19.5z"/>
	<path class="st0" d="M40.4,22.2C40.4,22.2,40.4,22.1,40.4,22.2c0-0.3-0.1-0.6,0.1-0.7c0.2-0.1,0.5,0.2,0.6,0.4
		c0.1,0.2,0.1,0.5-0.1,0.7l-0.1,0.1c-0.1,0.1-0.3,0.3-0.5,0.2c-0.2-0.1-0.1-0.3-0.1-0.4C40.4,22.4,40.4,22.3,40.4,22.2L40.4,22.2z"
		/>
</g>
</svg>
