<?xml version="1.0" encoding="utf-8"?>
<!-- Generator: Adobe Illustrator 27.7.0, SVG Export Plug-In . SVG Version: 6.00 Build 0)  -->
<svg version="1.1" id="Camada_1" xmlns="http://www.w3.org/2000/svg" xmlns:xlink="http://www.w3.org/1999/xlink" x="0px" y="0px"
	 viewBox="0 0 80 116" style="enable-background:new 0 0 80 116;" xml:space="preserve">
<style type="text/css">
	.st0{fill:#2B600D;}
	.st1{fill:#FFFFFF;}
	.st2{fill:none;}
</style>
<path class="st0" d="M40,116c0,0-52-54.7-37.4-89.7s60.2-35,74.8,0S40,116,40,116z"/>
<circle class="st1" cx="40" cy="39" r="30"/>
<rect x="19" y="13" class="st2" width="42" height="49"/>
<g>
	<path class="st0" d="M40.7,44.9c1.1,0,2.3,0.1,3.4,0.1c0.8,0,1.4-0.2,2.1-0.6c0.7-0.5,1.4-0.9,2.2-1.4c1.7-1,3.5-1.3,5.4-0.9
		c3,0.5,5.8,1.3,8.7,2.2c0.2,0.1,0.4,0.2,0.5,0.4c0.8,1.3,1.3,2.6,1.4,4.1c0.2,2.1-0.4,3.9-1.4,5.7c-0.1,0.2-0.3,0.3-0.5,0.3
		c-2.1-0.2-4.1-0.1-6.1,0.2c-1.1,0.2-2.2,0.5-3.2,1c-1.8,0.9-3.6,1.4-5.6,1.7c-3,0.4-6.1,0.5-9.1,0.2c-3.4-0.3-6.7-1.2-9.8-2.7
		c-2.7-1.3-5-3-7.2-5c-1.5-1.4-2.9-3-4.2-4.7c-0.6-0.8-0.7-1.8-0.4-2.8c0.3-0.8,0.9-1.1,1.7-0.9c0.9,0.2,1.6,0.7,2.4,1.3
		c0.9,0.7,1.7,1.6,2.5,2.4c2.4,2.1,4.9,4,7.5,5.7c1.8,1.1,3.7,1.7,5.8,1.9c2.6,0.3,5.3,0.2,7.9,0c0.2,0,0.3-0.1,0.3-0.3
		c-0.1-0.7,0-0.5-0.6-0.5c-2.4,0.1-4.9,0.2-7.3,0c-1.5-0.2-3.1-0.5-4.5-1.2c-0.9-0.5-1.5-1.2-1.8-2.2c-0.3-1.2,0.1-2.1,1.1-2.7
		c0.8-0.5,1.7-0.7,2.6-0.9C36.2,45,38.9,44.9,40.7,44.9z"/>
	<path class="st0" d="M30.2,49.6c-0.9-0.6-1.7-1.2-2.5-1.8c-1.5-1.1-2.9-2.3-4.2-3.5c-0.7-0.7-1.4-1.4-2.2-2
		c-0.4-0.3-0.8-0.6-1.3-0.8c-0.1-0.1-0.2-0.2-0.2-0.3c0-0.4,0-0.8,0.1-1.2c0.1-0.6,0.7-0.9,1.4-0.7c0.4,0.1,0.7,0.3,1,0.6
		c0.9,0.9,1.8,1.7,2.7,2.6c1.5,1.3,2.9,2.7,4.5,3.9c0.2,0.2,0.5,0.3,0.8,0.5c0.1,0.1,0.2,0.1,0.1,0.2c-0.4,0.8-0.3,1.6-0.1,2.5
		C30.2,49.4,30.2,49.5,30.2,49.6z"/>
	<path class="st0" d="M23.9,39.6c0-0.2,0-0.4,0-0.5c0.1-0.5,0.6-0.8,1.1-0.6c0.3,0.1,0.6,0.3,0.8,0.5c1.5,1.4,3.1,2.8,4.6,4.1
		c0.7,0.6,1.3,1.1,2,1.6c0.1,0.1,0.2,0.1,0.2,0.2c0,0.2-0.2,0.1-0.3,0.1c-0.5,0.2-1.1,0.5-1.5,0.9c-0.1,0.1-0.2,0.1-0.4,0
		c-1-0.6-1.8-1.4-2.7-2.1c-1.3-1.1-2.5-2.2-3.7-3.4C24,40.2,23.9,39.9,23.9,39.6z"/>
	<path class="st0" d="M35.5,44.2c-0.4,0.1-0.9,0.2-1.3,0.3c-0.3,0.1-0.5-0.1-0.7-0.3c-1.4-1.1-2.8-2.2-4.2-3.3
		c-0.5-0.4-0.9-0.9-1.4-1.3c-0.1-0.1-0.3-0.2-0.2-0.4c0.1-0.2,0.3-0.3,0.6-0.3c0.4,0,0.8,0.1,1.1,0.3c0.6,0.3,1.1,0.7,1.7,1.1
		c1.5,1.2,2.9,2.4,4.3,3.7C35.4,44.1,35.5,44.1,35.5,44.2z"/>
	<g>
		<path class="st0" d="M38.4,26.8c0,0.3,0.1,0.6,0.3,0.8c0.2,0.2,0.5,0.4,0.9,0.5v-2.6c-0.4,0-0.6,0.2-0.8,0.4
			C38.5,26.1,38.4,26.4,38.4,26.8z"/>
		<path class="st0" d="M40.5,30.1v2.6c0.4-0.1,0.7-0.2,0.9-0.5c0.2-0.2,0.3-0.5,0.3-0.9c0-0.3-0.1-0.6-0.3-0.8
			C41.2,30.4,40.9,30.3,40.5,30.1z"/>
		<path class="st0" d="M40,18.9c-5.6,0.1-10.3,4.4-10.4,10.3c-0.1,5.5,4.2,10.3,10.1,10.4c5.8,0.1,10.4-4.2,10.5-10.2
			C50.4,23.9,45.9,19,40,18.9z M43.5,32.8c-0.3,0.4-0.6,0.8-1.2,1.1c-0.5,0.3-1.1,0.5-1.8,0.5v1.2h-0.9v-1.2c-1-0.1-1.8-0.4-2.4-0.9
			c-0.6-0.5-0.9-1.2-0.9-2.1h2.2c0.1,0.7,0.4,1.1,1.1,1.3v-2.8c-0.7-0.2-1.3-0.4-1.7-0.5c-0.4-0.2-0.8-0.5-1.1-0.9
			c-0.3-0.4-0.5-0.9-0.5-1.6c0-0.9,0.3-1.6,0.9-2.1c0.6-0.5,1.4-0.9,2.4-0.9v-1.2h0.9v1.2c0.9,0.1,1.7,0.4,2.3,0.9
			c0.6,0.5,0.9,1.2,1,2h-2.2c0-0.3-0.1-0.5-0.3-0.7c-0.2-0.2-0.4-0.4-0.7-0.5v2.8c0.7,0.2,1.3,0.4,1.8,0.5c0.4,0.2,0.8,0.5,1.1,0.8
			c0.3,0.4,0.5,0.9,0.5,1.6C43.9,31.8,43.7,32.3,43.5,32.8z"/>
	</g>
</g>
</svg>
