<svg width="80" height="116" viewBox="0 0 80 116" fill="none" xmlns="http://www.w3.org/2000/svg">
<path d="M40 116C40 116 -12.0226 61.3171 2.58776 26.2787C17.1981 -8.75958 62.8018 -8.75958 77.4122 26.2787C92.0226 61.3171 40 116 40 116Z" fill="#DD4C4C"/>
<circle cx="40" cy="39" r="30" fill="white"/>
<path d="M43.6667 34.3333C43.8877 34.3333 44.0996 34.2631 44.2559 34.1381C44.4122 34.013 44.5 33.8435 44.5 33.6667V32.3333C44.5 32.1565 44.4122 31.9869 44.2559 31.8619C44.0996 31.7369 43.8877 31.6667 43.6667 31.6667C43.4457 31.6667 43.2337 31.7369 43.0774 31.8619C42.9211 31.9869 42.8333 32.1565 42.8333 32.3333V33.6667C42.8333 33.8435 42.9211 34.013 43.0774 34.1381C43.2337 34.2631 43.4457 34.3333 43.6667 34.3333Z" fill="#DD4C4C"/>
<path d="M35.3333 34.3333C35.5543 34.3333 35.7663 34.2631 35.9226 34.1381C36.0789 34.013 36.1667 33.8435 36.1667 33.6667V32.3333C36.1667 32.1565 36.0789 31.9869 35.9226 31.8619C35.7663 31.7369 35.5543 31.6667 35.3333 31.6667C35.1123 31.6667 34.9004 31.7369 34.7441 31.8619C34.5878 31.9869 34.5 32.1565 34.5 32.3333V33.6667C34.5 33.8435 34.5878 34.013 34.7441 34.1381C34.9004 34.2631 35.1123 34.3333 35.3333 34.3333Z" fill="#DD4C4C"/>
<path d="M49.5 47H45.2667L44.9417 43.9133C46.7104 43.1654 48.2085 42.0657 49.2917 40.72H49.3C49.4098 40.6667 49.5014 40.5926 49.5668 40.5042C49.6322 40.4159 49.6694 40.3159 49.675 40.2133C50.6554 38.8265 51.1694 37.2599 51.1667 35.6667H52C52.6624 35.6651 53.2972 35.4539 53.7656 35.0791C54.234 34.7044 54.498 34.1966 54.5 33.6667V31.6667C54.4989 31.387 54.424 31.1106 54.2805 30.8556C54.1369 30.6006 53.9277 30.3727 53.6667 30.1867V27.6667C53.664 25.3688 52.5218 23.1656 50.4907 21.5407C48.4597 19.9159 45.7057 19.0021 42.8333 19H36.1667C33.2943 19.0021 30.5403 19.9159 28.5093 21.5407C26.4782 23.1656 25.336 25.3688 25.3333 27.6667V30.1867C25.0723 30.3727 24.8631 30.6006 24.7195 30.8556C24.576 31.1106 24.5011 31.387 24.5 31.6667V33.6667C24.502 34.1966 24.766 34.7044 25.2344 35.0791C25.7028 35.4539 26.3376 35.6651 27 35.6667H27.8333C27.8345 37.2646 28.3512 38.8353 29.3333 40.2267C29.3447 40.3256 29.3835 40.4212 29.4469 40.5065C29.5103 40.5919 29.5968 40.6648 29.7 40.72C30.7884 42.0645 32.2888 43.1638 34.0583 43.9133L33.7333 47H29.5C27.5118 47.0025 25.606 47.6354 24.2001 48.7601C22.7943 49.8848 22.0031 51.4095 22 53V58.3333C22 58.5101 22.0878 58.6797 22.2441 58.8047C22.4004 58.9298 22.6123 59 22.8333 59H56.1667C56.3877 59 56.5996 58.9298 56.7559 58.8047C56.9122 58.6797 57 58.5101 57 58.3333V53C56.9969 51.4095 56.2057 49.8848 54.7999 48.7601C53.394 47.6354 51.4882 47.0025 49.5 47ZM35.6667 44.4733C38.1468 45.1756 40.8532 45.1756 43.3333 44.4733L43.6333 47.4133L39.5 50.7267L35.3667 47.4133L35.6667 44.4733ZM52.8333 31.6667V33.6667C52.8333 33.8435 52.7455 34.013 52.5893 34.1381C52.433 34.2631 52.221 34.3333 52 34.3333H51.1667V31H52C52.221 31 52.433 31.0702 52.5893 31.1953C52.7455 31.3203 52.8333 31.4899 52.8333 31.6667ZM27.8333 34.3333H27C26.779 34.3333 26.567 34.2631 26.4107 34.1381C26.2545 34.013 26.1667 33.8435 26.1667 33.6667V31.6667C26.1667 31.4899 26.2545 31.3203 26.4107 31.1953C26.567 31.0702 26.779 31 27 31H27.8333V34.3333ZM30.25 38.7067C29.7539 37.7423 29.4991 36.7095 29.5 35.6667V30.8667L37.9833 29.3C38.6402 29.1789 39.2507 28.9326 39.7629 28.582C40.2751 28.2314 40.6738 27.7871 40.925 27.2867L41.3167 26.5067C41.4369 26.2582 41.6488 26.0447 41.9241 25.8947C42.1994 25.7447 42.5252 25.6652 42.8583 25.6667H42.9583C43.2685 25.6663 43.5727 25.7354 43.8363 25.8662C44.1 25.9969 44.3126 26.1842 44.45 26.4067L46.6333 29.8933C46.8396 30.226 47.1581 30.5059 47.5527 30.7015C47.9474 30.897 48.4025 31.0004 48.8667 31H49.5V35.6667C49.5009 36.7095 49.2461 37.7423 48.75 38.7067L48.2583 38.0533C47.8183 37.462 47.1605 36.994 46.375 36.7133L41.875 35.1133C41.1292 34.8463 40.3213 34.7083 39.5042 34.7083C38.6871 34.7083 37.8792 34.8463 37.1333 35.1133L32.625 36.7133C31.8395 36.994 31.1817 37.462 30.7417 38.0533L30.25 38.7067ZM34.1583 51.8333L33.0667 48.3333H34.1583L36.5833 50.28L34.1583 51.8333ZM37.075 57.6667L37.7417 51.2467L37.775 51.2267L38.9083 52.14C39.0663 52.2639 39.2787 52.3334 39.5 52.3334C39.7213 52.3334 39.9337 52.2639 40.0917 52.14L41.225 51.2267L41.2583 51.2467L41.925 57.6667H37.075ZM44.8417 48.3333H45.9333L44.8417 51.8333L42.4167 50.28L44.8417 48.3333Z" fill="#DD4C4C"/>
</svg>
