<svg width="80" height="116" viewBox="0 0 80 116" fill="none" xmlns="http://www.w3.org/2000/svg">
<path d="M40 116C40 116 -12.0226 61.3171 2.58776 26.2787C17.1981 -8.75958 62.8018 -8.75958 77.4122 26.2787C92.0226 61.3171 40 116 40 116Z" fill="#23B04B"/>
<circle cx="40" cy="39" r="30" fill="white"/>
<path fill-rule="evenodd" clip-rule="evenodd" d="M32.3762 33.1476C34.79 33.1336 37.1619 33.7499 39.5122 35.0307V55.5605C37.2991 54.0174 35.2187 53.2226 33.0712 53.2427C30.8828 53.2632 28.6722 54.1228 26.2072 55.7627L25.0087 35.0362C27.5193 33.8029 29.9686 33.1616 32.3762 33.1476Z" fill="#23B04B"/>
<path fill-rule="evenodd" clip-rule="evenodd" d="M47.622 33.1477C50.0302 33.1618 52.4805 33.8029 54.9912 35.0362L53.7881 55.7624C51.325 54.1226 49.1146 53.2631 46.9264 53.2427C44.7792 53.2226 42.6989 54.0172 40.4878 55.56V35.0304C42.8357 33.7498 45.2077 33.1337 47.622 33.1477Z" fill="#23B04B"/>
<path fill-rule="evenodd" clip-rule="evenodd" d="M55.7924 38.0707L57.6607 38.6092L56.7439 59H40.4878V56.7843C42.8115 55.046 44.8442 54.2247 46.9175 54.2441C49.0491 54.2641 51.281 55.1805 53.9463 57.0772C54.0175 57.1279 54.1005 57.1581 54.1869 57.1649C54.2732 57.1718 54.3597 57.1549 54.4376 57.116C54.5155 57.0772 54.5819 57.0177 54.63 56.9438C54.6781 56.8699 54.7061 56.7841 54.7113 56.6954L55.7924 38.0707Z" fill="#23B04B"/>
<path fill-rule="evenodd" clip-rule="evenodd" d="M24.2111 38.1458L25.2837 56.6953C25.2888 56.784 25.3169 56.8697 25.3649 56.9436C25.413 57.0175 25.4794 57.077 25.5573 57.1159C25.6351 57.1547 25.7216 57.1717 25.808 57.1649C25.8943 57.1581 25.9773 57.1278 26.0485 57.0772C28.7164 55.1804 30.9484 54.264 33.08 54.2441C35.1534 54.2245 37.1862 55.046 39.5122 56.7845V59H23.3133L22.341 38.6217L24.2111 38.1458Z" fill="#23B04B"/>
<path fill-rule="evenodd" clip-rule="evenodd" d="M39.9998 19L60 28.9569V31.4115L40.2128 21.5607C40.1465 21.5277 40.0737 21.5106 39.9999 21.5106C39.9262 21.5106 39.8534 21.5277 39.787 21.5607L20 31.4113V28.9568L39.9998 19Z" fill="#23B04B"/>
</svg>
