<?xml version="1.0" encoding="utf-8"?>
<!-- Generator: Adobe Illustrator 27.7.0, SVG Export Plug-In . SVG Version: 6.00 Build 0)  -->
<svg version="1.1" id="Camada_1" xmlns="http://www.w3.org/2000/svg" xmlns:xlink="http://www.w3.org/1999/xlink" x="0px" y="0px"
	 viewBox="0 0 80 116" style="enable-background:new 0 0 80 116;" xml:space="preserve">
<style type="text/css">
	.st0{fill:#D500F9;}
	.st1{fill:#FFFFFF;}
</style>
<path class="st0" d="M40,116c0,0-52-54.7-37.4-89.7s60.2-35,74.8,0S40,116,40,116z"/>
<circle class="st1" cx="40" cy="39" r="30"/>
<g>
	<path class="st0" d="M33.4,41c-0.2,0-0.3,0-0.4,0c-6.3,0-18.7,0-25,0c-0.7,0-1-0.2-1-0.9c0-0.4,0-0.8,0-1.2c0-0.5,0.2-0.8,0.8-0.8
		c0.1,0,0.3,0,0.4,0c4.4,0,14.7,0,19.1,0c0.1,0,0.1,0,0.2,0c0-0.1,0-0.1,0-0.1c-1.7-2.5-2.3-5.3-2.1-8.3c0.1-1.5,0.5-3,1.1-4.5
		c0.3-0.6,0.6-1.2,1-1.7c0.1-0.1,0.2-0.2,0.2-0.3c-0.1-0.1-7.5,0-11.1,0c-0.8,0-1.6,0-2.5,0c-0.6,0-0.9-0.2-0.9-0.9
		c0-0.4,0-0.8,0-1.2c0-0.6,0.2-0.7,0.8-0.8c0.1,0,0.3,0,0.4,0c6,0,12,0,18,0c2,0,3.7,0.7,5.1,2.2c1.1,1.2,1.8,2.6,2.3,4.1
		c0.7,2.4,0.9,4.7,0.4,7.2c0,0.1,0,0.2-0.1,0.2s-0.1-0.1-0.2-0.1C39,33,38.3,32.5,37.6,32c-0.2-0.1-0.3-0.2-0.2-0.5
		c0.1-1.5,0-3-0.5-4.4c-0.3-1-0.8-2-1.5-2.8c-0.4-0.4-0.9-0.8-1.4-1c-1.1-0.5-2.2-0.3-3.1,0.5c-1.1,0.9-1.8,2.1-2.1,3.5
		c-0.7,2.7-0.7,5.3,0.5,7.8c0.4,0.8,0.9,1.5,1.5,2.1C31.8,38.3,32.6,39.6,33.4,41z"/>
	<path class="st0" d="M67,65.8c-2-0.1-3.8-0.8-5.4-2.1c-0.2-0.2-0.4-0.3-0.6-0.5c-0.2-0.2-0.3-0.2-0.5,0c-1.4,1.3-3.1,2.1-5,2.5
		c-1.7,0.3-3.3,0-4.8-0.7c-1.1-0.4-2-1.1-2.8-1.9c-0.2-0.2-0.3-0.2-0.4,0c-1.4,1.3-3.1,2.2-5.1,2.5c-2.5,0.4-4.7-0.2-6.7-1.7
		c-0.4-0.3-0.7-0.5-1-0.8c-0.2-0.2-0.3-0.2-0.4,0c-0.7,0.7-1.5,1.2-2.4,1.7c-2.5,1.2-5,1.3-7.6,0.2c-1-0.5-2-1.1-2.8-1.8
		c-0.2-0.2-0.3-0.2-0.4,0c-1.4,1.2-2.9,2.1-4.8,2.5c-0.5,0.1-1.1,0.2-1.6,0.2c-0.8,0-1.4-0.6-1.4-1.3c-0.1-0.8,0.4-1.4,1.2-1.5
		c0.4-0.1,0.9,0,1.3-0.1c1.6-0.3,2.9-1.2,4-2.4c0.1-0.2,0.3-0.3,0.4-0.5c0.6-0.6,1.5-0.6,2.1,0c0.2,0.2,0.4,0.5,0.7,0.7
		c0.9,0.9,2,1.6,3.2,2c1.9,0.6,3.6,0.2,5.2-0.9c0.7-0.5,1.3-1,1.8-1.6c0.8-0.9,1.7-0.8,2.5,0c0.9,1,1.9,1.9,3.2,2.3
		c2,0.7,3.9,0.4,5.6-0.8c0.7-0.5,1.3-1.1,1.9-1.7c0.2-0.2,0.5-0.5,0.8-0.5c0.6-0.1,1,0,1.4,0.5c0.6,0.7,1.2,1.3,1.9,1.8
		c1.7,1.1,3.5,1.5,5.5,0.8c1.3-0.4,2.4-1.3,3.3-2.3c0.8-1,1.9-1,2.7,0c1,1.2,2.2,2.1,3.8,2.5c0.4,0.1,0.8,0.2,1.2,0.2
		c0.5,0,0.9,0.1,1.3,0.4c0.5,0.4,0.7,0.9,0.6,1.4c-0.2,0.6-0.7,1-1.3,1.1C67.3,65.8,67.1,65.8,67,65.8z"/>
	<path class="st0" d="M40.9,57.6c-2.4-0.1-4.5-0.9-6.3-2.5c-0.2-0.2-0.3-0.2-0.6,0c-1.6,1.4-3.4,2.3-5.4,2.5s-3.9-0.3-5.6-1.3
		c-0.6-0.4-1.2-0.8-1.6-1.2c-0.2-0.2-0.3-0.1-0.5,0c-1.2,1.1-2.7,1.9-4.3,2.3c-0.6,0.2-1.3,0.2-1.9,0.3c-0.9,0-1.5-0.6-1.6-1.4
		c0-0.8,0.6-1.5,1.4-1.5c2.3-0.1,3.9-1.2,5.4-2.8c0.1-0.1,0.3-0.3,0.4-0.4c0.6-0.4,1.3-0.4,1.8,0.1c0.4,0.4,0.8,0.8,1.2,1.2
		c1,0.9,2.1,1.5,3.3,1.7c1.6,0.3,3.1-0.1,4.5-0.9c0.7-0.5,1.4-1,1.9-1.7c0.7-0.8,1.8-0.8,2.5,0c1,1.3,2.3,2.2,3.9,2.6
		c2,0.5,3.8-0.1,5.4-1.3c0.5-0.4,1-0.9,1.4-1.3c0.7-0.8,1.6-0.8,2.3,0c0.8,0.9,1.7,1.7,2.7,2.2c2.3,1.1,4.5,0.7,6.5-0.8
		c0.5-0.4,1-0.9,1.5-1.4c0.8-0.8,1.7-0.8,2.4,0c0.9,1,1.9,1.8,3.1,2.3c0.8,0.4,1.6,0.4,2.5,0.5c0.7,0,1.2,0.3,1.4,1
		c0.3,0.8-0.3,1.8-1.2,1.9c-1.1,0.1-2.2-0.2-3.3-0.6c-1.2-0.4-2.3-1.1-3.2-2c-0.2-0.2-0.3-0.2-0.4,0c-1.3,1.1-2.7,1.9-4.3,2.3
		c-2.7,0.7-5.1,0.1-7.4-1.5c-0.4-0.3-0.8-0.6-1.1-0.9c-0.2-0.1-0.2-0.1-0.4,0c-1.4,1.3-3.1,2.2-5,2.5C41.8,57.5,41.4,57.6,40.9,57.6
		z"/>
	<path class="st0" d="M40.8,51.9c-1,0-1.7-0.4-2.3-1c-0.3-0.3-0.6-0.6-0.9-0.9c-0.5-0.6-1.1-1-1.8-1.3c-0.2-0.1-0.1-0.2-0.1-0.4
		c0.4-0.7,0.7-1.4,1-2.1c0.8-2,0.5-4-0.5-5.9c-1.1-2.4-2.7-4.4-4.5-6.3c-0.1-0.1-0.2-0.3-0.4-0.4c-0.1-0.2-0.1-0.3,0-0.5
		s0.3-0.2,0.4-0.1c2,0.3,3.8,1,5.3,2.3c2.3,1.9,3.9,4.2,5.1,6.9c1,2.2,2,4.4,3.3,6.4c0.1,0.2,0.1,0.3-0.1,0.3
		c-0.6,0.3-1.1,0.7-1.5,1.2c-0.5,0.5-1,1-1.6,1.4C41.9,51.7,41.3,51.8,40.8,51.9z"/>
</g>
</svg>
