<svg width="80" height="116" viewBox="0 0 80 116" fill="none" xmlns="http://www.w3.org/2000/svg">
<g clip-path="url(#clip0_133_265)">
<path d="M40 116C40 116 -12 61.3 2.59997 26.3C17.2 -8.69995 62.8 -8.69995 77.4 26.3C92 61.3 40 116 40 116Z" fill="#E5C615"/>
<path d="M40 69C56.5685 69 70 55.5685 70 39C70 22.4315 56.5685 9 40 9C23.4315 9 10 22.4315 10 39C10 55.5685 23.4315 69 40 69Z" fill="white"/>
<path d="M59.5442 45.1877C58.7509 42.0729 55.0106 38.7283 50.8087 38.7283H50.6405C49.9966 38.7357 49.354 38.7826 48.7174 38.8687C49.019 39.6424 49.2694 40.4309 49.4674 41.2303C49.9848 41.1202 50.4876 40.9618 50.9674 40.758C50.9674 40.758 49.5684 41.9792 48.1261 42.0941C48.0011 41.5282 45.5829 31.2519 35.3667 24.1883C34.8859 23.8394 34.434 23.5373 33.9965 23.2649C35.0391 22.9951 36.1439 22.9745 37.1984 23.2054C38.0157 25.0479 39.9435 25.8989 42.3137 26.4521C45.0877 27.0989 54.6404 24.584 54.6404 24.584C54.0539 23.7287 48.9578 17.8991 41.8618 19.1842C37.3522 20.0012 36.8763 22.1628 36.8763 22.1628C35.4653 22.0854 34.0492 22.1944 32.6744 22.4862L31.6745 21.9799C30.7129 21.448 30.2851 21.9033 29.7803 22.5118C29.3428 23.0352 30.4437 23.9543 31.9148 24.5372C33.4869 27.7456 36.5542 35.4603 32.9725 41.175C33.1136 41.4536 33.3384 41.6926 33.6224 41.8659C33.9064 42.0393 34.2387 42.1403 34.5831 42.158C34.791 42.1532 34.997 42.1202 35.1936 42.0601C35.1936 42.0601 38.4917 36.1667 33.7898 25.3074C34.0416 25.2239 34.2819 25.1154 34.5061 24.984C38.1311 27.7754 44.1646 33.4944 46.0444 41.6303C44.9418 41.1864 43.7543 40.9308 42.5445 40.8772C41.9559 40.8768 41.3713 40.9616 40.8137 41.1282C38.0782 41.9324 35.0734 45.9238 36.7417 51.0896C38.0782 55.1703 43.1454 59 48.6117 59C50.1444 59.0015 51.6573 58.693 53.0347 58.0979C59.9095 55.1448 60.7413 49.8258 59.5442 45.1877Z" fill="#E5C615"/>
<path d="M38.6984 40.7494C38.2332 40.5502 37.7509 40.3837 37.2561 40.2516C37.1329 40.7917 36.9724 41.3246 36.7753 41.8473C36.8758 41.9608 36.9673 42.0802 37.0494 42.2047C37.5194 41.6537 38.0744 41.1638 38.6984 40.7494Z" fill="#E5C615"/>
<path d="M35.8667 43.9707L35.9388 43.8345C35.2301 43.7837 34.531 43.6565 33.8571 43.4558C28.7947 42.0771 29.4485 40.0814 30.5398 39.8389C31.0586 39.8161 31.5782 39.8678 32.0783 39.9921C32.3658 39.4441 32.5974 38.8744 32.7706 38.29C31.7888 37.7208 30.6542 37.3919 29.4822 37.3368C26.1505 37.1539 21.0448 38.2602 20.1073 45.6344C19.1698 53.0087 24.588 55.8724 28.0255 56.8852C29.9485 57.4468 34.2754 57.183 37.7128 55.2767C36.6683 54.1331 35.8846 52.8209 35.4051 51.413C34.5469 48.9634 34.7106 46.3224 35.8667 43.9707Z" fill="#E5C615"/>
</g>
<defs>
<clipPath id="clip0_133_265">
<rect width="80" height="116" fill="white"/>
</clipPath>
</defs>
</svg>
