<?xml version="1.0" encoding="utf-8"?>
<!-- Generator: Adobe Illustrator 27.7.0, SVG Export Plug-In . SVG Version: 6.00 Build 0)  -->
<svg version="1.1" id="Camada_1" xmlns="http://www.w3.org/2000/svg" xmlns:xlink="http://www.w3.org/1999/xlink" x="0px" y="0px"
	 viewBox="0 0 80 116" style="enable-background:new 0 0 80 116;" xml:space="preserve">
<style type="text/css">
	.st0{fill:#2E526D;}
	.st1{fill:#FFFFFF;}
</style>
<path class="st0" d="M40,116c0,0-52-54.7-37.4-89.7s60.2-35,74.8,0S40,116,40,116z"/>
<circle class="st1" cx="40" cy="39" r="30"/>
<g>
	<path class="st0" d="M22.5,36.7c0.3-0.3,0.7-0.6,1-0.9c5.4-5.4,10.8-10.8,16.2-16.2c0.3-0.3,0.3-0.3,0.6,0
		c5.4,5.4,10.8,10.8,16.3,16.2c0.3,0.3,0.6,0.6,0.9,0.9c-0.1,0.1-0.1,0-0.2,0c-0.6,0-1.2,0-1.8,0c-0.2,0-0.2,0.1-0.2,0.2
		c0,4.2,0,8.5,0,12.7c0,1.5,0,2.9,0,4.4c0,0.2,0,0.2-0.2,0.2c-1.6,0-3.2,0-4.8,0c-0.5,0-0.9,0-1.4,0c-0.2,0-0.2-0.1-0.2-0.2
		c0-4.2,0-8.4,0-12.6v-0.1c0-0.2,0-0.2-0.2-0.2c-2.4,0-4.8,0-7.2,0c-3.1,0-6.3,0-9.4,0c-0.2,0-0.4,0-0.6,0c-0.1,0-0.2,0-0.2,0.2
		c0,4.1,0,8.3,0,12.4c0,0.5,0,0.5-0.6,0.5c-2,0-3.9,0-5.9,0c-0.1,0-0.2,0-0.2-0.2c0-0.1,0-0.1,0-0.2c0-5.6,0-11.3,0-16.9
		c0-0.3,0-0.3-0.3-0.3C23.8,36.8,23.2,36.8,22.5,36.7C22.5,36.8,22.5,36.7,22.5,36.7z"/>
	<path class="st0" d="M40,50c-2.1,0-4.2,0-6.3,0c-0.2,0-0.3-0.1-0.3-0.3c0-0.6,0-1.2,0-1.8c0-0.1,0.1-0.2,0.2-0.2c0.3,0,0.5,0,0.8,0
		c4,0,8,0,12,0c0.2,0,0.3,0.1,0.3,0.3c0,0.6,0,1.1,0,1.7c0,0.2-0.1,0.3-0.3,0.3C44.2,50,42.1,50,40,50z"/>
	<path class="st0" d="M40,45.6c-2.1,0-4.2,0-6.3,0c-0.3,0-0.3,0-0.3-0.3c0-0.5,0-1.1,0-1.6c0-0.2,0-0.2,0.2-0.2c4.2,0,8.5,0,12.7,0
		c0.2,0,0.2,0,0.2,0.2c0,0.6,0,1.2,0,1.8c0,0.1-0.1,0.2-0.2,0.2c-1.1,0-2.2,0-3.3,0C42.1,45.6,41.1,45.6,40,45.6L40,45.6z"/>
	<path class="st0" d="M40,54.3c-2.1,0-4.3,0-6.4,0c-0.1,0-0.2,0-0.2-0.2c0-0.6,0-1.2,0-1.8c0-0.1,0-0.2,0.2-0.2c4.3,0,8.5,0,12.8,0
		c0.2,0,0.2,0,0.2,0.2c0,0.6,0,1.2,0,1.8c0,0.2-0.1,0.2-0.2,0.2C44.3,54.3,42.2,54.3,40,54.3L40,54.3z"/>
</g>
</svg>
