<svg width="80" height="116" viewBox="0 0 80 116" fill="none" xmlns="http://www.w3.org/2000/svg">
<g clip-path="url(#clip0_140_109)">
<path d="M40 116C40 116 -12.0226 61.3171 2.58776 26.2787C17.1981 -8.75957 62.8018 -8.75957 77.4122 26.2787C92.0226 61.3171 40 116 40 116Z" fill="#666666"/>
<path d="M40 69C56.5685 69 70 55.5685 70 39C70 22.4315 56.5685 9 40 9C23.4315 9 10 22.4315 10 39C10 55.5685 23.4315 69 40 69Z" fill="white"/>
<path d="M59.8972 53.2186L53.8334 22.7133C53.4122 20.5511 51.6857 19 49.7065 19H41.2423L41.7476 26.9436H38.2946L38.7999 19H30.2936C28.3144 19 26.5878 20.5511 26.1667 22.7133L20.1028 53.2186C19.5133 56.1798 21.5346 59 24.2296 59H36.2311L37.0312 46.168H42.9267L43.7268 59H55.7283C58.4655 58.953 60.4868 56.1328 59.8972 53.2186ZM37.326 41.8437L38.084 29.8578H41.9161L42.6741 41.8437H37.326Z" fill="#666666"/>
</g>
<defs>
<clipPath id="clip0_140_109">
<rect width="80" height="116" fill="white"/>
</clipPath>
</defs>
</svg>
