<?xml version="1.0" encoding="utf-8"?>
<!-- Generator: Adobe Illustrator 27.7.0, SVG Export Plug-In . SVG Version: 6.00 Build 0)  -->
<svg version="1.1" id="Camada_1" xmlns="http://www.w3.org/2000/svg" xmlns:xlink="http://www.w3.org/1999/xlink" x="0px" y="0px"
	 viewBox="0 0 80 116" style="enable-background:new 0 0 80 116;" xml:space="preserve">
<style type="text/css">
	.st0{fill:#00C9CE;}
	.st1{fill:#FFFFFF;}
</style>
<path class="st0" d="M40,116c0,0-52-54.7-37.4-89.7s60.2-35,74.8,0S40,116,40,116z"/>
<circle class="st1" cx="40" cy="39" r="30"/>
<g>
	<path class="st0" d="M25,31c0.4-0.3,0.8-0.6,1.1-0.9c0.8-0.6,1.6-1.2,2.4-1.8c0.1-0.1,0.2-0.1,0.3,0c1.9,1.9,3.9,3.9,5.8,5.8
		c1.3,1.3,2.5,2.6,3.8,3.9c0.1,0.1,0.1,0.2,0,0.3c-0.9,1.2-1.8,2.4-2.8,3.6c-0.1,0.2-0.1,0.2,0.1,0.3c2,0.5,4,1,6,1.5
		c0.1,0,0.2,0,0.3-0.1c0.4-0.5,0.9-1.1,1.3-1.6c0.2-0.3,0.4-0.4,0.8-0.3c0.3,0.1,0.7,0.1,1,0.2c0.4,0.1,0.6,0.3,0.5,0.7
		c-0.2,2-0.5,3.9-0.7,5.9c0,0.3-0.1,0.6-0.1,0.9c-0.1,0.5-0.3,0.7-0.8,0.6c-0.3,0-0.6-0.1-0.9-0.1c-0.3,0-0.5-0.2-0.7-0.5
		c-0.3-0.6-0.6-1.2-0.8-1.8c-0.1-0.1-0.1-0.2-0.3-0.2c-3.1,0-6.2-0.1-9.3-0.1c-0.2,0-0.3,0-0.4,0.2c-0.3,0.5-0.7,0.9-1,1.4
		c-0.1,0.1-0.2,0.3-0.4,0.4c-0.3,0.2-0.6,0.2-0.9,0c-0.2-0.1-0.3-0.3-0.5-0.4C25.5,45,22,41.5,18.4,38c-0.1-0.1-0.3-0.3-0.4-0.5
		c-0.3-0.4-0.3-0.9,0.2-1.2c0.8-0.6,1.6-1.2,2.5-1.9s1.8-1.4,2.7-2c0.2-0.1,0.2-0.2,0.2-0.5c-0.8-3.2-0.2-6.1,1.8-8.7
		c1.1-1.4,2.5-2.4,4.1-3c2.4-0.9,4.9-0.9,7.3,0.1c2.2,0.9,3.9,2.4,5,4.5c1.3,2.5,1.5,5.2,0.5,7.9c-0.4,1.1-0.9,2-1.6,2.9
		c-0.3,0.3-0.5,0.7-0.8,1c-0.1,0.2-0.2,0.2-0.3,0c-2-2-4-4.1-6.1-6.1c-1.1-1.1-2.1-2.1-3.2-3.2c-0.1-0.1-0.1-0.2,0-0.3
		c0.5-0.3,0.9-0.7,1.4-1c0.6-0.4,1-0.4,1.5,0.1c1.8,1.9,3.7,3.7,5.5,5.6c0.4,0.4,0.8,0.8,1.2,1.2c0.1,0.1,0.2,0.2,0.3,0
		c1.4-2.9,1.1-6.7-1.4-9.2c-1.3-1.3-2.8-2.2-4.6-2.4c-1.6-0.2-3.1,0-4.5,0.7c-2.6,1.3-4.1,3.3-4.6,6.2C24.8,29.2,24.8,30.1,25,31z"
		/>
	<path class="st0" d="M47.9,50.7c0-0.4,0-0.4,0.4-0.3c0.6,0.1,1.2,0.2,1.7,0.5c0.5,0.2,0.8,0.6,1,1.1c0.1,0.5-0.1,1.1-0.5,1.4
		c-0.4,0.3-1,0.3-1.4,0s-0.7-0.6-0.8-1.1C48,51.8,47.9,51.3,47.9,50.7z"/>
	<path class="st0" d="M46.6,45.9c0-0.3,0-0.4,0.3-0.3c0.6,0.1,1.3,0.2,1.8,0.5c0.8,0.4,1.1,1.2,0.8,2c-0.2,0.5-0.8,0.9-1.4,0.7
		c-0.7-0.2-1.1-0.6-1.3-1.2C46.7,47,46.6,46.5,46.6,45.9z"/>
	<path class="st0" d="M58.9,51.3c0,1-1.1,1.6-1.9,1.2c-0.5-0.3-0.8-0.8-0.9-1.3c-0.1-0.5-0.2-1-0.2-1.6c0-0.3,0-0.3,0.3-0.3
		c0.6,0.1,1.2,0.3,1.8,0.5C58.5,50.2,58.9,50.7,58.9,51.3z"/>
	<path class="st0" d="M54.2,55.5c-0.5-0.1-1-0.4-1.3-0.9c-0.3-0.7-0.4-1.4-0.4-2.1c0-0.2,0.1-0.2,0.3-0.2c0.7,0.1,1.4,0.3,2,0.6
		s0.9,1,0.7,1.6C55.4,55.1,54.9,55.5,54.2,55.5z"/>
	<path class="st0" d="M49.2,55.7c0-0.5,0-0.5,0.4-0.5c0.6,0.1,1.2,0.3,1.7,0.5c0.6,0.3,1,1.1,0.9,1.6s-0.4,0.9-0.9,1
		c-0.5,0.2-1,0-1.4-0.3s-0.5-0.8-0.6-1.3C49.3,56.4,49.2,56,49.2,55.7z"/>
	<path class="st0" d="M54.3,49.3c0,1-0.9,1.7-1.7,1.3c-0.4-0.2-0.8-0.5-1-0.9c-0.3-0.7-0.4-1.4-0.4-2.1c0-0.2,0.1-0.2,0.2-0.2
		c0.6,0.1,1.2,0.2,1.8,0.5C53.8,48.2,54.2,48.7,54.3,49.3z"/>
</g>
</svg>
