<svg width="80" height="116" viewBox="0 0 80 116" fill="none" xmlns="http://www.w3.org/2000/svg">
<path d="M40 116C40 116 -12.0226 61.3171 2.58776 26.2787C17.1981 -8.75958 62.8018 -8.75958 77.4122 26.2787C92.0226 61.3171 40 116 40 116Z" fill="#E10909"/>
<circle cx="40" cy="39" r="30" fill="white"/>
<path d="M55.7447 51.7403L52.0522 46.6457C52.0361 46.6233 52.0113 46.609 51.9941 46.5877L46.5 39.0135V20.2143H48.25C48.7141 20.2143 49.1592 20.045 49.4874 19.7436C49.8156 19.4422 50 19.0334 50 18.6071C50 18.1809 49.8156 17.7721 49.4874 17.4707C49.1592 17.1693 48.7141 17 48.25 17H30.75C30.2859 17 29.8408 17.1693 29.5126 17.4707C29.1844 17.7721 29 18.1809 29 18.6071C29 19.0334 29.1844 19.4422 29.5126 19.7436C29.8408 20.045 30.2859 20.2143 30.75 20.2143H32.5V39.0135L29.294 43.4299L29.2926 43.433L23.2562 51.7387C22.4334 52.8739 21.9963 54.2078 22 55.5714C22.002 57.2758 22.7401 58.9099 24.0524 60.1151C25.3648 61.3203 27.1441 61.9982 29 62H50C51.8559 61.9982 53.6352 61.3203 54.9476 60.1151C56.2599 58.9099 56.998 57.2758 57 55.5714C57.0039 54.2084 56.567 52.875 55.7447 51.7403ZM30.785 57.1786C30.5552 57.1796 30.3274 57.1391 30.1147 57.0593C29.9019 56.9795 29.7083 56.862 29.545 56.7135C29.2152 56.4136 29.0286 56.0057 29.0263 55.5795C29.0239 55.1532 29.2061 54.7436 29.5326 54.4407C29.8592 54.1378 30.3034 53.9664 30.7675 53.9643H30.785C31.2491 53.9643 31.6943 54.1336 32.0224 54.435C32.3506 54.7364 32.535 55.1452 32.535 55.5714C32.535 55.9977 32.3506 56.4065 32.0224 56.7079C31.6943 57.0092 31.2491 57.1786 30.785 57.1786ZM34.285 52.3571C33.8209 52.3593 33.3748 52.192 33.045 51.8921C32.7152 51.5922 32.5286 51.1843 32.5263 50.758C32.5239 50.3318 32.7061 49.9222 33.0326 49.6193C33.3592 49.3164 33.8034 49.145 34.2675 49.1429H34.285C34.7491 49.1429 35.1943 49.3122 35.5224 49.6136C35.8506 49.915 36.035 50.3238 36.035 50.75C36.035 51.1762 35.8506 51.585 35.5224 51.8864C35.1943 52.1878 34.7491 52.3571 34.285 52.3571ZM45.5534 43.7732C45.1512 43.6722 44.7419 43.5965 44.3284 43.5468C44.221 43.5341 44.1168 43.5121 44.0087 43.5029C43.5332 43.4657 43.0554 43.4621 42.5793 43.4921C42.4554 43.4992 42.3343 43.5045 42.2107 43.5161C41.7244 43.56 41.2427 43.6397 40.7703 43.7544C40.6807 43.7763 40.5953 43.8026 40.5057 43.8279C40.0064 43.9599 39.521 44.1329 39.0555 44.3449C38.1637 44.7486 37.1722 44.9303 36.18 44.8719C35.1878 44.8135 34.2297 44.5171 33.4013 44.0122L33.1776 43.8754L35.7067 40.3915C35.8981 40.1274 36.0001 39.8172 36 39.5V20.2143H43V39.5C42.9998 39.8172 43.1017 40.1274 43.2931 40.3915L45.7762 43.8147C45.7041 43.7941 45.6262 43.7919 45.5534 43.7732Z" fill="#E10909"/>
</svg>
