<?xml version="1.0" encoding="utf-8"?>
<!-- Generator: Adobe Illustrator 27.7.0, SVG Export Plug-In . SVG Version: 6.00 Build 0)  -->
<svg version="1.1" id="Camada_1" xmlns="http://www.w3.org/2000/svg" xmlns:xlink="http://www.w3.org/1999/xlink" x="0px" y="0px"
	 viewBox="0 0 80 116" style="enable-background:new 0 0 80 116;" xml:space="preserve">
<style type="text/css">
	.st0{fill:#F8B133;}
	.st1{fill:#FFFFFF;}
</style>
<path class="st0" d="M40,116c0,0-52-54.7-37.4-89.7s60.2-35,74.8,0S40,116,40,116z"/>
<circle class="st1" cx="40" cy="39" r="30"/>
<g>
	<path class="st0" d="M58.7,33.2c0,1.1,0,2.1,0,3.2c0,0.2-0.1,0.2-0.2,0.2c-2-0.2-3.6,1-3.9,3c-0.4,1.9,0.9,3.9,2.7,4.3
		c0.4,0.1,0.9,0.1,1.3,0c0.1,0,0.2,0,0.2,0.2c0,1.2,0,2.3,0,3.5c0,0.1,0,0.2-0.1,0.2c-1.1,0.1-2.2,0.2-3.3,0.3
		c-1.5,0.1-3.1,0.3-4.6,0.4c-1.2,0.1-2.4,0.2-3.6,0.3c-0.7,0.1-1.4,0.1-2.2,0.2c-0.1,0-0.2,0-0.3-0.1c-0.5-0.8-1.2-1.2-2.1-1.4
		c-1.3-0.2-2.6-0.2-3.9,0.2c-0.6,0.2-1.2,0.5-1.5,1.1c-0.1,0.1-0.2,0.3-0.2,0.4c0,0.2-0.1,0.2-0.3,0.2c-1.4,0.1-2.8,0.2-4.2,0.3
		c-1.5,0.1-3,0.2-4.5,0.3c-1,0.1-1.9,0.1-2.9,0.2c-0.9,0.1-1.7,0.1-2.6,0.2c-0.2,0-0.2,0-0.2-0.2c0-1.1-0.1-2.2-0.2-3.2
		c0-0.4,0-0.5,0.4-0.4c1.4,0.1,2.6-1.1,2.7-2.5c0.1-1.3-0.6-2.4-1.7-2.9c-0.5-0.2-1.1-0.3-1.7-0.1c-0.1,0-0.2,0-0.2-0.1
		c-0.1-1-0.1-1.9-0.2-2.9c0-0.2,0.1-0.3,0.2-0.3c3.6-0.8,7.3-1.6,10.9-2.3c4-0.9,8-1.7,12-2.6c3.9-0.8,7.9-1.7,11.8-2.5
		c0.7-0.1,1.4-0.3,2.1-0.5c0.2,0,0.2,0,0.2,0.2C58.7,31,58.7,32.1,58.7,33.2z M43.7,37.7c0,0.3,0,0.5,0.1,0.8c0.6,2,2.9,2.6,4.4,1.2
		C49,39,49.2,38,49,37c-0.3-1.5-1.8-2.5-3.2-2.2C44.6,35.1,43.6,36.5,43.7,37.7z M29,49c0.3,0,0.6,0,0.8-0.1
		c1.6-0.5,2.4-2.4,1.7-3.9c-0.6-1.3-2-1.9-3.3-1.5c-1.4,0.5-2.1,2-1.7,3.4C26.9,48.1,28,49,29,49z"/>
	<path class="st0" d="M58.6,28.8c-2,0.5-4.1,1-6.1,1.4c0-0.1,0.1-0.1,0.2-0.2c0.4-0.3,0.8-0.6,1.1-1.1c0.5-1,0-1.6-0.9-1.7
		c-1.7,0-2.9,0.6-3.9,1.8c-0.1,0.1-0.2,0.3-0.2,0.4c-0.3,0.7-0.1,1.1,0.6,1.4c0,0,0.1,0,0.1,0.1c-9.3,2-18.6,4-28,5.9v-0.1
		c5-3.3,10.1-6.6,15.1-9.9c2-1.3,3.9-2.6,5.9-3.9c0.2-0.1,0.5-0.2,0.7-0.2c1.7,0.1,3.3,0.3,4.9,0.7c2.1,0.5,4.2,1.2,6.2,2.2
		C55.9,26.3,57.3,27.4,58.6,28.8C58.6,28.7,58.6,28.7,58.6,28.8z M34.3,32c0.2,0,0.3,0,0.5,0h0.1c1-0.2,1.8-0.6,2.5-1.3
		c0.2-0.2,0.4-0.5,0.5-0.7c0.3-0.7,0-1.3-0.7-1.4c-0.2,0-0.4-0.1-0.6-0.1c-1.2,0-2.2,0.5-3.1,1.3c-0.3,0.2-0.5,0.5-0.6,0.9
		c-0.2,0.6,0,1.1,0.6,1.3C33.8,32,34,32,34.3,32z"/>
</g>
</svg>
