<?xml version="1.0" encoding="utf-8"?>
<!-- Generator: Adobe Illustrator 27.7.0, SVG Export Plug-In . SVG Version: 6.00 Build 0)  -->
<svg version="1.1" id="Camada_1" xmlns="http://www.w3.org/2000/svg" xmlns:xlink="http://www.w3.org/1999/xlink" x="0px" y="0px"
	 viewBox="0 0 80 116" style="enable-background:new 0 0 80 116;" xml:space="preserve">
<style type="text/css">
	.st0{fill:#0071BC;}
	.st1{fill:#FFFFFF;}
</style>
<path class="st0" d="M40,116c0,0-52-54.7-37.4-89.7c14.6-35,60.2-35,74.8,0C92,61.3,40,116,40,116z"/>
<circle class="st1" cx="40" cy="39" r="30"/>
<g>
	<path class="st0" d="M27.3,20.7c0.2,0,0.3,0.1,0.5,0.2c1.3,1,2.6,2,3.8,3.1c0.2,0.2,0.4,0.2,0.7,0.1c0.8-0.5,1.7-0.8,2.6-1.1
		c0.2-0.1,0.3-0.2,0.3-0.4c0.1-1,0.2-1.9,0.3-2.9c0.1-0.7,0.2-1.4,0.3-2c0.1-0.6,0.2-0.7,0.8-0.7c1.2,0,2.4,0,3.6,0c1,0,2,0,3,0
		c0.6,0,0.8,0.2,0.8,0.8c0.2,1.6,0.4,3.2,0.5,4.8c0,0.3,0.1,0.4,0.4,0.5c1,0.3,1.9,0.7,2.7,1.2c0.2,0.1,0.3,0.1,0.4,0
		c1.3-1,2.5-2,3.8-3.1c0.5-0.4,0.7-0.4,1.2,0.1c1.5,1.5,3,3,4.5,4.5c0.6,0.6,0.6,0.7,0.1,1.3c-1,1.2-2,2.5-3,3.7
		c-0.1,0.2-0.2,0.3-0.1,0.5C55.3,32,55.7,33,56,34c0,0.2,0.1,0.2,0.3,0.2c1,0.1,2,0.2,3,0.3c0.7,0.1,1.4,0.2,2.1,0.2
		c0.4,0.1,0.6,0.3,0.6,0.7c0,2.3,0,4.5,0,6.8c0,0.5-0.1,0.6-0.6,0.7c-1.1,0.1-2.1,0.3-3.2,0.4c-0.6,0.1-1.3,0.2-1.9,0.2
		c-0.2,0-0.2,0.1-0.3,0.3c-0.3,1-0.7,1.9-1.2,2.8c-0.1,0.2-0.1,0.4,0.1,0.5c1,1.2,2,2.5,3,3.7c0.5,0.7,0.5,0.7-0.1,1.3
		c-1.5,1.5-3,3.1-4.6,4.6c-0.4,0.4-0.6,0.4-1,0.1c-1.3-1-2.6-2.1-3.9-3.1c-0.2-0.1-0.3-0.2-0.5-0.1c-0.9,0.5-1.8,0.9-2.8,1.1
		c-0.2,0.1-0.3,0.2-0.4,0.4c-0.2,1.6-0.4,3.3-0.5,4.9c-0.1,0.5-0.2,0.7-0.7,0.7c-2.2,0-4.5,0-6.7,0c-0.6,0-0.7-0.1-0.8-0.7
		c-0.2-1.6-0.4-3.3-0.6-4.9c0-0.2-0.1-0.3-0.3-0.3c-1-0.3-2-0.7-2.9-1.2c-0.1-0.1-0.2-0.1-0.3,0c-1.3,1-2.6,2.1-3.9,3.1
		c-0.1,0-0.1,0.1-0.2,0.1c-0.4,0.3-0.6,0.3-0.9-0.1C25.9,55.9,25,55,24,54c-0.6-0.6-1.3-1.3-1.9-1.9c-0.4-0.4-0.4-0.6-0.1-1
		c1-1.3,2.1-2.6,3.1-3.9c0.1-0.2,0.1-0.3,0.1-0.4c-0.5-0.9-0.9-1.9-1.2-2.9c0-0.1-0.1-0.2-0.2-0.2c-1.6-0.2-3.2-0.4-4.9-0.6
		c-0.1,0-0.2,0-0.3,0c-0.4-0.1-0.5-0.2-0.5-0.6c0-0.3,0-0.5,0-0.8c0-2,0-3.9,0-5.9c0-0.7,0.1-0.8,0.8-0.9c1.6-0.2,3.1-0.4,4.7-0.5
		c0.3,0,0.5-0.1,0.6-0.5c0.3-0.9,0.7-1.8,1.1-2.7c0.1-0.2,0.1-0.3,0-0.4c-1.1-1.3-2.1-2.6-3.2-4c-0.3-0.4-0.3-0.6,0-1
		c1.6-1.6,3.2-3.2,4.7-4.7C26.9,20.8,27.1,20.7,27.3,20.7z"/>
	<path class="st1" d="M47.8,40.7c-0.1,3.6-2.1,6.7-5.9,7.7c-3.1,0.8-5.7-0.1-7.8-2.5c-1.2-1.4-1.9-3.1-1.8-5c0-1.6,0.5-3,1.3-4.4
		c1.5-2.7,3.6-4.9,5.9-6.9c0.5-0.4,0.6-0.4,1.1,0c2.2,2,4.3,4.2,5.8,6.8c0.6,1.1,1.1,2.3,1.3,3.6C47.7,40.1,47.8,40.5,47.8,40.7z"/>
</g>
</svg>
