<svg width="80" height="116" viewBox="0 0 80 116" fill="none" xmlns="http://www.w3.org/2000/svg">
<path d="M40 116C40 116 -12.0226 61.3171 2.58776 26.2787C17.1981 -8.75958 62.8018 -8.75958 77.4122 26.2787C92.0226 61.3171 40 116 40 116Z" fill="#59555A"/>
<circle cx="40" cy="39" r="30" fill="white"/>
<path d="M26.4874 53.319C26.0662 53.319 25.687 52.9823 25.687 52.5194C25.687 51.7619 25.7713 50.4574 26.024 48.9845L23.7492 46.67C20.4213 50.5837 20.0421 56.1805 20 58.2005C20 58.6213 20.337 59 20.8004 59C22.8225 58.9579 28.4252 58.5792 32.343 55.2547L30.026 52.9823C28.5516 53.2348 27.2457 53.2769 26.4874 53.319Z" fill="#59555A"/>
<path d="M51.0891 44.5659L51.0048 44.3555C60.4411 34.3821 60.2726 24.0721 59.8513 20.5793C59.7671 19.8218 59.1773 19.2327 58.4191 19.1485C54.9226 18.7277 44.6017 18.5594 34.6178 27.9857L34.4493 27.9436C31.1634 26.4287 27.3299 27.1441 24.7603 29.669L21.0953 33.3301C20.2528 34.1717 20.5055 35.5604 21.5587 36.0233L27.4985 38.7586L25.4764 41.9569C25.013 42.7143 25.0973 43.7243 25.7713 44.3976L34.6178 53.2348C35.2497 53.866 36.2607 53.9923 37.0611 53.5294L40.2627 51.5094L43.0009 57.443C43.5064 58.495 44.8966 58.7475 45.697 57.9059L49.3619 54.2448C51.9316 51.6778 52.6056 47.8062 51.0891 44.5659ZM42.706 36.3179C40.9367 34.5505 40.9367 31.731 42.706 29.9635C44.4753 28.1961 47.2977 28.1961 49.067 29.9635C50.8363 31.731 50.7942 34.5505 49.067 36.3179C47.3399 38.0432 44.4753 38.0432 42.706 36.3179Z" fill="#59555A"/>
</svg>
