<svg width="80" height="116" viewBox="0 0 80 116" fill="none" xmlns="http://www.w3.org/2000/svg">
<g clip-path="url(#clip0_144_176)">
<path d="M40 116C40 116 -12.0226 61.3171 2.58776 26.2787C17.1981 -8.75957 62.8018 -8.75957 77.4122 26.2787C92.0226 61.3171 40 116 40 116Z" fill="#FFD859"/>
<path d="M40 69C56.5685 69 70 55.5685 70 39C70 22.4315 56.5685 9 40 9C23.4315 9 10 22.4315 10 39C10 55.5685 23.4315 69 40 69Z" fill="white"/>
<path d="M18 39.5011C19.7444 37.148 21.7598 35.1582 24.0123 33.4106C27.552 30.6422 31.3795 28.4967 35.7829 27.5278C41.1686 26.3512 46.3171 27.1817 51.2286 29.6214C55.7505 31.8534 59.5781 35.0024 62.7451 38.9993C62.9822 39.3108 63.1347 39.5184 62.8298 39.8991C57.9692 45.8165 52.1093 50.1075 44.5558 51.5955C39.4919 52.5991 34.6651 51.6821 30.0585 49.4327C25.7059 47.3218 22.0308 44.3285 18.8976 40.6258C18.5928 40.297 18.3218 39.9337 18 39.5011ZM48.0107 47.218C52.2617 45.5397 55.8352 42.8751 58.9684 39.5011C56.1401 36.4559 52.973 34.0162 49.3148 32.3033C47.7736 31.5939 47.7736 31.5939 46.6389 32.8915C46.5712 32.9608 46.5373 33.0473 46.4526 33.1511C44.7421 31.6458 42.8283 30.7806 40.5927 30.7806C38.3233 30.7806 36.3757 31.5939 34.7159 33.1511C31.9553 35.7638 31.2271 40.0721 32.9546 43.4288C34.8006 47.0104 38.6451 48.8617 42.3372 48.0139C44.2848 47.5641 45.8937 46.5605 47.1639 44.986C48.9253 42.7886 49.3995 40.2624 48.9084 37.4767C49.6366 37.3902 50.2971 37.3037 50.9746 37.1999C51.6012 41.1102 50.585 44.3977 48.0107 47.218ZM33.1578 31.7323C28.8222 33.4971 25.2656 36.1617 22.1493 39.5184C25.3164 42.8751 28.856 45.5397 33.1917 47.2872C29.1439 43.0481 28.856 36.352 33.1578 31.7323ZM41.7613 38.4976C42.7606 37.3383 43.6243 36.3347 44.4711 35.3485C42.7606 33.3414 39.3564 33.1338 37.1208 34.8467C34.7329 36.6808 34.1401 40.124 35.766 42.6675C37.3918 45.2282 40.7452 46.0587 43.3194 44.6053C45.6397 43.2903 46.8422 40.2105 45.9615 37.9612C44.6405 38.1515 43.3025 38.3072 41.7613 38.4976ZM44.4711 35.3485C42.7606 33.3414 39.3564 33.1338 37.1208 34.8467C34.7329 36.6808 34.1401 40.124 35.766 42.6675C37.3918 45.2282 40.7452 46.0587 43.3194 44.6053C45.6397 43.2903 46.8422 40.2105 45.9615 37.9612C44.6235 38.1342 43.2856 38.2899 41.7613 38.4976C42.7606 37.3383 43.6243 36.352 44.4711 35.3485Z" fill="#FFD859"/>
</g>
<defs>
<clipPath id="clip0_144_176">
<rect width="80" height="116" fill="white"/>
</clipPath>
</defs>
</svg>
