<svg width="80" height="116" viewBox="0 0 80 116" fill="none" xmlns="http://www.w3.org/2000/svg">
<path d="M40 116C40 116 -12.0226 61.3171 2.58776 26.2787C17.1981 -8.75958 62.8018 -8.75958 77.4122 26.2787C92.0226 61.3171 40 116 40 116Z" fill="#FF9D00"/>
<circle cx="40" cy="39" r="30" fill="white"/>
<path fill-rule="evenodd" clip-rule="evenodd" d="M18.8502 35.5362C17.6656 34.8771 17 33.7233 17 32.5169C17 31.3083 17.6656 30.1545 18.8502 29.4976L36.2516 19.8227C38.2274 18.7258 40.7726 18.7258 42.7484 19.8227L60.1498 29.4976C61.3344 30.1545 62 31.3083 62 32.5169C62 33.7233 61.3344 34.8771 60.1498 35.5362L42.7484 45.2089C40.7726 46.308 38.2274 46.308 36.2516 45.2089L18.8502 35.5362ZM20.3677 32.7716L37.7691 42.4444C38.8219 43.0297 40.1781 43.0297 41.2309 42.4444L58.6323 32.7716C58.7474 32.7085 58.8605 32.6327 58.8605 32.5169C58.8605 32.399 58.7474 32.3253 58.6323 32.26L41.2309 22.5873C40.1781 22.0019 38.8219 22.0019 37.7691 22.5873L20.3677 32.26C20.2526 32.3253 20.1395 32.399 20.1395 32.5169C20.1395 32.6327 20.2526 32.7085 20.3677 32.7716Z" fill="#FF9D00"/>
<path fill-rule="evenodd" clip-rule="evenodd" d="M52.5814 37.4185C52.5814 36.5468 53.2846 35.8394 54.1511 35.8394C55.0177 35.8394 55.7209 36.5468 55.7209 37.4185V46.8933C55.7209 51.2538 52.2067 54.789 47.8721 54.789H31.1279C26.7932 54.789 23.2791 51.2538 23.2791 46.8933V37.4185C23.2791 36.5468 23.9823 35.8394 24.8488 35.8394C25.7153 35.8394 26.4186 36.5468 26.4186 37.4185V46.8933C26.4186 49.5104 28.5263 51.6307 31.1279 51.6307H47.8721C50.4737 51.6307 52.5814 49.5104 52.5814 46.8933V37.4185Z" fill="#FF9D00"/>
<path fill-rule="evenodd" clip-rule="evenodd" d="M38.3907 34.3234C37.7774 33.7086 37.7774 32.7064 38.3907 32.0916C39.0019 31.4746 39.9981 31.4746 40.6093 32.0916L47.9349 39.4608C48.23 39.7556 48.3953 40.1578 48.3953 40.5768V57.4209C48.3953 58.2926 47.6921 59 46.8256 59C45.9591 59 45.2558 58.2926 45.2558 57.4209V41.2316L38.3907 34.3234Z" fill="#FF9D00"/>
</svg>
