<?xml version="1.0" encoding="utf-8"?>
<!-- Generator: Adobe Illustrator 27.7.0, SVG Export Plug-In . SVG Version: 6.00 Build 0)  -->
<svg version="1.1" id="Camada_1" xmlns="http://www.w3.org/2000/svg" xmlns:xlink="http://www.w3.org/1999/xlink" x="0px" y="0px"
	 viewBox="0 0 80 116" style="enable-background:new 0 0 80 116;" xml:space="preserve">
<style type="text/css">
	.st0{fill:#006837;}
	.st1{fill:#FFFFFF;}
</style>
<path class="st0" d="M40,116c0,0-52-54.7-37.4-89.7c14.6-35,60.2-35,74.8,0C92,61.3,40,116,40,116z"/>
<circle class="st1" cx="40" cy="39" r="30"/>
<g>
	<path class="st0" d="M59.6,48.2c-0.3,0.5-0.5,0.9-0.7,1.3c-0.8,1.5-1.7,2.9-2.5,4.4c-0.7,1.2-1.8,1.8-3.2,1.8c-2,0-4,0-5.9,0
		c-0.2,0-0.5,0-0.7,0c-0.3,0-0.5,0.2-0.6,0.5c0,0.3,0,0.6,0,1c0,0.1,0,0.3,0,0.4c0,0.1,0,0.3-0.2,0.3c-0.1,0.1-0.2-0.1-0.3-0.2
		c-0.6-0.6-1.1-1.3-1.7-2c-0.8-1-1.7-2-2.5-3c0,0-0.1-0.1-0.1-0.1c-0.3-0.3-0.3-0.5,0-0.8c0.5-0.6,1-1.2,1.5-1.8
		c0.9-1.1,1.8-2.1,2.8-3.2c0,0,0.1-0.1,0.1-0.1c0.1-0.1,0.2-0.1,0.3-0.1c0.1,0,0.2,0.2,0.2,0.3c0,0.3,0,0.5,0,0.8c0,0.2,0,0.4,0,0.6
		c0,0.4,0.2,0.6,0.7,0.6c3.4,0,6.7,0,10.1,0c0.9,0,1.7-0.2,2.5-0.5C59.3,48.3,59.4,48.3,59.6,48.2z"/>
	<path class="st0" d="M19,44.9c0-0.7,0.2-1.3,0.6-1.9c1-1.7,2-3.5,3-5.2c0.1-0.2,0.2-0.4,0.3-0.6c0.1-0.3,0.1-0.6-0.2-0.7
		c-0.4-0.2-0.7-0.4-1.1-0.6c-0.1-0.1-0.3-0.2-0.3-0.3c0-0.2,0.3-0.2,0.4-0.3c1.7-0.3,3.4-0.6,5.1-0.9c0.5-0.1,0.9-0.2,1.4-0.3
		c0.4-0.1,0.6,0,0.7,0.4c0.7,1.8,1.3,3.7,2,5.5c0.1,0.3,0.2,0.5,0.3,0.8c0,0.1,0.1,0.2-0.1,0.3c-0.1,0.1-0.2,0-0.3,0
		c-0.3-0.2-0.7-0.4-1-0.6c-0.6-0.3-0.8-0.3-1.1,0.3c-0.7,1.3-1.5,2.6-2.2,3.9c-0.9,1.5-1.8,3.1-2.6,4.6c-0.5,0.9-0.8,1.8-0.9,2.9
		c0,0.1,0,0.1,0,0.1c-0.1,0-0.1-0.1-0.1-0.1c-0.4-0.7-0.8-1.4-1.2-2.1c-0.6-1.1-1.2-2.2-1.9-3.2C19.2,46.3,19,45.6,19,44.9z"/>
	<path class="st0" d="M37.6,18.4c0.1-0.1,0.3,0,0.4,0c2.1,0,4.2-0.1,6.3,0c1.2,0,2.2,0.6,2.8,1.7c1.1,1.9,2.1,3.7,3.2,5.6
		c0.1,0.1,0.2,0.3,0.2,0.4c0.2,0.3,0.5,0.4,0.8,0.2c0.4-0.2,0.8-0.5,1.2-0.7c0.2-0.1,0.3-0.1,0.4,0.1c0.1,0.1,0,0.2,0,0.3
		c-0.4,1-0.7,2.1-1.1,3.1c-0.4,1-0.7,2.1-1.1,3.1c-0.2,0.5-0.3,0.6-0.8,0.5c-1.2-0.2-2.5-0.5-3.7-0.7c-0.9-0.2-1.8-0.3-2.7-0.5
		c-0.1,0-0.1,0-0.2,0c-0.1,0-0.2-0.1-0.2-0.2c0-0.1,0.1-0.2,0.2-0.2c0.3-0.2,0.7-0.4,1-0.6c0.1-0.1,0.2-0.1,0.4-0.2
		c0.2-0.2,0.3-0.4,0.2-0.6c-0.1-0.3-0.3-0.5-0.4-0.8c-1.5-2.5-3-5.1-4.4-7.6c-0.6-1-1.3-1.8-2.2-2.5C37.7,18.5,37.7,18.5,37.6,18.4z
		"/>
	<path class="st0" d="M30.1,48.9c1.6,0,3.2,0,4.7,0c0.2,0,0.2,0.1,0.2,0.2c0,2.1,0,4.2,0,6.3c0,0.2,0,0.3-0.3,0.3
		c-2.6,0-5.3,0-7.9,0c-0.6,0-1.1-0.1-1.7-0.3c-0.6-0.3-1-0.7-1.4-1.2c-0.1-0.1-0.1-0.3-0.1-0.4c0.1-1.3,0.2-2.6,0.8-3.8
		c0.1-0.3,0.3-0.5,0.4-0.8c0.1-0.2,0.2-0.2,0.4-0.2c0.7,0,1.4,0,2.1,0C28.4,48.9,29.2,48.9,30.1,48.9z"/>
	<path class="st0" d="M35.5,18.3c0.1,0,0.2,0,0.3,0.1c1.4,0.8,2.7,1.9,3.4,3.4c0.1,0.2,0.1,0.3,0,0.5c-1.6,2.8-3.2,5.5-4.7,8.2
		c-0.1,0.2-0.2,0.2-0.3,0.1c-1.8-1-3.5-2-5.3-3.1c-0.4-0.2-0.4-0.2-0.2-0.6c1.3-2.3,2.6-4.5,3.9-6.8c0.6-1.1,1.5-1.6,2.7-1.8
		C35.4,18.4,35.5,18.4,35.5,18.3z"/>
	<path class="st0" d="M56.1,47.9c-0.4,0.1-0.6-0.1-0.9-0.5c-1-1.7-2-3.5-3-5.2c-0.5-0.9-1-1.8-1.6-2.7c-0.1-0.1-0.1-0.2,0.1-0.3
		c1.2-0.7,2.5-1.4,3.7-2.1c0.6-0.3,1.2-0.7,1.8-1.1c0.1-0.1,0.2-0.1,0.3,0.1c1.4,2.3,2.7,4.7,4.1,7c0.6,1,0.7,2,0.3,3.1
		c-0.1,0.2-0.2,0.4-0.5,0.6C58.9,47.4,57.4,47.9,56.1,47.9z"/>
</g>
</svg>
