<svg width="80" height="116" viewBox="0 0 80 116" fill="none" xmlns="http://www.w3.org/2000/svg">
<g clip-path="url(#clip0_136_24)">
<path d="M40 116C40 116 -12 61.3 2.60001 26.3C17.2 -8.69995 62.8 -8.69995 77.4 26.3C92 61.3 40 116 40 116Z" fill="#64A9D5"/>
<path d="M40 69C56.5685 69 70 55.5685 70 39C70 22.4315 56.5685 9 40 9C23.4315 9 10 22.4315 10 39C10 55.5685 23.4315 69 40 69Z" fill="white"/>
<path d="M17.908 53.5916C17.5981 53.7422 17.3405 54.0208 17.1792 54.3796C17.018 54.7383 16.9632 55.1549 17.0243 55.5579C17.0854 55.9608 17.2586 56.3251 17.5141 56.5882C17.7696 56.8514 18.0916 56.9969 18.4248 57H55.0322C55.3072 56.9991 55.5763 56.901 55.8074 56.7174C60.3295 53.1236 62.3967 49.415 61.9373 45.6887C61.3415 40.8322 56.6328 36.8587 47.9332 33.8388C39.7504 31.0044 39.4059 28.6556 39.3915 28.3907C39.3413 27.4282 41.0352 26.0242 42.155 25.3885C42.4774 25.218 42.7379 24.9081 42.8873 24.5174C43.0366 24.1266 43.0644 23.6822 42.9654 23.2679C42.8664 22.8537 42.6475 22.4985 42.35 22.2693C42.0526 22.0401 41.6972 21.953 41.3511 22.0242C38.8101 22.5894 26.0478 25.6887 24.3825 31.2693C24.1708 32.004 24.1257 32.7958 24.2522 33.5596C24.3786 34.3235 24.6718 35.0305 25.1003 35.6048C26.1474 37.1109 27.2795 38.5243 28.4883 39.8344C30.0315 41.6004 31.4886 43.2251 31.3235 44.3201C30.9862 46.4393 26.4928 49.5475 17.908 53.5916ZM47.2369 43.6755H52.405C52.7858 43.6755 53.1509 43.8615 53.4202 44.1927C53.6894 44.5239 53.8406 44.9731 53.8406 45.4415C53.8406 45.9099 53.6894 46.3591 53.4202 46.6902C53.1509 47.0214 52.7858 47.2075 52.405 47.2075H47.2369C46.8562 47.2075 46.4911 47.0214 46.2218 46.6902C45.9526 46.3591 45.8014 45.9099 45.8014 45.4415C45.8014 44.9731 45.9526 44.5239 46.2218 44.1927C46.4911 43.8615 46.8562 43.6755 47.2369 43.6755ZM46.4761 50.4481C46.4761 50.9165 46.3248 51.3657 46.0556 51.6969C45.7864 52.0281 45.4213 52.2141 45.0405 52.2141H35.8671C35.4864 52.2141 35.1213 52.0281 34.852 51.6969C34.5828 51.3657 34.4316 50.9165 34.4316 50.4481C34.4316 49.9797 34.5828 49.5306 34.852 49.1994C35.1213 48.8682 35.4864 48.6821 35.8671 48.6821H45.0405C45.4213 48.6821 45.7864 48.8682 46.0556 49.1994C46.3248 49.5306 46.4761 49.9797 46.4761 50.4481ZM41.1644 39.3841C41.5452 39.3841 41.9103 39.5701 42.1796 39.9013C42.4488 40.2325 42.6 40.6817 42.6 41.1501C42.6 41.6185 42.4488 42.0677 42.1796 42.3988C41.9103 42.73 41.5452 42.9161 41.1644 42.9161H37.03C36.6492 42.9161 36.2841 42.73 36.0149 42.3988C35.7456 42.0677 35.5944 41.6185 35.5944 41.1501C35.5944 40.6817 35.7456 40.2325 36.0149 39.9013C36.2841 39.5701 36.6492 39.3841 37.03 39.3841H41.1644ZM31.1656 35.2693C31.1656 34.8009 31.3169 34.3517 31.5861 34.0205C31.8553 33.6893 32.2205 33.5033 32.6012 33.5033H36.1902C36.5709 33.5033 36.936 33.6893 37.2053 34.0205C37.4745 34.3517 37.6257 34.8009 37.6257 35.2693C37.6257 35.7377 37.4745 36.1869 37.2053 36.518C36.936 36.8492 36.5709 37.0353 36.1902 37.0353H32.6012C32.2205 37.0353 31.8553 36.8492 31.5861 36.518C31.3169 36.1869 31.1656 35.7377 31.1656 35.2693Z" fill="#64A9D5"/>
</g>
<defs>
<clipPath id="clip0_136_24">
<rect width="80" height="116" fill="white"/>
</clipPath>
</defs>
</svg>
