<svg width="80" height="116" viewBox="0 0 80 116" fill="none" xmlns="http://www.w3.org/2000/svg">
<path d="M40 116C40 116 -12.0226 61.3171 2.58776 26.2787C17.1981 -8.75958 62.8018 -8.75958 77.4122 26.2787C92.0226 61.3171 40 116 40 116Z" fill="#396C88"/>
<circle cx="40" cy="39" r="30" fill="white"/>
<path d="M39.9999 31.5753C35.9333 31.5753 33.3333 32.8462 33.3333 33.7826C33.3333 34.6522 35.9333 35.99 39.9999 35.99C44.0666 35.99 46.6666 34.7191 46.6666 33.7826C46.6666 32.8462 44.0666 31.5753 39.9999 31.5753Z" fill="#396C88"/>
<path d="M24.8667 19C21.7333 19 20 20.0033 20 20.5385C20 21.0736 21.7333 22.1438 24.8667 22.1438C28 22.1438 29.7333 21.0736 29.7333 20.5385C29.7333 20.0033 28 19 24.8667 19Z" fill="#396C88"/>
<path d="M24.8667 23.4817C23.0667 23.4817 21.2 23.1472 20 22.4114V24.5519C20 25.087 21.7333 26.1573 24.8667 26.1573C28 26.1573 29.7333 25.087 29.7333 24.5519V22.4114C28.5333 23.1472 26.6667 23.4817 24.8667 23.4817Z" fill="#396C88"/>
<path d="M24.8667 30.2375C28 30.2375 29.7333 29.1673 29.7333 28.6322V26.4248C28.5333 27.0937 26.7333 27.495 24.8667 27.495C23 27.495 21.2 27.1606 20 26.4248V28.6322C20 29.1673 21.7333 30.2375 24.8667 30.2375Z" fill="#396C88"/>
<path d="M39.9999 37.3278C37.4666 37.3278 34.8666 36.7927 33.3333 35.7894V38.9332C33.3333 39.8027 35.9333 41.1405 39.9999 41.1405C44.0666 41.1405 46.6666 39.8696 46.6666 38.9332V35.7894C45.1333 36.7927 42.5333 37.3278 39.9999 37.3278ZM34.6666 39.067C34.4666 39.067 34.2666 38.7994 34.2666 38.5318C34.2666 38.2643 34.4666 37.9967 34.6666 37.9967C34.8666 37.9967 35.0666 38.2643 35.0666 38.5318C35.0666 38.7994 34.9333 39.067 34.6666 39.067ZM36.1333 39.4683C35.9333 39.4683 35.7333 39.2007 35.7333 38.9332C35.7333 38.6656 35.9333 38.3981 36.1333 38.3981C36.3333 38.3981 36.5333 38.6656 36.5333 38.9332C36.5333 39.2007 36.3999 39.4683 36.1333 39.4683ZM37.6666 39.8027C37.4666 39.8027 37.2666 39.5352 37.2666 39.2676C37.2666 39.0001 37.4666 38.7325 37.6666 38.7325C37.8666 38.7325 38.0666 39.0001 38.0666 39.2676C38.0666 39.5352 37.8666 39.8027 37.6666 39.8027Z" fill="#396C88"/>
<path d="M39.9999 42.4783C37.4666 42.4783 34.8666 41.9432 33.3333 40.9398V44.0836C33.3333 44.9532 35.9333 46.291 39.9999 46.291C44.0666 46.291 46.6666 45.0201 46.6666 44.0836V40.9398C45.1333 41.9432 42.5333 42.4783 39.9999 42.4783ZM34.6666 44.2174C34.4666 44.2174 34.2666 43.9499 34.2666 43.6823C34.2666 43.4147 34.4666 43.1472 34.6666 43.1472C34.8666 43.1472 35.0666 43.4147 35.0666 43.6823C35.0666 43.9499 34.9333 44.2174 34.6666 44.2174ZM36.1333 44.6187C35.9333 44.6187 35.7333 44.3512 35.7333 44.0836C35.7333 43.8161 35.9333 43.5485 36.1333 43.5485C36.3333 43.5485 36.5333 43.8161 36.5333 44.0836C36.5333 44.3512 36.3999 44.6187 36.1333 44.6187ZM37.6666 44.9532C37.4666 44.9532 37.2666 44.6856 37.2666 44.4181C37.2666 44.1505 37.4666 43.883 37.6666 43.883C37.8666 43.883 38.0666 44.1505 38.0666 44.4181C38.0666 44.6856 37.8666 44.9532 37.6666 44.9532Z" fill="#396C88"/>
<path d="M24.8667 52.2442C23.0667 52.2442 21.2 51.9097 20 51.174V53.3144C20 53.8495 21.7333 54.9198 24.8667 54.9198C28 54.9198 29.7333 53.8495 29.7333 53.3144V51.174C28.5333 51.9097 26.6667 52.2442 24.8667 52.2442Z" fill="#396C88"/>
<path d="M24.8667 47.7626C21.7333 47.7626 20 48.8328 20 49.3679C20 49.903 21.7333 50.9733 24.8667 50.9733C28 50.9733 29.7333 49.903 29.7333 49.3679C29.7333 48.8328 28 47.7626 24.8667 47.7626Z" fill="#396C88"/>
<path d="M24.8667 59.0001C28 59.0001 29.7333 57.9299 29.7333 57.3947V55.1874C28.5333 55.8563 26.7333 56.2576 24.8667 56.2576C23 56.2576 21.2 55.9232 20 55.1874V57.3947C20 57.9967 21.7333 59.0001 24.8667 59.0001Z" fill="#396C88"/>
<path d="M55.1334 54.9867C58.2667 54.9867 60.0001 53.9164 60.0001 53.3813V51.174C58.8001 51.8428 57.0001 52.2442 55.1334 52.2442C53.2667 52.2442 51.4667 51.9097 50.2667 51.174V53.3813C50.2667 53.9164 52.0001 54.9867 55.1334 54.9867Z" fill="#396C88"/>
<path d="M55.1334 59.0001C58.2667 59.0001 60.0001 57.9299 60.0001 57.3947V55.1874C58.8001 55.8563 57.0001 56.2576 55.1334 56.2576C53.2667 56.2576 51.4667 55.9232 50.2667 55.1874V57.3947C50.2667 57.9967 52.0001 59.0001 55.1334 59.0001Z" fill="#396C88"/>
<path d="M55.1334 47.7626C52.0001 47.7626 50.2667 48.8328 50.2667 49.3679C50.2667 49.903 52.0001 50.9733 55.1334 50.9733C58.2667 50.9733 60.0001 49.903 60.0001 49.3679C60.0001 48.8328 58.2667 47.7626 55.1334 47.7626Z" fill="#396C88"/>
<path d="M55.1334 27.495C53.3334 27.495 51.4667 27.1606 50.2667 26.4248V28.5653C50.2667 29.1004 52.0001 30.1706 55.1334 30.1706C58.2667 30.1706 60.0001 29.1004 60.0001 28.5653V26.4248C58.8001 27.1606 56.9334 27.495 55.1334 27.495Z" fill="#396C88"/>
<path d="M55.1334 19C52.0001 19 50.2667 20.0702 50.2667 20.6054C50.2667 21.1405 52.0001 22.2107 55.1334 22.2107C58.2667 22.2107 60.0001 21.1405 60.0001 20.6054C60.0001 20.0702 58.2667 19 55.1334 19Z" fill="#396C88"/>
<path d="M55.1334 23.4817C53.3334 23.4817 51.4667 23.1472 50.2667 22.4114V24.5519C50.2667 25.087 52.0001 26.1573 55.1334 26.1573C58.2667 26.1573 60.0001 25.087 60.0001 24.5519V22.4114C58.8001 23.1472 56.9334 23.4817 55.1334 23.4817Z" fill="#396C88"/>
<path d="M47.7334 32.8461L50.2 30.505C49.8 30.2374 49.4 29.9699 49.2 29.5685L46.8 31.8428C47.2667 32.1772 47.5334 32.5117 47.7334 32.8461Z" fill="#396C88"/>
<path d="M33.1333 31.8428L30.7333 29.5685C30.5333 29.903 30.1999 30.2374 29.7333 30.505L32.1999 32.8461C32.4666 32.5117 32.7333 32.1772 33.1333 31.8428Z" fill="#396C88"/>
<path d="M47.3333 45.5552C47.0666 45.8227 46.6666 46.0903 46.2 46.3579L48.9333 49.0334C49 48.6321 49.2666 48.2308 49.6666 47.8963L47.3333 45.5552Z" fill="#396C88"/>
<path d="M32.6667 45.5552L30.2667 47.8963C30.6667 48.2308 30.9334 48.6321 31.0001 49.0334L33.7334 46.3579C33.3334 46.0903 32.9334 45.8227 32.6667 45.5552Z" fill="#396C88"/>
</svg>
