<?xml version="1.0" encoding="utf-8"?>
<!-- Generator: Adobe Illustrator 27.7.0, SVG Export Plug-In . SVG Version: 6.00 Build 0)  -->
<svg version="1.1" id="Camada_1" xmlns="http://www.w3.org/2000/svg" xmlns:xlink="http://www.w3.org/1999/xlink" x="0px" y="0px"
	 viewBox="0 0 84 118" style="enable-background:new 0 0 84 118;" xml:space="preserve">
<style type="text/css">
	.st0{fill:#6A1B9A;}
	.st1{fill:#FFFFFF;}
</style>
<path class="st0" d="M40.7,117c0,0-50.8-55.9-35.3-90.6c15.4-34.7,61-33.6,74.8,1.7C93.9,63.5,40.7,117,40.7,117z"/>
<circle class="st1" cx="42.4" cy="40" r="30"/>
<g>
	<path class="st0" d="M39.3,24c4.4,0,8.9,0,13.3,0c0.6,0,1,0.2,1.4,0.6c1.6,1.6,3.2,3.2,4.7,4.8c0.2,0.2,0.3,0.3,0.5,0.5
		c0.4,0.5,0.4,1,0,1.4c-0.1,0.1-0.2,0.2-0.3,0.3c-1.6,1.6-3.3,3.3-4.9,4.9c-0.4,0.4-0.9,0.6-1.4,0.6c-3.1,0-6.1,0-9.2,0
		c-0.1,0-0.2,0-0.2,0.2c0,1,0,2,0,2.9c0,0.2,0.1,0.2,0.2,0.2c3.8,0,7.5,0,11.3,0c1.2,0,2.4,0,3.6,0c0.9,0,1.3,0.4,1.3,1.3
		c0,3.5,0,7,0,10.5c0,0.8-0.4,1.3-1.3,1.3c-5,0-9.9,0-14.9,0c-0.2,0-0.2,0.1-0.2,0.3c0,2.8,0,14.6,0,17.4c0,0.4-0.2,0.8-0.5,1.1
		c-0.4,0.2-0.7,0.2-1.1,0c-0.4-0.2-0.6-0.6-0.6-1c0-1.6,0-12.3,0-13.9c0-1.2,0-2.3,0-3.5c0-0.2,0-0.2-0.2-0.2c-3.1,0-6.2,0-9.3,0
		c-0.5,0-0.8-0.2-1.2-0.5c-1.7-1.7-3.4-3.4-5.2-5.1c-0.6-0.6-0.6-1.2,0-1.8c1.8-1.8,3.5-3.5,5.3-5.3c0.3-0.3,0.6-0.4,1.1-0.4
		c2,0,4.1,0,6.1,0c1.1,0,2.1,0,3.2,0c0.3,0,0.3-0.1,0.3-0.3c0-0.9,0-1.8,0-2.6c0-0.3,0-0.3-0.3-0.3c-1.9,0-3.9,0-5.8,0
		c-3,0-6,0-8.9,0c-0.9,0-1.4-0.4-1.4-1.3c0-3.5,0-6.9,0-10.4c0-1,0.4-1.4,1.4-1.4C30.4,24,34.8,24,39.3,24L39.3,24z"/>
</g>
</svg>
