<svg width="80" height="116" viewBox="0 0 80 116" fill="none" xmlns="http://www.w3.org/2000/svg">
<path d="M40 116C40 116 -12.0226 61.3171 2.58776 26.2787C17.1981 -8.75958 62.8018 -8.75958 77.4122 26.2787C92.0226 61.3171 40 116 40 116Z" fill="#DD4C4C"/>
<circle cx="40" cy="39" r="30" fill="white"/>
<path d="M29.3535 24.7143C23.6856 28.5184 20.7433 30.5429 20.5497 30.7633C19.7987 31.6286 19.8374 33.1551 20.6272 33.9633C20.782 34.1184 24.1038 36.3878 27.9985 39C32.1332 41.7673 35.1916 43.8735 35.3465 44.0449C36.1518 44.9755 36.1285 46.502 35.2923 47.351C35.1374 47.5061 31.8157 49.7755 27.921 52.3878C24.0263 55 20.7433 57.2286 20.6349 57.3347C20.3639 57.6122 20.0852 58.2163 20.0387 58.6408L20 59H31.0259H42.0519L50.5614 53.2857C55.2458 50.151 59.1715 47.4735 59.2954 47.351C59.427 47.2286 59.6206 46.9347 59.729 46.7143C59.8993 46.3714 59.9381 46.2 59.9381 45.6531C59.9381 45.1061 59.8993 44.9347 59.729 44.5918C59.6206 44.3633 59.427 44.0857 59.3031 43.9633C59.187 43.849 55.8962 41.6122 52.0015 38.9918C48.1069 36.3796 44.8238 34.151 44.7154 34.0449C44.5993 33.9388 44.4057 33.6531 44.2896 33.4245C44.0883 33.049 44.065 32.9184 44.065 32.3061C44.065 31.6939 44.0883 31.5633 44.2896 31.1878C44.4057 30.9592 44.5993 30.6735 44.7154 30.5673C44.8238 30.4612 48.0914 28.249 51.9628 25.6531C55.842 23.0571 59.125 20.8204 59.2644 20.6816C59.5819 20.3714 59.8761 19.7837 59.9458 19.3347L60 19H48.9353H37.8707L29.3535 24.7143Z" fill="#DD4C4C"/>
</svg>
