<?xml version="1.0" encoding="utf-8"?>
<!-- Generator: Adobe Illustrator 27.7.0, SVG Export Plug-In . SVG Version: 6.00 Build 0)  -->
<svg version="1.1" id="Camada_1" xmlns="http://www.w3.org/2000/svg" xmlns:xlink="http://www.w3.org/1999/xlink" x="0px" y="0px"
	 viewBox="0 0 80 116" style="enable-background:new 0 0 80 116;" xml:space="preserve">
<style type="text/css">
	.st0{fill:#00A99D;}
	.st1{fill:#FFFFFF;}
</style>
<path class="st0" d="M40,116c0,0-52-54.7-37.4-89.7s60.2-35,74.8,0S40,116,40,116z"/>
<circle class="st1" cx="40" cy="39" r="30"/>
<g>
	<path class="st0" d="M62.6,44.2c-0.1,2.9-1.2,5.1-3.4,6.7c-1.2,0.8-2.6,1.3-4,1.4h-0.1c0-0.1,0-0.1,0-0.2c0.8-1.4,1.7-2.8,2.5-4.3
		c0.1-0.1,0.1-0.2,0.2-0.4c0.5-1,0.1-2.2-0.8-2.7c-1-0.5-2.2-0.2-2.7,0.8c-1.2,2.1-2.4,4.2-3.6,6.4c-0.2,0.3-0.4,0.4-0.7,0.4
		s-0.6,0-0.8,0c-0.1,0-0.2,0.1-0.2,0s0-0.1,0.1-0.2c0.3-0.6,0.7-1.1,1-1.7c0.5-0.9,1.1-1.9,1.6-2.8c0.8-1.4-0.2-2.8-1.2-3
		c-0.9-0.2-1.8,0.1-2.3,1c-1.1,1.9-2.2,3.8-3.3,5.7c-0.2,0.3-0.3,0.6-0.5,0.9c-0.1,0.2-0.2,0.2-0.4,0.2c-0.3,0-0.7,0-1,0
		c-0.1,0-0.2,0.1-0.2,0s0-0.2,0.1-0.2c0.4-0.6,0.7-1.3,1.1-1.9c0.5-0.9,1-1.7,1.5-2.6c0.5-0.8,0.3-1.8-0.3-2.4
		c-0.9-0.9-2.5-0.7-3.1,0.4c-1.1,1.9-2.2,3.9-3.4,5.8c-0.1,0.3-0.3,0.5-0.4,0.8c-0.1,0.3-0.3,0.3-0.6,0.3c-1.2-0.1-2.3-0.4-3.3-1
		c-2.2-1.3-3.5-3.2-3.9-5.7c-0.7-4.1,2.3-8.2,6.7-8.8c0.2,0,0.4-0.1,0.5-0.3c1.2-2.4,3.1-4.2,5.7-5.1c3.9-1.3,7.4-0.5,10.3,2.4
		c0.8,0.8,1.5,1.7,1.9,2.8c0.1,0.2,0.3,0.2,0.4,0.2c0.8,0.1,1.6,0.3,2.3,0.7C60.9,38.8,62.4,41.2,62.6,44.2z"/>
	<path class="st0" d="M33.8,28.3c2.5,0.1,4.5,1,5.9,3c0.1,0.2,0.1,0.2-0.1,0.3c-1.3,0.9-2.3,2.1-3.1,3.5c-0.1,0.2-0.2,0.3-0.4,0.3
		c-3.3,0.7-5.5,2.7-6.7,5.8c-0.1,0.3-0.3,0.1-0.3,0c-1.1-1-1.9-2.2-2.3-3.7c-0.6-2.2-0.2-4.2,1.1-6C29.3,29.4,31.4,28.5,33.8,28.3z"
		/>
	<path class="st0" d="M49.3,58.7c-0.5,0-0.8-0.4-0.7-0.8c0.1-0.4,0.4-0.7,0.6-1.1c1.6-2.7,3.1-5.4,4.7-8.1c0.5-0.8,1-1.7,1.4-2.5
		c0.2-0.3,0.3-0.5,0.7-0.4s0.7,0.5,0.5,0.9c-0.3,0.7-0.7,1.3-1,1.9c-1.9,3.2-3.7,6.4-5.6,9.6C49.8,58.5,49.6,58.7,49.3,58.7z"/>
	<path class="st0" d="M36.9,58.7c-0.5,0-0.8-0.5-0.6-0.9s0.5-0.8,0.7-1.3c1.9-3.4,3.9-6.7,5.8-10.1c0.1-0.1,0.2-0.3,0.3-0.4
		c0.2-0.2,0.5-0.3,0.8-0.1s0.4,0.5,0.3,0.8c-0.1,0.3-0.3,0.6-0.5,1c-1.9,3.4-3.9,6.8-5.8,10.1c-0.1,0.2-0.3,0.4-0.4,0.6
		C37.3,58.6,37.1,58.7,36.9,58.7z"/>
	<path class="st0" d="M50.4,46.4c0,0.2-0.1,0.4-0.2,0.6c-0.9,1.5-1.7,3-2.6,4.6c-1.3,2.2-2.5,4.4-3.8,6.6c-0.1,0.1-0.2,0.3-0.3,0.4
		c-0.2,0.2-0.5,0.2-0.8,0.1c-0.2-0.2-0.4-0.5-0.3-0.7c0.1-0.2,0.1-0.3,0.2-0.4c2.1-3.7,4.3-7.4,6.4-11.1c0.3-0.4,0.5-0.6,0.9-0.5
		C50.2,45.9,50.4,46.2,50.4,46.4z"/>
	<path class="st0" d="M45,23.9c0.3,0,0.5,0.1,0.6,0.3c0.1,0.2,0.1,0.4,0,0.7c-0.1,0.1-0.1,0.2-0.2,0.2c-0.9,0.9-1.8,1.8-2.7,2.7
		c-0.4,0.4-0.7,0.4-1,0.1s-0.3-0.7,0-1c0.4-0.4,0.8-0.8,1.3-1.3s1.1-1.1,1.6-1.6C44.6,24,44.8,23.9,45,23.9z"/>
	<path class="st0" d="M22.7,47.5c-0.2,0-0.4-0.1-0.6-0.3c-0.1-0.2-0.1-0.5,0-0.7c0.1-0.1,0.2-0.2,0.2-0.3c0.9-0.9,1.7-1.7,2.6-2.6
		c0.1-0.1,0.2-0.2,0.3-0.3c0.3-0.2,0.6-0.2,0.8,0.1c0.2,0.2,0.3,0.6,0.1,0.8c-0.2,0.3-0.5,0.5-0.7,0.7c-0.7,0.7-1.5,1.5-2.2,2.2
		C23.2,47.3,23,47.5,22.7,47.5z"/>
	<path class="st0" d="M34.5,22.1c0,0.6,0,1.2,0,1.9c0,0.1,0,0.3-0.1,0.4c-0.1,0.3-0.4,0.5-0.7,0.4c-0.3,0-0.5-0.2-0.5-0.5
		c0-0.1,0-0.3,0-0.4c0-1.2,0-2.5,0-3.7c0-0.1,0-0.2,0-0.3c0-0.3,0.3-0.5,0.6-0.6c0.3,0,0.6,0.2,0.7,0.5c0.1,0.2,0.1,0.4,0.1,0.6
		C34.5,20.9,34.5,21.5,34.5,22.1L34.5,22.1z"/>
	<path class="st0" d="M20.2,36.3c-0.6,0-1.2,0-1.8,0c-0.1,0-0.3,0-0.4,0c-0.3-0.1-0.5-0.3-0.5-0.6s0.2-0.5,0.5-0.6
		c0.2,0,0.4,0,0.5,0c1.2,0,2.3,0,3.5,0c0.1,0,0.3,0,0.4,0c0.3,0.1,0.5,0.3,0.5,0.6s-0.2,0.6-0.5,0.7c-0.2,0.1-0.4,0.1-0.6,0.1
		C21.4,36.4,20.8,36.4,20.2,36.3C20.2,36.4,20.2,36.4,20.2,36.3z"/>
	<path class="st0" d="M26.3,27.5c0,0.3-0.1,0.5-0.4,0.6s-0.5,0.1-0.7-0.1c-0.4-0.4-0.8-0.8-1.2-1.2c-0.5-0.6-1.1-1.1-1.6-1.7
		c-0.1-0.1-0.2-0.2-0.3-0.4c-0.1-0.3,0.1-0.5,0.3-0.7c0.2-0.2,0.5-0.1,0.7,0c0.3,0.2,0.5,0.5,0.8,0.8c0.7,0.7,1.4,1.4,2.2,2.2
		C26.2,27.1,26.3,27.3,26.3,27.5z"/>
</g>
</svg>
