<?xml version="1.0" encoding="utf-8"?>
<!-- Generator: Adobe Illustrator 27.7.0, SVG Export Plug-In . SVG Version: 6.00 Build 0)  -->
<svg version="1.1" id="Camada_1" xmlns="http://www.w3.org/2000/svg" xmlns:xlink="http://www.w3.org/1999/xlink" x="0px" y="0px"
	 viewBox="0 0 80 116" style="enable-background:new 0 0 80 116;" xml:space="preserve">
<style type="text/css">
	.st0{fill:#2E3192;}
	.st1{fill:#FFFFFF;}
</style>
<path class="st0" d="M40,116c0,0-52-54.7-37.4-89.7s60.2-35,74.8,0S40,116,40,116z"/>
<circle class="st1" cx="40" cy="39" r="30"/>
<g>
	<path class="st0" d="M47.7,44.1c-1.4,0-2.7,0-4.1,0c-0.2,0-0.2-0.1-0.2-0.2c0-0.6,0-1.1,0-1.7c0-0.2,0.1-0.2,0.2-0.2
		c0.2,0,0.4,0,0.6,0c0.2,0,0.3,0,0.3-0.2c0-1.4,0-2.8,0-4.2c0-0.9-0.5-1.7-1.3-1.9c-0.6-0.2-1.2-0.1-1.9-0.1c-0.1,0-0.2,0.1-0.3,0.2
		c-1,1.2-2.2,2-3.8,2.3c-2.4,0.4-4.3-0.4-5.7-2.3c-0.1-0.2-0.3-0.2-0.5-0.2c-1.2,0-2.5,0-3.7,0c-0.2,0-0.3,0-0.2,0.2
		c0,0.2,0,0.4,0,0.6c0,0.2,0,0.2-0.2,0.2c-0.6,0-1.1,0-1.7,0c-0.2,0-0.3-0.1-0.3-0.3c0-2.6,0-5.1,0-7.7c0-0.7,0-0.7,0.7-0.7
		c0.4,0,0.9,0,1.3,0c0.1,0,0.2,0.1,0.2,0.2c0,0.2,0,0.4,0,0.7c0,0.1,0,0.2,0.2,0.2c1.3,0,2.6,0,3.8,0c0.1,0,0.2-0.1,0.3-0.2
		c0.7-1.1,1.7-1.7,2.9-2.2c0.1-0.1,0.2-0.1,0.2-0.3c0-0.5,0-1.1,0-1.6c0-0.1,0-0.2-0.1-0.3c-0.1-0.1-0.3-0.2-0.3-0.4
		c-0.2-0.3-0.4-0.4-0.7-0.3c-1.3,0-2.5,0-3.8,0c-0.5,0-0.9-0.2-1.2-0.6c-0.3-0.4-0.3-0.9,0-1.3c0.3-0.5,0.7-0.7,1.2-0.7
		c1.3,0,2.7,0,4,0c0.2,0,0.3-0.1,0.5-0.2c1.1-1.7,3.4-1.7,4.6-0.1c0.2,0.2,0.3,0.3,0.6,0.3c1.2,0,2.4,0,3.6,0c0.2,0,0.3,0,0.5,0
		c0.7,0.1,1.2,0.6,1.2,1.3c0,0.7-0.6,1.3-1.3,1.3c-1,0-1.9,0-2.9,0c-0.4,0-0.8,0-1.2,0c-0.1,0-0.3,0-0.3,0.2
		c-0.1,0.1-0.1,0.2-0.2,0.3c-0.3,0.3-0.4,0.6-0.4,1s0,0.8,0,1.2c0,0.2,0.1,0.2,0.2,0.3c1.2,0.4,2.2,1.1,2.9,2.2
		c0.1,0.1,0.2,0.2,0.4,0.2c0.6,0,1.2,0,1.8,0c2.6,0.3,4.6,1.4,6.1,3.6c1.1,1.5,1.5,3.2,1.6,5c0,1.4,0,2.8,0,4.2
		c0,0.2,0.1,0.2,0.2,0.2c0.2,0,0.4,0,0.6,0c0.2,0,0.2,0.1,0.2,0.2c0,0.6,0,1.1,0,1.7c0,0.2-0.1,0.3-0.3,0.3
		C50.4,44.1,49,44.1,47.7,44.1L47.7,44.1z"/>
	<path class="st0" d="M10,35.4c-1.5,0-3,0-4.6,0c-0.2,0-0.3-0.1-0.3-0.3c0-2,0-4,0-5.9c0-0.2,0.1-0.3,0.3-0.3c3.1,0,12.9,0,15.9,0
		c0.2,0,0.3-0.1,0.3-0.3c0-0.2,0-0.4,0-0.6s0-0.2,0.2-0.2c0.6,0,1.2,0,1.8,0c0.2,0,0.2,0.2,0.2,0.3c0,1.9,0,3.7,0,5.6
		c0,0.8,0,1.6,0,2.5c0,0.2,0,0.3-0.3,0.3c-0.5,0-1.1,0-1.6,0c-0.2,0-0.3-0.1-0.3-0.3s0-0.4,0-0.5c0-0.2-0.1-0.3-0.3-0.3
		C19.8,35.4,11.5,35.4,10,35.4L10,35.4z"/>
	<path class="st0" d="M47.4,54.4c-1.3-0.1-2.3-0.8-2.6-1.9c-0.2-0.8,0-1.5,0.4-2.2c0.6-1,1.3-1.9,1.8-2.9c0.1-0.2,0.2-0.4,0.3-0.6
		c0.1-0.1,0.1-0.2,0.2,0c0.6,1.2,1.3,2.3,2,3.4c0.4,0.6,0.7,1.3,0.6,2c-0.1,1.2-1.2,2.1-2.3,2.3C47.6,54.4,47.5,54.4,47.4,54.4z
		 M46.2,49.9c-0.4,0.4-0.7,0.9-0.8,1.5c-0.2,1.2,0.7,2.4,1.9,2.4c0.4,0,0.5-0.1,0.6-0.4c0.1-0.3,0-0.4-0.4-0.6
		c-0.3-0.1-0.6-0.2-0.9-0.4c-0.5-0.2-0.7-0.6-0.7-1.1c0-0.2,0-0.4,0.1-0.6C46,50.4,46.1,50.1,46.2,49.9z"/>
	<path class="st0" d="M49.1,57.1c0.5,1,1.2,1.9,1.8,2.9c0.4,0.6,0.6,1.2,0.4,1.9c-0.2,1-1.3,1.8-2.3,1.7c-1.3-0.1-2.1-0.9-2.1-2.1
		c0-0.5,0.1-0.9,0.4-1.3c0.5-0.8,1.1-1.7,1.6-2.5C48.9,57.5,49,57.3,49.1,57.1z M48,59.9c-0.3,0.3-0.5,0.7-0.6,1.2
		c-0.2,1,0.6,2,1.7,2c0.2,0,0.3-0.1,0.4-0.3c0-0.2,0-0.4-0.2-0.5s-0.5-0.2-0.7-0.3c-0.5-0.2-0.8-0.7-0.7-1.3
		C47.9,60.4,47.9,60.1,48,59.9z"/>
	<path class="st0" d="M43.4,55c0.2,0.1,0.2,0.2,0.2,0.4c0.3,0.6,0.6,1.1,1,1.6c0.1,0.2,0.2,0.3,0.3,0.5c0.4,0.8,0.4,1.5-0.1,2
		c-0.5,0.6-1.3,0.8-2.1,0.5c-1-0.4-1.4-1.5-0.8-2.5c0.4-0.7,0.8-1.3,1.2-1.9C43.2,55.3,43.3,55.2,43.4,55z M42.5,57.2
		c-0.2,0.2-0.4,0.5-0.5,0.8c-0.2,0.8,0.4,1.6,1.2,1.7c0.2,0,0.4,0,0.5-0.3c0.1-0.2-0.1-0.3-0.3-0.4c-0.1-0.1-0.3-0.1-0.4-0.2
		c-0.6-0.2-0.7-0.5-0.6-1.1C42.4,57.5,42.5,57.3,42.5,57.2z"/>
</g>
</svg>
