<?xml version="1.0" encoding="utf-8"?>
<!-- Generator: Adobe Illustrator 27.7.0, SVG Export Plug-In . SVG Version: 6.00 Build 0)  -->
<svg version="1.1" id="Camada_1" xmlns="http://www.w3.org/2000/svg" xmlns:xlink="http://www.w3.org/1999/xlink" x="0px" y="0px"
	 viewBox="0 0 80 116" style="enable-background:new 0 0 80 116;" xml:space="preserve">
<style type="text/css">
	.st0{fill:#00A9CA;}
	.st1{fill:#FFFFFF;}
	.st2{fill:#00A9CA;stroke:#FFFFFF;stroke-miterlimit:10;}
</style>
<path class="st0" d="M40,116c0,0-52-54.7-37.4-89.7s60.2-35,74.8,0S40,116,40,116z"/>
<circle class="st1" cx="40" cy="39" r="30"/>
<g>
	<ellipse class="st0" cx="39.7" cy="24.4" rx="18.8" ry="5.6"/>
	<path class="st0" d="M39.7,31.9c-10.4,0-18.8-2.4-18.8-5.2v14c0,2.8,8.4,5.2,18.8,5.2s18.8-2.4,18.8-5.2v-14
		C58.5,29.6,50,31.9,39.7,31.9z"/>
	<path class="st0" d="M39.7,47.8c-10.4,0-18.8-2.4-18.8-5.2v14c0,2.8,8.4,5.2,18.8,5.2s18.8-2.4,18.8-5.2v-14
		C58.5,45.5,50,47.8,39.7,47.8z"/>
</g>
<g>
	<circle class="st2" cx="54.6" cy="43.2" r="8.3"/>
	<g>
		<path class="st1" d="M54.2,40.6c0-0.6,0-1.2,0-1.8c0-0.1,0-0.1-0.1-0.2c-0.3-0.3-0.5-0.5-0.8-0.8c-0.1-0.1-0.1-0.1,0-0.2
			c0.2-0.1,0.3-0.3,0.4-0.4c0.1-0.1,0.1-0.1,0.2,0c0.2,0.2,0.4,0.4,0.6,0.6c0.1,0.1,0.1,0.1,0.2,0c0.2-0.2,0.4-0.4,0.6-0.6
			c0.1-0.1,0.1,0,0.1,0c0.2,0.2,0.3,0.3,0.5,0.5c0.1,0.1,0.1,0.1,0,0.1c-0.3,0.3-0.5,0.5-0.8,0.8c-0.1,0.1-0.1,0.1-0.1,0.2
			c0,1.2,0,2.4,0,3.5c0,0,0,0.1,0,0.1c0,0,0,0,0.1,0c1-0.6,2-1.2,3-1.7c0.1-0.1,0.2-0.2,0.3-0.3c0.1-0.3,0.2-0.6,0.3-1
			c0-0.1,0.1-0.1,0.2-0.1c0.2,0.1,0.4,0.1,0.6,0.2c0.1,0,0.1,0.1,0.1,0.1c-0.1,0.3-0.2,0.6-0.2,0.8c0,0.1,0,0.1,0.1,0.1
			c0.3,0.1,0.6,0.1,0.8,0.2c0.1,0,0.1,0.1,0.1,0.2c-0.1,0.2-0.1,0.4-0.2,0.6c0,0.1,0,0.1-0.1,0.1c-0.4-0.1-0.7-0.2-1.1-0.3
			c-0.1,0-0.1,0-0.2,0c-0.8,0.5-1.7,1-2.5,1.4c-0.2,0.1-0.4,0.2-0.6,0.3c-0.1,0-0.1,0.1,0,0.1c1,0.6,2.1,1.2,3.1,1.8
			c0.1,0,0.1,0,0.2,0c0.4-0.1,0.7-0.2,1.1-0.3c0.1,0,0.1,0,0.1,0.1c0.1,0.2,0.1,0.4,0.2,0.6c0,0.1,0,0.1-0.1,0.1
			c-0.3,0.1-0.6,0.2-0.9,0.2c-0.1,0-0.1,0.1-0.1,0.1c0.1,0.3,0.2,0.6,0.2,0.9c0,0.1,0,0.1-0.1,0.1c-0.2,0.1-0.4,0.1-0.6,0.2
			c-0.1,0-0.1,0-0.1-0.1c-0.1-0.4-0.2-0.7-0.3-1.1c0-0.1-0.1-0.1-0.1-0.2c-1-0.6-2-1.2-3.1-1.8c0,0-0.1-0.1-0.1,0c0,0,0,0.1,0,0.1
			c0,1.2,0,2.3,0,3.5c0,0.1,0,0.2,0.1,0.2c0.3,0.3,0.5,0.5,0.8,0.8c0.1,0.1,0.1,0.1,0,0.2c-0.2,0.1-0.3,0.3-0.4,0.4
			c-0.1,0.1-0.1,0.1-0.1,0c-0.2-0.2-0.4-0.4-0.7-0.7c-0.1-0.1-0.1-0.1-0.1,0c-0.2,0.2-0.4,0.4-0.6,0.6c-0.1,0.1-0.1,0.1-0.1,0
			c-0.1-0.2-0.3-0.3-0.5-0.5c-0.1-0.1-0.1-0.1,0-0.1c0.3-0.3,0.5-0.5,0.8-0.8c0.1-0.1,0.1-0.1,0.1-0.2c0-1.2,0-2.4,0-3.5
			c0-0.1,0-0.1-0.1-0.1c-1,0.6-2,1.2-3.1,1.8c-0.1,0-0.1,0.1-0.1,0.1c-0.1,0.4-0.2,0.7-0.3,1.1c0,0.1,0,0.1-0.1,0.1
			c-0.2-0.1-0.4-0.1-0.6-0.2c-0.1,0-0.1-0.1-0.1-0.1c0.1-0.3,0.2-0.6,0.2-0.9c0-0.1,0-0.1-0.1-0.1c-0.3-0.1-0.6-0.2-0.9-0.2
			c-0.1,0-0.1,0-0.1-0.1c0.1-0.2,0.1-0.4,0.2-0.7c0-0.1,0-0.1,0.1-0.1c0.4,0.1,0.8,0.2,1.1,0.3c0.1,0,0.1,0,0.2,0
			c1-0.6,2-1.2,3.1-1.8c0.1-0.1,0.1-0.1,0-0.1c-1-0.6-2-1.1-2.9-1.7c-0.1-0.1-0.3-0.1-0.4-0.1c-0.3,0.1-0.7,0.2-1,0.3
			c-0.1,0-0.1,0-0.1-0.1c-0.1-0.2-0.1-0.4-0.2-0.6c0-0.1,0-0.1,0.1-0.1c0.3-0.1,0.6-0.2,0.9-0.2c0.1,0,0.1-0.1,0.1-0.1
			c-0.1-0.3-0.2-0.6-0.2-0.9c0-0.1,0-0.1,0.1-0.1c0.2-0.1,0.4-0.1,0.6-0.2c0.1,0,0.1,0,0.2,0.1c0.1,0.3,0.2,0.7,0.3,1
			c0,0.1,0.1,0.2,0.2,0.2c1,0.6,2,1.1,3,1.7c0.1,0,0.1,0.1,0.2,0.1c0.1,0,0-0.1,0-0.2C54.2,41.7,54.2,41.1,54.2,40.6
			C54.2,40.6,54.2,40.6,54.2,40.6z"/>
	</g>
</g>
</svg>
