<?xml version="1.0" encoding="utf-8"?>
<!-- Generator: Adobe Illustrator 27.7.0, SVG Export Plug-In . SVG Version: 6.00 Build 0)  -->
<svg version="1.1" id="Camada_1" xmlns="http://www.w3.org/2000/svg" xmlns:xlink="http://www.w3.org/1999/xlink" x="0px" y="0px"
	 viewBox="0 0 80 116" style="enable-background:new 0 0 80 116;" xml:space="preserve">
<style type="text/css">
	.st0{fill:#5C0036;}
	.st1{fill:#FFFFFF;}
</style>
<path class="st0" d="M40,116c0,0-52-54.7-37.4-89.7c14.6-35,60.2-35,74.8,0C92,61.3,40,116,40,116z"/>
<circle class="st1" cx="40" cy="39" r="30"/>
<g>
	<path class="st0" d="M40,55.9c-5.5,0-11.1,0-16.6,0c-0.2,0-0.4,0-0.6-0.1c-0.6-0.1-1-0.6-1-1.2c0-1.4,0-2.8,0-4.2
		c0-0.7,0.5-1.2,1.2-1.3c0.2,0,0.2-0.1,0.2-0.2c0-3.7,0-7.5,0-11.2c0-0.5-0.1-0.8-0.4-1.2c-0.6-0.6-0.9-1.4-1-2.2c0-1.1,0-2.2,0-3.3
		c0-0.6,0.2-1.1,0.4-1.7c0.8-2.4,1.6-4.8,2.4-7.1c0.2-0.5,0.3-0.9,0.8-1.1c0.2-0.1,0.5-0.1,0.8-0.1c7,0,14.1,0,21.1,0
		c2.2,0,4.4,0,6.7,0c0.8,0,1.2,0.3,1.5,1c0,0.1,0,0.1,0.1,0.2c0.6,1.7,1.1,3.4,1.7,5.1c0.3,0.9,0.6,1.9,0.9,2.8
		c0.1,0.4,0.2,0.7,0.2,1.1c0,1,0,2,0,3c0,1.1-0.4,2.1-1.3,2.8c-0.1,0.1-0.1,0.2-0.1,0.3c0,0.9,0,1.7,0,2.6c0,3.1,0,6.1,0,9.2
		c0,0.1,0,0.2,0.2,0.2c0.7,0.1,1.2,0.6,1.2,1.3c0,1.4,0,2.8,0,4.2c0,0.7-0.6,1.3-1.3,1.3c-1.4,0-2.7,0-4.1,0
		C48.5,55.9,44.3,55.9,40,55.9C40,55.9,40,55.9,40,55.9z M40,42c1.8,0,3.6,0,5.4,0c0.1,0,0.2,0,0.4,0c0.6,0.1,1,0.5,1.1,1
		c0,0.2,0,0.4,0,0.6c0,1.7,0,3.5,0,5.2c0,0.1,0,0.2,0.2,0.2c2.3,0,4.6,0,6.9,0c0.2,0,0.2,0,0.2-0.2c0-0.4,0-0.8,0-1.2
		c0-3.3,0-6.7,0-10c0-0.1,0-0.2-0.2-0.2c-0.5-0.1-0.9-0.3-1.3-0.6c-0.1-0.1-0.1-0.1-0.2,0c-1.3,0.9-2.7,0.9-4,0
		c-0.1-0.1-0.1-0.1-0.2,0c-1.2,0.9-2.8,0.9-4,0c-0.1-0.1-0.2-0.1-0.3,0c-1.2,0.9-2.8,0.9-3.9,0c-0.1-0.1-0.2-0.1-0.3,0
		c-1.2,0.9-2.8,0.9-4,0c-0.1-0.1-0.2,0-0.3,0c-1.1,0.9-2.8,0.9-3.9,0c-0.2-0.1-0.2-0.1-0.4,0c-1.2,0.9-2.8,0.8-3.9,0
		c-0.1-0.1-0.1-0.1-0.2,0c-0.3,0.3-0.7,0.4-1.1,0.6c-0.3,0.1-0.3,0-0.3,0.4c0,3.7,0,7.4,0,11c0,0.2,0,0.2,0.2,0.2c2.3,0,4.6,0,6.8,0
		c0.2,0,0.3-0.1,0.3-0.3c0-1.7,0-3.5,0-5.2c0-0.2,0-0.4,0.1-0.6c0.2-0.6,0.7-1,1.4-1C36.3,42,38.1,42,40,42z M40,29.3
		C40,29.3,40,29.3,40,29.3c5,0,9.9,0,14.9,0c0.3,0,0.3,0,0.2-0.3c-0.6-1.7-1.1-3.4-1.7-5.1c-0.1-0.4-0.1-0.4-0.6-0.4
		c-8.5,0-17,0-25.5,0c-0.5,0-0.5,0-0.7,0.5c-0.6,1.7-1.1,3.4-1.7,5.1c-0.1,0.2,0,0.2,0.2,0.2c0.2,0,0.5,0,0.7,0
		C30.5,29.3,35.2,29.3,40,29.3z M40,53.3C40,53.3,40,53.3,40,53.3c4.9,0,9.8,0,14.8,0c0.3,0,0.5,0,0.8,0c0.1,0,0.1,0,0.1-0.1
		c0-0.5,0-0.9,0-1.4c0-0.1-0.1-0.1-0.2-0.1c-0.4,0-0.8,0-1.2,0c-6.9,0-13.8,0-20.8,0c-3,0-6,0-9,0c-0.2,0-0.2,0.1-0.2,0.2
		c0,0.4,0,0.8,0,1.2c0,0.2,0.1,0.3,0.3,0.3C29.7,53.3,34.9,53.3,40,53.3z M40,44.7C40,44.6,40,44.6,40,44.7c-1.4,0-2.8,0-4.2,0
		c-0.1,0-0.2,0-0.2,0.2c0,1.4,0,2.7,0,4.1c0,0.1,0,0.2,0.2,0.2c2.8,0,5.5,0,8.3,0c0.2,0,0.2,0,0.2-0.2c0-1.4,0-2.7,0-4.1
		c0-0.1,0-0.2-0.2-0.2C42.8,44.7,41.4,44.7,40,44.7z M30.2,33.2C30.2,33.2,30.2,33.2,30.2,33.2c0-0.4,0-0.7,0-1.1
		c0-0.1,0-0.2-0.2-0.2c-0.5,0-0.9,0-1.4,0c-0.1,0-0.2,0-0.2,0.2c0,0.7,0,1.4,0,2.1c0,0.5,0.4,0.8,0.9,0.8c0.5,0,0.8-0.3,0.8-0.8
		C30.2,33.9,30.2,33.5,30.2,33.2z M49.8,33.2C49.8,33.2,49.8,33.2,49.8,33.2c0,0.4,0,0.7,0,1.1c0,0.5,0.4,0.8,0.8,0.8
		c0.5,0,0.8-0.4,0.8-0.9c0-0.6,0-1.3,0-1.9c0-0.2,0-0.2-0.2-0.2c-0.4,0-0.9,0-1.3,0c-0.2,0-0.2,0.1-0.2,0.2
		C49.8,32.5,49.8,32.8,49.8,33.2z M26,33.1C26,33.1,26,33.1,26,33.1c0-0.3,0-0.7,0-1c0-0.1,0-0.2-0.2-0.2c-0.4,0-0.9,0-1.3,0
		c-0.1,0-0.2,0-0.2,0.1c0,0.7,0,1.4,0,2.1c0,0.3,0.1,0.5,0.4,0.7c0.3,0.2,0.6,0.2,0.9,0c0.3-0.1,0.4-0.4,0.4-0.7
		C26,33.8,26,33.5,26,33.1z M55.6,33.2C55.7,33.2,55.7,33.2,55.6,33.2c0-0.4,0-0.7,0-1.1c0-0.1,0-0.2-0.2-0.2c-0.4,0-0.9,0-1.3,0
		c-0.1,0-0.2,0-0.2,0.2c0,0.7,0,1.4,0,2c0,0.5,0.4,0.8,0.8,0.8c0.5,0,0.8-0.3,0.8-0.8C55.7,33.9,55.6,33.5,55.6,33.2z M41.3,33.2
		C41.3,33.2,41.3,33.2,41.3,33.2c0,0.3,0,0.7,0,1c0,0.5,0.3,0.8,0.8,0.8c0.5,0,0.8-0.3,0.8-0.8c0-0.7,0-1.3,0-2c0-0.1,0-0.2-0.2-0.2
		c-0.4,0-0.9,0-1.3,0c-0.2,0-0.2,0.1-0.2,0.2C41.3,32.5,41.3,32.8,41.3,33.2z M37.1,33.1C37.1,33.1,37.1,33.1,37.1,33.1
		c0,0.2,0,0.3,0,0.5c0,0.2,0,0.3,0,0.5c0,0.5,0.3,0.8,0.8,0.8c0.5,0,0.8-0.3,0.8-0.8c0-0.7,0-1.3,0-2c0-0.1,0-0.2-0.2-0.2
		c-0.4,0-0.9,0-1.3,0c-0.1,0-0.2,0.1-0.2,0.2C37.1,32.5,37.1,32.8,37.1,33.1z M47.2,33.2C47.2,33.2,47.2,33.2,47.2,33.2
		c0-0.4,0-0.7,0-1.1c0-0.1,0-0.2-0.2-0.2c-0.4,0-0.9,0-1.3,0c-0.1,0-0.2,0-0.2,0.2c0,0.7,0,1.4,0,2.2c0,0.2,0.1,0.3,0.2,0.4
		c0.2,0.3,0.6,0.4,0.9,0.3c0.3-0.1,0.6-0.4,0.6-0.7C47.2,33.9,47.2,33.5,47.2,33.2z M34.5,33.2C34.5,33.2,34.5,33.2,34.5,33.2
		c0-0.4,0-0.7,0-1.1c0-0.1,0-0.2-0.2-0.2c-0.4,0-0.9,0-1.3,0c-0.1,0-0.2,0-0.2,0.2c0,0.7,0,1.4,0,2.1c0,0.4,0.2,0.6,0.5,0.7
		c0.5,0.2,1-0.2,1.1-0.7C34.5,33.9,34.5,33.5,34.5,33.2z"/>
</g>
</svg>
