<?xml version="1.0" encoding="utf-8"?>
<!-- Generator: Adobe Illustrator 27.7.0, SVG Export Plug-In . SVG Version: 6.00 Build 0)  -->
<svg version="1.1" id="Camada_1" xmlns="http://www.w3.org/2000/svg" xmlns:xlink="http://www.w3.org/1999/xlink" x="0px" y="0px"
	 viewBox="0 0 80 116" style="enable-background:new 0 0 80 116;" xml:space="preserve">
<style type="text/css">
	.st0{fill:#A5510C;}
	.st1{fill:#FFFFFF;}
	.st2{fill:none;}
</style>
<path class="st0" d="M40,116c0,0-52-54.7-37.4-89.7s60.2-35,74.8,0S40,116,40,116z"/>
<circle class="st1" cx="40" cy="39" r="30"/>
<rect x="20" y="19" class="st2" width="40" height="40"/>
<g>
	<path class="st0" d="M44,25.3c0,2.4-1.9,4-4.1,4c-2,0-3.9-1.6-3.9-4.1c0-2.2,1.9-4,4.1-4C42.6,21.3,44,23.3,44,25.3z"/>
	<path class="st0" d="M30,54.4c-0.8,0-1.6,0-2.4,0c-0.2,0-0.2,0-0.2-0.2c0.2-1.1,0.3-2.2,0.4-3.3c0.1-0.4,0-0.4,0.5-0.4
		c1.5,0,3,0,4.5,0c0.2,0,0.3,0,0.2,0.2c-0.1,1.2-0.2,2.4-0.3,3.5c0,0.2-0.1,0.2-0.2,0.2C31.6,54.4,30.8,54.4,30,54.4L30,54.4z"/>
	<path class="st0" d="M50,54.4c-0.8,0-1.6,0-2.4,0c-0.2,0-0.2,0-0.2-0.2c-0.1-1.2-0.2-2.4-0.3-3.6c0-0.1,0-0.2,0.2-0.2
		c1.6,0,3.2,0,4.8,0c0.1,0,0.2,0,0.2,0.2c0.1,1,0.3,2.1,0.4,3.1c0,0.2,0,0.3,0.1,0.5c0,0.2,0,0.2-0.2,0.2
		C51.6,54.4,50.8,54.4,50,54.4L50,54.4z"/>
	<path class="st0" d="M36.7,54.4c-0.8,0-1.6,0-2.4,0c-0.2,0-0.2,0-0.2-0.2c0.1-1.2,0.2-2.4,0.3-3.5c0-0.2,0-0.3,0.2-0.3
		c1.5,0,3,0,4.5,0c0.2,0,0.2,0,0.2,0.2c0,1.2,0,2.3,0,3.5c0,0.2-0.1,0.3-0.3,0.3C38.3,54.4,37.5,54.4,36.7,54.4z"/>
	<path class="st0" d="M43.3,54.4c-0.8,0-1.6,0-2.4,0c-0.2,0-0.2-0.1-0.2-0.2c0-1.2,0-2.4,0-3.6c0-0.2,0.1-0.2,0.2-0.2
		c1.5,0,3,0,4.5,0c0.2,0,0.3,0.1,0.3,0.3c0.1,1.2,0.2,2.4,0.3,3.5c0,0.2-0.1,0.2-0.2,0.2C45,54.4,44.1,54.4,43.3,54.4L43.3,54.4z"/>
	<path class="st0" d="M49.4,49c-0.8,0-1.5,0-2.3,0c-0.2,0-0.2,0-0.3-0.2c-0.1-1.1-0.2-2.3-0.3-3.4c0-0.4,0-0.4,0.4-0.4
		c1.4,0,2.9,0,4.3,0c0.2,0,0.3,0.1,0.3,0.3c0.1,1.2,0.3,2.3,0.4,3.5c0,0.2,0,0.3-0.2,0.3C51,49,50.2,49,49.4,49L49.4,49z"/>
	<path class="st0" d="M30.6,49c-0.8,0-1.5,0-2.3,0c-0.2,0-0.2-0.1-0.2-0.3c0.1-0.8,0.2-1.6,0.3-2.5c0-0.4,0.1-0.7,0.1-1.1
		c0-0.2,0.1-0.2,0.3-0.2c1.5,0,2.9,0,4.4,0c0.3,0,0.3,0,0.3,0.3c-0.1,1.2-0.2,2.3-0.3,3.5c0,0.2-0.1,0.3-0.3,0.3
		C32.1,49,31.3,49,30.6,49z"/>
	<path class="st0" d="M48.9,43.7c-0.7,0-1.5,0-2.2,0c-0.2,0-0.2,0-0.2-0.2c-0.1-1.2-0.2-2.4-0.3-3.6c0-0.2,0-0.2,0.2-0.2
		c1.4,0,2.8,0,4.2,0c0.2,0,0.3,0.1,0.3,0.3c0.1,1.2,0.3,2.3,0.4,3.5c0,0.2,0,0.3-0.2,0.3C50.3,43.7,49.6,43.7,48.9,43.7z"/>
	<path class="st0" d="M31.1,43.7c-0.7,0-1.5,0-2.2,0c-0.2,0-0.2-0.1-0.2-0.2c0.2-1.2,0.3-2.4,0.4-3.6c0-0.2,0.1-0.2,0.3-0.2
		c0.7,0,1.4,0,2.1,0c0.7,0,1.4,0,2.1,0c0.2,0,0.2,0.1,0.2,0.2c-0.1,1.2-0.2,2.4-0.3,3.6c0,0.2-0.1,0.2-0.3,0.2
		C32.6,43.7,31.9,43.7,31.1,43.7L31.1,43.7z"/>
	<path class="st0" d="M36.9,49c-0.7,0-1.5,0-2.2,0c-0.2,0-0.2-0.1-0.2-0.2c0.1-1.2,0.2-2.4,0.3-3.6c0-0.2,0.1-0.2,0.3-0.2
		c1.4,0,2.7,0,4.1,0c0.2,0,0.2,0,0.2,0.2c0,1.2,0,2.4,0,3.6c0,0.2-0.1,0.3-0.3,0.2C38.3,49,37.6,49,36.9,49z"/>
	<path class="st0" d="M43.1,49c-0.7,0-1.5,0-2.2,0c-0.2,0-0.2-0.1-0.2-0.2c0-1.2,0-2.4,0-3.6c0-0.2,0-0.2,0.2-0.2c1.3,0,2.7,0,4,0
		c0.3,0,0.3,0,0.3,0.3c0.1,1.2,0.2,2.3,0.3,3.5c0,0.2,0,0.2-0.2,0.2C44.6,49,43.8,49,43.1,49z"/>
	<path class="st0" d="M23.7,54.4c-0.7,0-1.4,0-2.1,0c-0.2,0-0.2,0-0.2-0.2c0.3-1.2,0.5-2.4,0.8-3.6c0-0.2,0.1-0.2,0.3-0.2
		c1.3,0,2.5,0,3.8,0c0.2,0,0.2,0,0.2,0.2c-0.2,1.2-0.3,2.4-0.4,3.6c0,0.2-0.1,0.2-0.2,0.2C25.1,54.4,24.4,54.4,23.7,54.4L23.7,54.4z
		"/>
	<path class="st0" d="M56.3,54.4c-0.7,0-1.4,0-2.1,0c-0.2,0-0.2,0-0.3-0.2c-0.1-1.2-0.3-2.4-0.5-3.6c0-0.1,0-0.2,0.1-0.2
		c1.3,0,2.6,0,3.9,0c0.2,0,0.2,0.1,0.2,0.2c0.2,1.2,0.5,2.4,0.7,3.6c0,0.2,0,0.2-0.2,0.2C57.7,54.4,57,54.4,56.3,54.4L56.3,54.4z"/>
	<path class="st0" d="M37.1,43.7c-0.7,0-1.3,0-2,0c-0.2,0-0.2-0.1-0.2-0.2c0.1-0.8,0.1-1.6,0.2-2.3c0-0.4,0.1-0.8,0.1-1.2
		c0-0.2,0.1-0.2,0.2-0.2c1.2,0,2.4,0,3.6,0c0.2,0,0.2,0,0.2,0.2c0,1.2,0,2.4,0,3.6c0,0.2,0,0.3-0.3,0.3
		C38.4,43.7,37.8,43.7,37.1,43.7z"/>
	<path class="st0" d="M42.9,43.7c-0.7,0-1.3,0-2,0c-0.2,0-0.2,0-0.2-0.2c0-1.2,0-2.4,0-3.6c0-0.2,0.1-0.2,0.2-0.2c1.2,0,2.4,0,3.7,0
		c0.1,0,0.2,0,0.2,0.2c0.1,1.2,0.2,2.4,0.3,3.6c0,0.2,0,0.3-0.2,0.2C44.2,43.7,43.5,43.7,42.9,43.7L42.9,43.7z"/>
	<path class="st0" d="M24.6,49c-0.6,0-1.2,0-1.9,0c-0.1,0-0.2,0-0.2-0.2c0.3-1.2,0.5-2.4,0.8-3.6c0-0.2,0.1-0.2,0.3-0.2
		c1.1,0,2.3,0,3.4,0c0.2,0,0.2,0,0.2,0.2c-0.1,0.8-0.2,1.6-0.3,2.4c-0.1,0.4-0.1,0.8-0.2,1.2c0,0.2-0.1,0.2-0.3,0.2
		C25.8,49,25.2,49,24.6,49L24.6,49z"/>
	<path class="st0" d="M55.4,49c-0.6,0-1.2,0-1.8,0c-0.2,0-0.3,0-0.3-0.3c-0.1-1.2-0.3-2.3-0.4-3.5c0-0.2,0-0.3,0.2-0.3
		c1.1,0,2.2,0,3.3,0c0.2,0,0.3,0.1,0.3,0.3c0.2,1.2,0.5,2.3,0.7,3.5c0.1,0.3,0.1,0.3-0.2,0.3C56.6,49,56,49,55.4,49L55.4,49z"/>
	<path class="st0" d="M25.5,43.7c-0.5,0-1.1,0-1.6,0c-0.2,0-0.2-0.1-0.2-0.2c0.2-1.1,0.5-2.3,0.7-3.4c0.1-0.4,0.1-0.4,0.5-0.4
		c0.9,0,1.8,0,2.7,0c0.3,0,0.3,0,0.3,0.3c-0.1,1-0.3,1.9-0.4,2.9c0,0.2-0.1,0.4-0.1,0.7c0,0.1-0.1,0.2-0.2,0.2
		C26.6,43.7,26,43.7,25.5,43.7L25.5,43.7z"/>
	<path class="st0" d="M54.5,43.7c-0.5,0-1.1,0-1.6,0c-0.2,0-0.3-0.1-0.3-0.3c-0.1-0.9-0.2-1.7-0.3-2.6c0-0.3-0.1-0.7-0.1-1
		c0-0.1,0-0.2,0.1-0.2c1,0,2,0,3,0c0.1,0,0.2,0,0.2,0.2c0.2,1.2,0.5,2.4,0.7,3.6c0,0.2,0,0.2-0.2,0.2C55.6,43.7,55.1,43.7,54.5,43.7
		z"/>
	<path class="st0" d="M40,57.8c-0.8,0-1.6,0-2.5,0c-0.2,0-0.2,0-0.2-0.2c0-0.5,0-1.1,0-1.6c0-0.2,0.1-0.2,0.3-0.2c1.2,0,2.3,0,3.5,0
		c0.4,0,0.9,0,1.3,0c0.3,0,0.3,0,0.3,0.3c0,0.5,0,1,0,1.4c0,0.2,0,0.3-0.2,0.3C41.6,57.7,40.8,57.7,40,57.8C40,57.7,40,57.8,40,57.8
		z"/>
	<path class="st0" d="M48,24.6c0.4,0,0.8,0,1.2,0c0.1,0,0.2,0,0.2,0.2c0,0.3,0,0.7,0,1c0,0.1-0.1,0.2-0.2,0.2c-0.8,0-1.6,0-2.3,0
		c-0.1,0-0.2,0-0.2-0.2c0-0.3,0-0.7,0-1c0-0.1,0-0.2,0.2-0.2C47.2,24.6,47.6,24.6,48,24.6L48,24.6z"/>
	<path class="st0" d="M32,24.6c0.4,0,0.8,0,1.2,0c0.1,0,0.2,0,0.2,0.2c0,0.3,0,0.7,0,1c0,0.1-0.1,0.2-0.2,0.2c-0.8,0-1.6,0-2.4,0
		c-0.1,0-0.2-0.1-0.1-0.2c0-0.3,0-0.7,0-1c0-0.1,0-0.2,0.2-0.2C31.2,24.6,31.6,24.6,32,24.6z"/>
	<path class="st0" d="M39.3,33.3c0-0.4,0-0.8,0-1.1c0-0.2,0.1-0.2,0.2-0.2c0.3,0,0.6,0,1,0c0.1,0,0.2,0.1,0.2,0.2c0,0.8,0,1.5,0,2.3
		c0,0.2,0,0.2-0.2,0.2c-0.3,0-0.6,0-0.9,0c-0.2,0-0.2-0.1-0.2-0.2C39.3,34,39.3,33.7,39.3,33.3L39.3,33.3z"/>
	<path class="st0" d="M40.7,17.2c0,0.4,0,0.7,0,1.1c0,0.2,0,0.3-0.2,0.2c-0.3,0-0.6,0-0.9,0c-0.1,0-0.2,0-0.2-0.2c0-0.8,0-1.6,0-2.3
		c0-0.1,0-0.2,0.2-0.2c0.3,0,0.6,0,1,0c0.1,0,0.2,0,0.2,0.2C40.6,16.4,40.7,16.8,40.7,17.2L40.7,17.2z"/>
	<path class="st0" d="M45.2,29.6l0.1,0.1c0.5,0.5,1.1,1.1,1.6,1.6c0.1,0.1,0.1,0.1,0,0.2c-0.2,0.2-0.5,0.5-0.7,0.7
		c-0.1,0.1-0.1,0.1-0.2,0c-0.6-0.6-1.1-1.1-1.7-1.7c-0.1-0.1-0.1-0.1,0-0.2c0.2-0.2,0.5-0.5,0.7-0.7C45.1,29.6,45.2,29.6,45.2,29.6z
		"/>
	<path class="st0" d="M34.8,20.9c-0.1,0-0.1,0-0.1-0.1c-0.6-0.5-1.1-1.1-1.7-1.7c-0.1-0.1-0.1-0.1,0-0.2c0.3-0.3,0.5-0.5,0.7-0.8
		c0.1-0.1,0.1-0.1,0.2,0c0.6,0.6,1.1,1.1,1.7,1.7c0,0,0.1,0.1,0,0.2C35.4,20.4,35.1,20.6,34.8,20.9L34.8,20.9z"/>
	<path class="st0" d="M47.1,19.1L47,19.2c-0.5,0.5-1.1,1.1-1.6,1.6c-0.1,0.1-0.2,0.1-0.3,0c-0.2-0.2-0.4-0.5-0.7-0.7
		c-0.1-0.1-0.1-0.2,0-0.3c0.5-0.5,1.1-1.1,1.6-1.6c0.1-0.1,0.1-0.1,0.2,0C46.5,18.5,46.8,18.8,47.1,19.1L47.1,19.1z"/>
	<path class="st0" d="M34.8,29.6c0.1,0,0.1,0.1,0.1,0.1c0.2,0.2,0.5,0.5,0.7,0.7c0.1,0.1,0.1,0.1,0,0.2c-0.6,0.6-1.1,1.1-1.7,1.7
		c-0.1,0.1-0.1,0.1-0.2,0c-0.2-0.3-0.5-0.5-0.7-0.8c-0.1-0.1,0-0.1,0-0.2C33.6,30.8,34.1,30.2,34.8,29.6
		C34.7,29.6,34.7,29.6,34.8,29.6z"/>
</g>
</svg>
